<svg id="svg" xmlns="http://www.w3.org/2000/svg" xmlns:xlink="http://www.w3.org/1999/xlink" width="400" height="400" viewBox="0, 0, 400,400"><g id="svgg"><path id="path0" d="M42.400 1.200 C 42.400 2.190,42.237 2.400,41.467 2.400 C 40.953 2.400,40.398 2.535,40.233 2.700 C 40.068 2.865,39.723 3.000,39.467 3.000 C 39.210 3.000,38.984 3.180,38.965 3.400 C 38.946 3.620,38.822 4.070,38.689 4.400 C 38.556 4.730,38.381 5.360,38.300 5.800 C 38.219 6.240,37.911 6.546,37.617 6.480 C 37.322 6.414,36.792 6.489,36.440 6.646 C 36.088 6.803,35.620 6.946,35.400 6.965 C 35.180 6.984,34.997 7.180,34.994 7.400 C 34.991 7.620,34.840 8.034,34.658 8.319 C 34.477 8.605,34.427 9.094,34.547 9.406 C 34.815 10.106,34.352 10.414,32.719 10.620 C 31.133 10.821,30.820 11.141,30.614 12.773 C 30.409 14.389,30.389 14.409,28.773 14.614 C 26.911 14.849,26.759 15.072,26.428 18.047 C 26.412 18.183,25.665 18.393,24.767 18.514 C 22.767 18.782,22.782 18.768,22.520 20.721 C 22.319 22.220,22.220 22.319,20.721 22.520 C 18.768 22.782,18.782 22.767,18.514 24.767 C 18.393 25.665,18.093 26.412,17.847 26.428 C 14.945 26.606,14.829 26.684,14.582 28.618 C 14.474 29.459,14.344 30.171,14.293 30.200 C 14.242 30.229,13.480 30.421,12.600 30.626 C 11.131 30.969,10.963 31.147,10.550 32.800 C 10.276 33.896,9.901 34.553,9.591 34.480 C 9.310 34.414,8.792 34.489,8.440 34.646 C 8.088 34.803,7.620 34.946,7.400 34.965 C 7.180 34.984,6.978 35.225,6.950 35.500 C 6.922 35.775,6.867 36.135,6.827 36.300 C 6.787 36.465,6.762 104.820,6.771 188.200 L 6.789 339.800 8.001 340.900 C 8.667 341.505,9.457 342.000,9.756 342.000 C 10.055 342.000,10.403 342.495,10.529 343.100 C 10.751 344.166,12.620 345.600,13.789 345.600 C 14.077 345.600,14.430 346.065,14.573 346.634 C 14.886 347.882,16.649 349.600,17.615 349.600 C 18.032 349.600,18.418 350.016,18.573 350.634 C 18.886 351.882,20.649 353.600,21.615 353.600 C 22.032 353.600,22.418 354.016,22.573 354.634 C 22.877 355.844,24.635 357.596,25.558 357.609 C 25.911 357.613,26.470 358.198,26.800 358.909 C 27.153 359.668,28.081 360.572,29.053 361.104 C 30.002 361.623,30.909 362.498,31.182 363.156 C 31.472 363.857,32.243 364.568,33.159 364.981 C 34.211 365.456,34.806 366.061,35.147 367.004 C 35.502 367.985,36.000 368.470,36.989 368.796 C 37.918 369.103,38.584 369.709,39.105 370.722 C 39.552 371.590,40.432 372.472,41.238 372.858 C 42.153 373.298,42.775 373.976,43.109 374.900 C 43.473 375.905,44.045 376.479,45.205 377.002 C 46.082 377.398,46.800 377.954,46.800 378.238 C 46.800 379.525,48.607 380.786,51.000 381.171 C 52.516 381.415,107.810 381.528,201.200 381.478 C 361.782 381.393,351.510 381.541,352.624 379.303 C 353.325 377.894,354.374 376.893,355.423 376.630 C 355.994 376.487,356.486 375.998,356.628 375.432 C 356.905 374.325,358.233 373.003,359.428 372.642 C 359.883 372.504,360.556 371.762,360.923 370.992 C 361.319 370.161,362.143 369.328,362.945 368.945 C 363.732 368.571,364.571 367.732,364.945 366.945 C 365.320 366.159,366.159 365.320,366.945 364.945 C 367.732 364.571,368.571 363.732,368.945 362.945 C 369.331 362.137,370.162 361.319,371.008 360.916 C 371.800 360.538,372.523 359.851,372.646 359.358 C 372.913 358.293,374.269 356.992,375.499 356.619 C 375.994 356.469,376.504 355.926,376.633 355.411 C 376.912 354.299,378.247 352.999,379.499 352.619 C 379.994 352.469,380.504 351.926,380.633 351.411 C 380.910 350.306,382.245 348.999,383.480 348.626 C 383.963 348.479,384.480 347.963,384.627 347.480 C 385.010 346.222,385.995 345.213,387.423 344.616 C 388.174 344.302,388.870 343.597,389.190 342.825 C 389.520 342.027,390.256 341.298,391.159 340.873 C 392.384 340.297,392.674 339.896,393.093 338.199 C 393.699 335.745,393.867 39.015,393.263 38.257 C 393.062 38.006,392.782 37.422,392.641 36.961 C 392.500 36.499,391.938 35.918,391.392 35.669 C 390.847 35.421,390.400 35.033,390.400 34.809 C 390.400 34.584,390.118 34.400,389.773 34.400 C 389.323 34.400,389.220 34.169,389.406 33.580 C 389.682 32.712,388.692 30.800,387.967 30.800 C 387.739 30.800,387.663 30.978,387.797 31.195 C 387.937 31.422,387.777 31.489,387.421 31.353 C 387.079 31.222,386.800 30.954,386.800 30.757 C 386.800 30.561,386.559 30.400,386.264 30.400 C 385.970 30.400,385.518 29.939,385.261 29.375 C 384.919 28.625,384.916 28.425,385.249 28.630 C 385.529 28.803,385.626 28.698,385.502 28.356 C 385.391 28.050,385.119 27.838,384.898 27.884 C 384.676 27.930,384.176 27.615,383.786 27.184 C 383.395 26.753,382.744 26.400,382.338 26.400 C 381.919 26.400,381.580 26.097,381.554 25.700 C 381.432 23.855,380.875 22.796,380.167 23.068 C 379.855 23.188,379.600 23.065,379.600 22.796 C 379.600 22.499,379.276 22.391,378.776 22.522 C 377.875 22.758,377.611 22.361,377.473 20.569 C 377.373 19.266,376.108 18.415,374.257 18.406 C 373.262 18.401,373.144 18.279,373.346 17.474 C 373.665 16.202,372.573 14.691,371.566 15.011 C 371.138 15.147,370.800 15.066,370.800 14.827 C 370.800 14.592,370.420 14.400,369.957 14.400 C 369.275 14.400,369.158 14.223,369.346 13.474 C 369.665 12.202,368.573 10.691,367.566 11.011 C 367.138 11.147,366.800 11.066,366.800 10.827 C 366.800 10.592,366.420 10.400,365.957 10.400 C 365.275 10.400,365.158 10.223,365.346 9.474 C 365.665 8.202,364.573 6.691,363.566 7.011 C 363.138 7.147,362.800 7.066,362.800 6.827 C 362.800 6.592,362.370 6.400,361.843 6.400 C 361.157 6.400,360.816 6.118,360.636 5.400 C 360.498 4.850,360.208 4.400,359.992 4.400 C 359.777 4.400,359.600 4.201,359.600 3.957 C 359.600 3.714,359.870 3.618,360.200 3.745 C 361.096 4.088,360.924 3.695,359.952 3.174 C 359.356 2.855,359.184 2.851,359.375 3.160 C 359.525 3.402,359.407 3.600,359.113 3.600 C 358.294 3.600,357.200 2.110,357.200 0.995 C 357.200 0.080,357.053 0.000,355.375 0.000 C 352.875 0.000,352.679 2.578,355.176 2.627 C 355.932 2.641,356.623 2.868,356.710 3.129 C 356.797 3.391,357.064 3.484,357.302 3.337 C 357.579 3.166,357.643 3.312,357.479 3.739 C 356.932 5.165,357.623 6.800,358.774 6.800 C 360.234 6.800,361.175 7.570,361.429 8.973 C 361.734 10.652,361.894 10.800,363.405 10.800 C 364.718 10.800,366.045 12.956,365.387 14.021 C 365.136 14.427,366.223 14.800,367.656 14.800 C 368.311 14.800,368.745 14.965,368.621 15.166 C 368.497 15.367,368.602 15.601,368.855 15.685 C 369.108 15.769,369.339 16.280,369.369 16.819 C 369.458 18.411,369.940 18.800,371.824 18.800 L 373.600 18.800 373.600 20.600 C 373.600 22.385,373.612 22.400,374.976 22.400 C 375.733 22.400,376.466 22.583,376.604 22.807 C 376.742 23.030,377.023 23.109,377.228 22.983 C 377.436 22.854,377.600 23.544,377.600 24.554 L 377.600 26.356 379.500 26.478 L 381.400 26.600 381.522 28.500 C 381.642 30.366,381.668 30.400,382.989 30.400 C 385.246 30.400,385.600 30.704,385.600 32.643 C 385.600 34.488,385.914 34.681,388.487 34.423 C 389.187 34.353,389.478 35.073,389.690 37.400 C 389.779 38.370,390.006 38.624,390.871 38.724 C 392.661 38.931,393.680 41.460,392.579 42.962 C 390.330 46.032,390.218 54.261,391.239 141.800 C 391.619 174.337,391.624 192.137,391.262 220.800 C 391.006 241.150,390.701 273.460,390.584 292.600 C 390.342 332.475,390.117 337.105,388.327 339.144 C 387.673 339.889,386.943 340.926,386.705 341.449 C 386.467 341.972,386.037 342.400,385.750 342.400 C 385.030 342.400,382.400 344.763,382.400 345.408 C 382.400 345.698,381.725 346.264,380.900 346.667 C 379.943 347.135,379.135 347.943,378.667 348.900 C 378.264 349.725,377.661 350.400,377.328 350.400 C 376.491 350.400,374.400 352.716,374.400 353.642 C 374.400 354.140,374.118 354.400,373.577 354.400 C 372.600 354.400,370.400 356.677,370.400 357.689 C 370.400 358.108,370.103 358.400,369.678 358.400 C 368.775 358.400,366.400 360.804,366.400 361.719 C 366.400 362.105,366.092 362.400,365.689 362.400 C 364.677 362.400,362.400 364.600,362.400 365.577 C 362.400 366.143,362.141 366.400,361.569 366.400 C 360.535 366.400,358.400 368.479,358.400 369.487 C 358.400 369.984,357.967 370.363,357.108 370.617 C 356.267 370.866,355.420 371.593,354.682 372.700 C 354.058 373.635,353.334 374.406,353.074 374.413 C 352.370 374.433,351.082 375.677,350.394 377.001 C 349.461 378.797,356.150 378.718,200.400 378.756 C 45.292 378.793,50.125 378.838,49.751 377.346 C 49.490 376.309,47.454 374.400,46.608 374.400 C 46.317 374.400,45.889 373.905,45.658 373.300 C 45.038 371.679,44.283 370.886,43.072 370.582 C 42.391 370.411,41.904 369.959,41.753 369.355 C 41.489 368.304,39.455 366.400,38.596 366.400 C 38.298 366.400,37.927 365.995,37.771 365.500 C 37.403 364.327,35.825 362.872,34.583 362.560 C 34.011 362.416,33.600 362.023,33.600 361.619 C 33.600 360.746,32.572 359.802,30.821 359.066 C 29.998 358.720,29.216 357.979,28.833 357.181 C 28.474 356.436,27.564 355.539,26.731 355.110 C 25.825 354.643,25.105 353.903,24.851 353.175 C 24.619 352.510,23.816 351.629,23.006 351.150 C 22.216 350.685,21.296 349.773,20.961 349.124 C 20.625 348.475,19.743 347.585,19.000 347.147 C 18.257 346.709,17.297 345.753,16.866 345.022 C 16.402 344.235,15.414 343.399,14.441 342.970 C 13.525 342.566,12.800 341.969,12.800 341.619 C 12.800 340.983,11.265 339.112,10.260 338.522 C 8.939 337.748,8.051 203.346,8.727 106.615 C 9.133 48.512,9.098 46.633,7.562 43.436 C 6.762 41.771,6.881 38.843,7.751 38.754 C 7.998 38.728,8.380 38.666,8.600 38.615 C 8.820 38.564,9.305 38.494,9.678 38.461 C 10.192 38.415,10.386 37.941,10.478 36.500 L 10.600 34.600 12.479 34.479 L 14.358 34.358 14.479 32.479 L 14.600 30.600 16.479 30.479 L 18.358 30.358 18.479 28.479 L 18.600 26.600 20.479 26.479 L 22.358 26.358 22.479 24.479 L 22.600 22.600 24.500 22.478 C 26.364 22.358,26.401 22.330,26.450 20.978 C 26.477 20.220,26.523 19.375,26.550 19.100 C 26.580 18.797,27.347 18.552,28.500 18.478 L 30.400 18.356 30.400 16.621 C 30.400 14.703,30.759 14.400,33.033 14.400 C 34.434 14.400,34.609 14.032,34.507 11.300 C 34.497 11.025,34.694 10.784,34.944 10.765 C 38.483 10.496,38.316 10.595,38.531 8.640 C 38.724 6.886,39.267 6.415,41.100 6.406 C 42.313 6.400,42.400 6.308,42.400 5.029 C 42.400 3.286,43.286 2.400,45.029 2.400 C 46.286 2.400,46.400 2.300,46.400 1.200 C 46.400 0.027,46.356 0.000,44.400 0.000 C 42.444 0.000,42.400 0.027,42.400 1.200 M364.818 8.034 C 365.064 8.493,365.160 8.973,365.032 9.101 C 364.905 9.229,364.800 9.136,364.800 8.895 C 364.800 8.654,364.517 8.174,364.171 7.829 C 363.826 7.483,363.729 7.200,363.957 7.200 C 364.185 7.200,364.573 7.575,364.818 8.034 M56.700 8.446 C 56.095 8.897,55.600 9.489,55.600 9.760 C 55.600 10.031,54.861 10.668,53.957 11.176 C 53.054 11.684,51.952 12.714,51.509 13.464 C 51.066 14.215,50.184 15.098,49.550 15.426 C 48.915 15.754,47.944 16.738,47.393 17.611 C 46.841 18.485,46.221 19.200,46.016 19.200 C 45.507 19.200,43.600 20.997,43.600 21.476 C 43.600 21.924,41.894 23.600,41.438 23.600 C 41.076 23.600,39.633 25.260,39.613 25.700 C 39.595 26.114,38.075 27.600,37.670 27.600 C 37.281 27.600,35.600 29.327,35.600 29.726 C 35.600 30.112,34.068 31.600,33.670 31.600 C 33.281 31.600,31.600 33.327,31.600 33.726 C 31.600 34.112,30.068 35.600,29.670 35.600 C 29.239 35.600,27.605 37.341,27.582 37.826 C 27.571 38.032,27.096 38.560,26.524 39.000 C 25.374 39.885,24.223 41.006,22.980 42.448 C 22.529 42.972,21.809 43.592,21.380 43.826 C 19.351 44.933,18.616 47.741,18.613 54.400 C 18.611 57.810,18.613 105.150,18.617 159.600 C 18.621 214.050,18.619 275.700,18.612 296.600 C 18.599 338.895,18.413 336.037,21.250 337.281 C 21.900 337.567,22.536 338.212,22.663 338.716 C 22.899 339.650,25.108 341.600,25.930 341.600 C 26.180 341.600,26.499 342.057,26.640 342.616 C 26.894 343.629,29.067 345.600,29.930 345.600 C 30.180 345.600,30.499 346.057,30.640 346.616 C 30.894 347.629,33.067 349.600,33.930 349.600 C 34.180 349.600,34.499 350.057,34.640 350.616 C 34.889 351.610,37.062 353.600,37.899 353.600 C 38.131 353.600,38.502 354.117,38.722 354.748 C 39.209 356.144,40.700 357.600,41.644 357.600 C 42.081 357.600,42.429 358.023,42.588 358.745 C 42.864 360.002,44.451 361.600,45.423 361.600 C 45.763 361.600,46.287 362.189,46.587 362.908 C 47.208 364.394,48.204 365.385,49.460 365.767 C 49.941 365.913,50.438 366.497,50.587 367.090 C 50.883 368.272,51.683 369.039,53.245 369.638 C 53.820 369.859,54.495 370.490,54.746 371.041 C 55.800 373.354,45.472 373.200,200.000 373.200 C 354.086 373.200,343.943 373.352,345.187 371.026 C 345.510 370.422,346.427 369.594,347.226 369.187 C 348.024 368.779,348.948 367.888,349.279 367.205 C 349.609 366.522,350.478 365.643,351.209 365.251 C 351.940 364.859,352.859 363.940,353.251 363.209 C 353.643 362.478,354.522 361.609,355.205 361.279 C 355.888 360.948,356.778 360.027,357.184 359.232 C 357.623 358.372,358.491 357.514,359.327 357.116 C 360.259 356.671,360.894 355.998,361.213 355.116 C 361.554 354.171,362.131 353.599,363.203 353.141 C 364.282 352.681,364.853 352.111,365.203 351.148 C 365.504 350.318,366.173 349.559,366.946 349.171 C 367.636 348.825,368.560 347.880,369.000 347.071 C 369.440 346.262,370.379 345.324,371.087 344.987 C 371.813 344.642,372.655 343.783,373.018 343.018 C 373.377 342.262,374.223 341.394,374.931 341.057 C 375.629 340.724,376.533 339.829,376.941 339.067 C 377.348 338.305,378.293 337.353,379.040 336.951 C 381.368 335.697,381.406 335.346,381.345 315.400 C 381.315 305.500,381.180 241.087,381.045 172.260 C 380.786 40.061,380.848 44.400,379.210 44.400 C 378.931 44.400,376.986 42.532,375.580 40.914 C 375.239 40.521,374.384 39.768,373.680 39.240 C 372.976 38.712,372.400 38.050,372.400 37.767 C 372.400 37.485,371.815 36.847,371.100 36.350 C 370.385 35.852,369.530 35.086,369.200 34.647 C 368.870 34.208,367.685 32.937,366.566 31.822 C 365.447 30.708,364.457 29.615,364.366 29.395 C 364.275 29.174,363.445 28.403,362.522 27.681 C 361.599 26.958,360.729 26.008,360.590 25.569 C 360.451 25.129,359.636 24.328,358.780 23.787 C 357.923 23.247,356.945 22.266,356.605 21.609 C 356.265 20.951,355.437 20.129,354.765 19.782 C 354.093 19.435,353.175 18.525,352.724 17.761 C 352.273 16.996,351.373 16.096,350.724 15.761 C 350.075 15.425,349.193 14.555,348.763 13.828 C 348.334 13.100,347.191 12.005,346.222 11.392 C 345.254 10.780,344.374 9.944,344.267 9.534 C 343.731 7.486,352.234 7.599,199.513 7.613 L 57.800 7.625 56.700 8.446 M368.818 12.034 C 369.064 12.493,369.160 12.973,369.032 13.101 C 368.905 13.229,368.800 13.136,368.800 12.895 C 368.800 12.654,368.517 12.174,368.171 11.829 C 367.826 11.483,367.729 11.200,367.957 11.200 C 368.185 11.200,368.573 11.575,368.818 12.034 M372.818 16.034 C 373.064 16.493,373.160 16.973,373.032 17.101 C 372.905 17.229,372.800 17.136,372.800 16.895 C 372.800 16.654,372.517 16.174,372.171 15.829 C 371.826 15.483,371.729 15.200,371.957 15.200 C 372.185 15.200,372.573 15.575,372.818 16.034 M392.142 35.781 C 392.724 36.320,393.200 37.070,393.200 37.448 C 393.200 37.825,393.327 38.006,393.482 37.851 C 393.910 37.423,392.360 34.800,391.679 34.800 C 391.277 34.800,391.428 35.120,392.142 35.781 M151.000 85.998 C 151.880 86.389,153.946 87.190,155.591 87.779 C 157.499 88.461,159.070 89.337,159.931 90.198 C 160.673 90.940,161.847 91.823,162.540 92.160 C 163.233 92.498,164.410 93.410,165.156 94.187 C 165.902 94.964,166.694 95.600,166.915 95.600 C 167.268 95.600,169.845 97.554,171.290 98.919 C 171.571 99.183,172.451 99.886,173.248 100.480 C 175.618 102.250,175.642 102.541,175.579 128.747 C 175.518 154.140,175.553 154.586,177.686 156.020 C 178.160 156.339,179.280 157.244,180.174 158.030 C 181.068 158.817,182.209 159.737,182.709 160.074 C 183.208 160.411,184.288 161.298,185.109 162.044 C 186.629 163.426,187.863 164.142,189.538 164.614 C 190.055 164.759,191.159 165.581,191.993 166.441 C 192.827 167.300,194.115 168.267,194.855 168.590 C 195.595 168.912,196.914 169.829,197.787 170.626 C 198.660 171.424,200.055 172.349,200.888 172.682 C 201.721 173.015,202.949 173.978,203.618 174.822 C 204.286 175.666,205.222 176.480,205.698 176.631 C 206.613 176.921,207.600 177.750,207.600 178.228 C 207.600 178.513,209.211 180.069,210.677 181.200 C 211.104 181.530,211.865 182.828,212.367 184.084 C 213.532 186.999,213.913 187.314,215.531 186.704 C 217.759 185.863,216.895 179.069,214.248 176.622 C 213.522 175.950,212.530 174.820,212.044 174.111 C 211.559 173.402,210.664 172.529,210.056 172.169 C 209.448 171.810,208.601 170.981,208.175 170.327 C 207.719 169.628,206.266 168.561,204.648 167.737 C 203.134 166.967,201.462 165.821,200.931 165.191 C 200.400 164.560,199.299 163.639,198.483 163.144 C 197.667 162.649,196.854 162.005,196.675 161.712 C 196.496 161.420,195.596 160.818,194.675 160.375 C 193.754 159.932,192.535 158.901,191.966 158.085 C 191.388 157.255,189.988 156.096,188.793 155.459 C 187.616 154.831,186.087 153.734,185.395 153.022 C 184.703 152.309,183.563 151.387,182.864 150.974 C 180.044 149.308,180.020 149.060,179.992 121.707 C 179.963 92.137,179.451 94.769,186.047 90.608 C 186.403 90.384,187.168 89.864,187.748 89.453 C 192.342 86.199,209.912 87.557,211.533 91.293 C 211.607 91.462,211.922 91.600,212.233 91.600 C 212.545 91.600,212.800 91.780,212.800 92.000 C 212.800 92.220,213.070 92.400,213.399 92.400 C 213.729 92.400,214.763 93.120,215.697 94.000 C 216.631 94.880,217.628 95.600,217.913 95.600 C 218.197 95.600,219.206 96.399,220.155 97.375 C 221.104 98.352,222.583 99.517,223.440 99.964 C 224.298 100.412,225.562 101.278,226.250 101.889 C 228.365 103.770,229.195 104.400,229.554 104.400 C 229.744 104.400,230.597 105.045,231.450 105.833 C 232.302 106.620,233.757 107.713,234.682 108.260 C 235.607 108.807,236.465 109.574,236.589 109.964 C 236.713 110.355,237.756 111.168,238.907 111.771 C 240.058 112.375,241.889 113.663,242.975 114.634 C 244.061 115.605,245.100 116.400,245.284 116.400 C 245.468 116.400,246.379 117.088,247.309 117.928 C 248.239 118.769,249.630 119.840,250.400 120.308 C 251.170 120.776,252.248 121.708,252.796 122.379 C 253.343 123.051,254.088 123.600,254.451 123.600 C 254.814 123.600,255.806 124.235,256.655 125.010 C 257.505 125.786,259.280 127.137,260.600 128.014 C 264.287 130.461,267.256 132.706,268.526 134.005 C 269.160 134.653,270.468 135.578,271.434 136.060 C 272.399 136.542,273.294 137.265,273.421 137.667 C 273.549 138.069,274.091 138.508,274.627 138.642 C 275.162 138.777,275.600 139.047,275.600 139.243 C 275.600 139.440,275.772 139.600,275.982 139.600 C 276.443 139.600,278.882 141.225,279.801 142.144 C 280.163 142.506,281.211 143.336,282.130 143.987 C 283.048 144.638,284.325 145.718,284.967 146.386 C 285.608 147.054,286.353 147.600,286.622 147.600 C 286.891 147.600,287.806 148.220,288.655 148.977 C 290.751 150.846,293.259 152.775,296.579 155.075 C 298.108 156.134,299.882 157.585,300.521 158.300 C 301.160 159.015,301.934 159.600,302.242 159.600 C 302.549 159.600,303.476 160.285,304.300 161.121 C 305.125 161.958,306.455 162.947,307.255 163.319 C 308.055 163.690,309.277 164.525,309.971 165.173 C 310.665 165.821,312.170 166.928,313.316 167.632 C 314.462 168.337,315.760 169.315,316.200 169.806 C 316.640 170.298,317.759 171.192,318.687 171.794 C 319.615 172.397,320.477 173.213,320.603 173.609 C 320.729 174.005,321.620 174.976,322.584 175.766 C 323.627 176.620,324.440 177.670,324.591 178.358 C 324.730 178.994,325.385 180.366,326.046 181.408 C 328.343 185.030,328.600 186.116,328.600 192.200 C 328.600 197.547,328.256 199.574,327.107 201.000 C 326.930 201.220,326.410 201.850,325.952 202.400 C 325.494 202.950,324.778 204.122,324.361 205.004 C 323.943 205.887,323.120 206.967,322.531 207.404 C 321.942 207.842,321.267 208.449,321.030 208.753 C 319.580 210.618,315.639 214.012,312.800 215.840 C 311.810 216.478,310.550 217.423,310.000 217.941 C 309.450 218.458,308.092 219.475,306.983 220.200 C 305.873 220.925,304.706 221.832,304.389 222.214 C 304.071 222.596,303.089 223.355,302.206 223.901 C 301.323 224.447,300.060 225.457,299.400 226.146 C 298.740 226.836,297.570 227.752,296.800 228.181 C 296.031 228.611,294.967 229.397,294.436 229.928 C 293.906 230.458,292.527 231.496,291.373 232.235 C 290.219 232.973,289.213 233.746,289.137 233.953 C 289.062 234.160,288.035 234.977,286.855 235.768 C 285.675 236.559,284.365 237.645,283.944 238.181 C 283.522 238.717,282.375 239.556,281.394 240.046 C 280.413 240.536,279.516 241.221,279.400 241.568 C 279.285 241.916,278.273 242.740,277.151 243.400 C 276.029 244.060,274.636 245.022,274.056 245.537 C 273.475 246.053,272.010 247.122,270.800 247.913 C 269.590 248.703,268.287 249.747,267.905 250.232 C 267.522 250.717,266.446 251.512,265.514 251.998 C 264.581 252.484,263.594 253.201,263.321 253.592 C 263.047 253.982,261.873 254.905,260.712 255.643 C 259.550 256.381,257.668 257.737,256.529 258.656 C 255.390 259.576,254.094 260.443,253.649 260.584 C 253.205 260.725,252.733 261.183,252.600 261.600 C 252.467 262.017,252.008 262.470,251.580 262.606 C 251.151 262.743,250.800 263.022,250.800 263.227 C 250.800 263.432,250.539 263.600,250.220 263.600 C 249.901 263.600,248.687 264.500,247.522 265.600 C 246.356 266.700,245.177 267.600,244.901 267.600 C 244.626 267.600,244.400 267.768,244.400 267.973 C 244.400 268.178,244.045 268.459,243.612 268.596 C 243.179 268.734,242.324 269.388,241.712 270.049 C 241.100 270.711,239.832 271.709,238.893 272.268 C 237.955 272.827,236.962 273.604,236.688 273.995 C 236.414 274.386,235.335 275.109,234.289 275.600 C 233.243 276.092,232.022 277.007,231.576 277.634 C 231.129 278.261,229.871 279.275,228.779 279.887 C 227.687 280.499,226.701 281.290,226.587 281.645 C 226.474 282.000,225.195 282.892,223.746 283.628 C 222.296 284.363,220.835 285.385,220.498 285.899 C 220.162 286.413,219.141 287.269,218.231 287.803 C 217.320 288.337,216.066 289.305,215.444 289.954 C 214.822 290.604,213.269 291.525,211.995 292.002 C 210.720 292.479,209.304 293.216,208.849 293.640 C 206.400 295.922,193.618 295.913,191.128 293.628 C 190.529 293.079,188.590 292.206,186.285 291.449 C 185.892 291.320,185.283 290.713,184.932 290.101 C 184.581 289.489,183.536 288.407,182.610 287.696 L 180.926 286.404 180.663 279.138 C 180.518 275.141,180.400 265.085,180.400 256.790 C 180.400 240.694,180.262 239.600,178.233 239.600 C 176.264 239.600,176.214 240.050,176.000 259.542 L 175.800 277.801 174.900 278.700 C 174.405 279.195,173.736 279.600,173.413 279.600 C 173.091 279.600,172.230 280.196,171.501 280.926 C 170.772 281.655,169.596 282.593,168.888 283.012 C 168.180 283.430,167.600 283.914,167.600 284.086 C 167.600 284.259,167.337 284.400,167.015 284.400 C 166.694 284.400,165.749 285.075,164.915 285.900 C 164.082 286.725,162.860 287.667,162.200 287.994 C 161.540 288.321,160.401 289.266,159.669 290.094 C 158.937 290.922,158.043 291.600,157.682 291.600 C 156.695 291.600,153.570 292.860,152.097 293.851 C 149.452 295.632,139.435 295.478,137.405 293.627 C 136.962 293.222,136.150 292.761,135.600 292.601 C 132.671 291.750,128.400 288.382,128.400 286.923 C 128.400 286.635,128.220 286.400,128.000 286.400 C 127.780 286.400,127.600 286.045,127.600 285.612 C 127.600 285.179,127.256 284.213,126.836 283.465 C 125.895 281.789,125.450 236.516,126.351 234.200 C 127.626 230.926,128.689 229.413,130.791 227.880 C 132.006 226.993,133.775 225.565,134.722 224.706 C 135.669 223.846,136.974 222.958,137.622 222.732 C 138.270 222.507,138.800 222.067,138.800 221.756 C 138.800 221.445,139.835 220.531,141.100 219.726 C 142.365 218.921,143.620 217.955,143.888 217.580 C 144.157 217.205,145.274 216.322,146.372 215.618 C 147.470 214.913,149.046 213.716,149.874 212.958 C 150.702 212.199,152.014 211.295,152.790 210.948 C 153.565 210.600,154.560 209.764,155.000 209.088 C 155.440 208.413,156.363 207.576,157.052 207.230 C 157.856 206.825,158.626 205.922,159.205 204.703 C 159.701 203.660,160.605 202.286,161.213 201.650 C 165.579 197.081,166.006 182.175,161.902 177.588 C 161.406 177.033,160.676 175.945,160.280 175.170 C 159.884 174.394,159.077 173.409,158.486 172.980 C 157.895 172.551,156.641 171.452,155.699 170.537 C 154.757 169.623,153.044 168.273,151.893 167.538 C 150.742 166.804,149.331 165.727,148.758 165.147 C 148.185 164.566,147.285 163.955,146.758 163.790 C 146.231 163.624,145.260 162.926,144.600 162.239 C 143.940 161.551,142.455 160.388,141.300 159.653 C 140.145 158.918,139.200 158.158,139.200 157.963 C 139.200 157.769,138.435 157.131,137.500 156.545 C 136.565 155.960,135.740 155.327,135.667 155.140 C 135.593 154.953,135.349 154.800,135.123 154.800 C 134.897 154.800,133.727 153.900,132.524 152.800 C 131.320 151.700,130.170 150.800,129.967 150.800 C 129.511 150.800,127.397 146.381,126.624 143.814 C 125.909 141.439,125.628 98.474,126.316 96.800 C 126.542 96.250,126.958 95.184,127.241 94.430 C 127.973 92.479,131.593 88.949,133.662 88.168 C 134.618 87.807,135.967 87.262,136.660 86.956 C 137.354 86.650,138.173 86.400,138.480 86.400 C 138.788 86.400,139.211 86.233,139.420 86.028 C 140.712 84.765,148.179 84.745,151.000 85.998 M178.469 150.946 C 178.298 151.630,178.252 151.636,177.905 151.017 C 177.698 150.646,177.660 149.860,177.821 149.271 L 178.115 148.200 178.385 149.200 C 178.533 149.750,178.571 150.536,178.469 150.946 M126.529 151.043 C 126.798 152.698,127.734 153.569,129.265 153.587 C 130.188 153.598,130.365 153.808,130.594 155.163 C 130.860 156.740,131.621 157.337,133.800 157.682 C 134.625 157.812,135.059 159.147,134.635 160.252 C 134.448 160.741,134.176 160.674,133.104 159.876 C 132.387 159.342,131.341 158.797,130.780 158.665 C 130.138 158.514,129.516 157.914,129.103 157.047 C 128.657 156.113,127.991 155.504,127.035 155.158 C 125.038 154.436,123.938 149.600,125.771 149.600 C 126.063 149.600,126.399 150.239,126.529 151.043 M182.506 153.839 C 183.147 154.480,182.328 155.091,181.410 154.658 C 180.892 154.413,180.554 154.075,180.658 153.907 C 180.882 153.544,182.164 153.497,182.506 153.839 M187.153 157.962 C 187.592 158.240,187.542 158.365,186.909 158.565 C 185.960 158.867,184.713 158.465,185.026 157.958 C 185.307 157.504,186.433 157.506,187.153 157.962 M190.675 162.332 C 189.733 162.500,189.436 162.205,189.742 161.408 C 189.954 160.853,190.064 160.863,190.700 161.491 C 191.391 162.173,191.390 162.205,190.675 162.332 M139.024 161.775 C 140.406 162.799,138.744 163.658,136.952 162.846 C 135.448 162.164,135.251 161.750,136.300 161.476 C 137.618 161.131,138.248 161.200,139.024 161.775 M142.586 165.177 C 142.714 165.384,143.624 165.675,144.609 165.822 C 146.361 166.085,146.399 166.123,146.368 167.545 C 146.351 168.345,146.240 168.730,146.122 168.400 C 145.767 167.405,144.721 166.800,143.356 166.800 C 141.294 166.800,140.749 166.470,141.315 165.564 C 141.841 164.722,142.231 164.603,142.586 165.177 M198.583 165.972 C 198.935 166.542,198.337 166.726,196.859 166.501 C 195.917 166.358,195.680 166.195,196.059 165.955 C 196.781 165.497,198.296 165.508,198.583 165.972 M150.662 170.200 C 150.983 171.227,150.108 171.721,149.155 171.053 C 148.642 170.694,147.812 170.400,147.311 170.400 C 146.810 170.400,146.400 170.211,146.400 169.979 C 146.400 169.439,150.490 169.651,150.662 170.200 M202.800 170.000 C 203.285 170.314,203.228 170.389,202.500 170.394 C 202.005 170.397,201.600 170.220,201.600 170.000 C 201.600 169.499,202.024 169.499,202.800 170.000 M154.800 174.200 C 154.800 174.846,154.434 174.941,153.433 174.557 C 152.459 174.184,152.683 173.600,153.800 173.600 C 154.422 173.600,154.800 173.827,154.800 174.200 M158.400 178.200 C 158.400 178.530,158.231 178.800,158.024 178.800 C 157.519 178.800,157.158 178.175,157.478 177.856 C 157.928 177.405,158.400 177.581,158.400 178.200 M26.416 198.300 C 26.439 222.731,27.436 281.860,28.343 312.600 C 28.726 325.602,28.119 324.345,38.585 333.800 C 42.267 337.127,42.206 337.068,44.056 339.044 C 44.858 339.900,47.452 342.400,49.821 344.600 C 52.191 346.800,56.396 350.807,59.165 353.504 C 61.934 356.202,64.515 358.509,64.900 358.631 C 65.285 358.754,65.600 359.022,65.600 359.227 C 65.600 359.457,117.086 359.600,199.856 359.600 L 334.112 359.600 335.881 357.900 C 336.854 356.965,338.503 355.345,339.546 354.300 C 340.588 353.255,341.562 352.400,341.710 352.400 C 341.858 352.400,342.569 351.756,343.290 350.970 C 344.010 350.183,344.851 349.328,345.159 349.070 C 345.977 348.382,349.756 344.876,351.921 342.795 C 352.955 341.802,355.953 339.012,358.584 336.595 C 373.046 323.311,371.363 330.030,372.357 281.600 C 372.599 269.830,372.981 253.000,373.206 244.200 C 373.432 235.400,373.613 223.700,373.609 218.200 C 373.605 212.700,373.720 202.395,373.865 195.300 L 374.129 182.400 376.199 182.400 L 378.268 182.400 378.513 256.500 C 378.778 336.670,378.866 332.909,376.680 334.394 C 375.860 334.950,374.840 335.981,374.412 336.684 C 373.985 337.386,373.080 338.249,372.400 338.600 C 371.721 338.951,370.950 339.725,370.687 340.319 C 370.106 341.633,369.717 342.021,368.186 342.813 C 367.452 343.193,366.830 343.949,366.553 344.797 C 366.243 345.746,365.784 346.254,365.061 346.447 C 363.652 346.824,362.839 347.707,362.545 349.177 C 362.384 349.979,362.060 350.400,361.604 350.400 C 360.530 350.400,358.889 351.887,358.618 353.105 C 358.443 353.891,357.940 354.384,356.831 354.852 C 355.718 355.322,355.148 355.880,354.791 356.852 C 354.441 357.804,353.811 358.435,352.647 359.000 C 351.439 359.587,350.898 360.147,350.617 361.100 C 350.362 361.967,349.985 362.400,349.487 362.400 C 348.479 362.400,346.400 364.535,346.400 365.569 C 346.400 366.063,346.141 366.400,345.762 366.400 C 344.831 366.400,342.832 367.670,342.597 368.411 C 342.485 368.762,341.705 369.353,340.863 369.724 C 338.842 370.616,59.151 370.790,58.422 369.900 C 58.196 369.625,57.554 368.828,56.995 368.129 C 56.436 367.431,55.443 366.741,54.789 366.598 C 54.015 366.428,53.600 366.089,53.600 365.627 C 53.600 364.650,51.888 362.888,50.634 362.573 C 50.065 362.430,49.600 362.056,49.600 361.743 C 49.600 360.662,48.332 359.240,46.967 358.789 C 46.210 358.539,45.600 358.067,45.600 357.731 C 45.600 356.637,44.014 354.867,42.795 354.599 C 41.922 354.407,41.596 354.102,41.587 353.468 C 41.569 352.316,40.476 351.094,39.017 350.596 C 38.367 350.374,37.737 349.831,37.617 349.388 C 37.251 348.033,36.259 346.946,35.011 346.534 C 34.357 346.317,33.727 345.790,33.611 345.362 C 33.247 344.020,32.205 342.867,31.108 342.591 C 30.475 342.433,29.889 341.901,29.645 341.263 C 29.049 339.710,28.280 338.885,27.165 338.606 C 26.521 338.444,25.901 337.776,25.376 336.679 C 24.786 335.443,24.234 334.899,23.288 334.617 C 22.580 334.407,21.874 333.867,21.718 333.417 C 21.405 332.514,21.466 284.210,21.859 222.500 L 22.115 182.400 24.257 182.400 L 26.400 182.400 26.416 198.300 M213.814 201.675 C 213.715 201.964,213.582 202.736,213.517 203.391 C 213.413 204.454,213.217 204.613,211.694 204.871 C 210.755 205.030,209.810 205.270,209.594 205.404 C 208.955 205.798,209.101 210.277,209.761 210.530 C 210.463 210.799,210.800 210.477,210.800 209.536 C 210.800 209.134,211.583 208.010,212.541 207.039 C 213.912 205.648,214.334 204.888,214.531 203.454 C 214.762 201.762,214.234 200.449,213.814 201.675 M196.834 216.769 C 194.245 219.081,197.051 221.524,199.846 219.392 C 201.441 218.176,201.244 217.003,199.309 216.189 C 198.158 215.705,197.980 215.747,196.834 216.769 M189.137 225.181 C 188.375 225.806,188.283 226.085,188.643 226.675 C 189.229 227.634,190.256 227.801,190.999 227.058 C 192.500 225.557,190.785 223.828,189.137 225.181 M178.735 289.500 C 178.771 289.555,179.385 289.603,180.100 289.606 C 181.802 289.614,182.244 289.943,182.569 291.443 C 182.848 292.731,183.862 293.481,185.600 293.683 C 186.350 293.771,186.631 294.068,186.724 294.871 C 186.968 296.985,190.136 297.597,200.877 297.606 C 208.844 297.613,210.050 297.846,207.761 298.938 C 202.473 301.460,186.949 300.430,184.981 297.428 C 184.633 296.895,183.786 296.264,183.100 296.025 C 181.489 295.463,180.400 294.466,180.400 293.551 C 180.400 293.153,179.794 292.220,179.053 291.479 C 178.083 290.510,177.524 289.419,177.060 287.591 C 176.588 285.731,176.030 284.655,174.979 283.579 C 173.523 282.087,173.639 281.600,175.449 281.600 C 176.537 281.600,177.524 280.209,177.863 278.200 C 178.140 276.557,178.242 277.378,178.435 282.800 C 178.564 286.430,178.699 289.445,178.735 289.500 M231.084 281.920 C 231.434 282.143,231.357 282.360,230.803 282.706 C 230.000 283.207,229.341 282.743,229.800 282.000 C 230.094 281.524,230.429 281.504,231.084 281.920 M126.902 290.343 C 127.542 292.143,127.757 292.349,129.824 293.140 C 131.051 293.610,132.590 294.529,133.244 295.183 C 135.017 296.955,136.628 297.258,145.400 297.464 C 154.707 297.684,155.274 297.792,152.800 298.875 C 149.006 300.535,134.206 300.766,132.630 299.190 C 132.415 298.975,131.985 298.800,131.673 298.800 C 131.361 298.800,130.452 298.254,129.653 297.586 C 127.421 295.721,127.256 295.601,126.917 295.587 C 125.671 295.534,123.156 290.642,123.822 289.565 C 124.047 289.201,125.388 288.501,126.006 288.425 C 126.119 288.411,126.523 289.274,126.902 290.343 " stroke="none" fill="#364678" fill-rule="evenodd"></path><path id="path1" d="M46.400 1.200 C 46.400 2.300,46.286 2.400,45.029 2.400 C 43.286 2.400,42.400 3.286,42.400 5.029 C 42.400 6.308,42.313 6.400,41.100 6.406 C 39.267 6.415,38.724 6.886,38.531 8.640 C 38.316 10.595,38.483 10.496,34.944 10.765 C 34.694 10.784,34.497 11.025,34.507 11.300 C 34.609 14.032,34.434 14.400,33.033 14.400 C 30.759 14.400,30.400 14.703,30.400 16.621 L 30.400 18.356 28.500 18.478 C 27.347 18.552,26.580 18.797,26.550 19.100 C 26.523 19.375,26.477 20.220,26.450 20.978 C 26.401 22.330,26.364 22.358,24.500 22.478 L 22.600 22.600 22.479 24.479 L 22.358 26.358 20.479 26.479 L 18.600 26.600 18.479 28.479 L 18.358 30.358 16.479 30.479 L 14.600 30.600 14.479 32.479 L 14.358 34.358 12.479 34.479 L 10.600 34.600 10.478 36.500 C 10.386 37.941,10.192 38.415,9.678 38.461 C 9.305 38.494,8.820 38.564,8.600 38.615 C 8.380 38.666,7.998 38.728,7.751 38.754 C 6.881 38.843,6.762 41.771,7.562 43.436 C 9.098 46.633,9.133 48.512,8.727 106.615 C 8.051 203.346,8.939 337.748,10.260 338.522 C 11.265 339.112,12.800 340.983,12.800 341.619 C 12.800 341.969,13.525 342.566,14.441 342.970 C 15.414 343.399,16.402 344.235,16.866 345.022 C 17.297 345.753,18.257 346.709,19.000 347.147 C 19.743 347.585,20.625 348.475,20.961 349.124 C 21.296 349.773,22.216 350.685,23.006 351.150 C 23.816 351.629,24.619 352.510,24.851 353.175 C 25.105 353.903,25.825 354.643,26.731 355.110 C 27.564 355.539,28.474 356.436,28.833 357.181 C 29.216 357.979,29.998 358.720,30.821 359.066 C 32.572 359.802,33.600 360.746,33.600 361.619 C 33.600 362.023,34.011 362.416,34.583 362.560 C 35.825 362.872,37.403 364.327,37.771 365.500 C 37.927 365.995,38.298 366.400,38.596 366.400 C 39.455 366.400,41.489 368.304,41.753 369.355 C 41.904 369.959,42.391 370.411,43.072 370.582 C 44.283 370.886,45.038 371.679,45.658 373.300 C 45.889 373.905,46.317 374.400,46.608 374.400 C 47.454 374.400,49.490 376.309,49.751 377.346 C 50.125 378.838,45.292 378.793,200.400 378.756 C 356.150 378.718,349.461 378.797,350.394 377.001 C 351.082 375.677,352.370 374.433,353.074 374.413 C 353.334 374.406,354.058 373.635,354.682 372.700 C 355.420 371.593,356.267 370.866,357.108 370.617 C 357.967 370.363,358.400 369.984,358.400 369.487 C 358.400 368.479,360.535 366.400,361.569 366.400 C 362.141 366.400,362.400 366.143,362.400 365.577 C 362.400 364.600,364.677 362.400,365.689 362.400 C 366.108 362.400,366.400 362.103,366.400 361.678 C 366.400 360.775,368.804 358.400,369.719 358.400 C 370.105 358.400,370.400 358.092,370.400 357.689 C 370.400 356.677,372.600 354.400,373.577 354.400 C 374.118 354.400,374.400 354.140,374.400 353.642 C 374.400 352.716,376.491 350.400,377.328 350.400 C 377.661 350.400,378.264 349.725,378.667 348.900 C 379.135 347.943,379.943 347.135,380.900 346.667 C 381.725 346.264,382.400 345.698,382.400 345.408 C 382.400 344.763,385.030 342.400,385.750 342.400 C 386.037 342.400,386.467 341.972,386.705 341.449 C 386.943 340.926,387.673 339.889,388.327 339.144 C 390.117 337.105,390.342 332.475,390.584 292.600 C 390.701 273.460,391.006 241.150,391.262 220.800 C 391.624 192.137,391.619 174.337,391.239 141.800 C 390.218 54.261,390.330 46.032,392.579 42.962 C 393.680 41.460,392.661 38.931,390.871 38.724 C 390.006 38.624,389.779 38.370,389.690 37.400 C 389.478 35.073,389.187 34.353,388.487 34.423 C 385.914 34.681,385.600 34.488,385.600 32.643 C 385.600 30.704,385.246 30.400,382.989 30.400 C 381.668 30.400,381.642 30.366,381.522 28.500 L 381.400 26.600 379.500 26.478 L 377.600 26.356 377.600 24.554 C 377.600 23.544,377.436 22.854,377.228 22.983 C 377.023 23.109,376.742 23.030,376.604 22.807 C 376.466 22.583,375.733 22.400,374.976 22.400 C 373.612 22.400,373.600 22.385,373.600 20.600 L 373.600 18.800 371.824 18.800 C 369.940 18.800,369.458 18.411,369.369 16.819 C 369.339 16.280,369.108 15.769,368.855 15.685 C 368.602 15.601,368.497 15.367,368.621 15.166 C 368.745 14.965,368.311 14.800,367.656 14.800 C 366.223 14.800,365.136 14.427,365.387 14.021 C 366.045 12.956,364.718 10.800,363.405 10.800 C 361.894 10.800,361.734 10.652,361.429 8.973 C 361.175 7.570,360.234 6.800,358.774 6.800 C 357.623 6.800,356.932 5.165,357.479 3.739 C 357.643 3.312,357.579 3.166,357.302 3.337 C 357.064 3.484,356.797 3.391,356.710 3.129 C 356.623 2.868,355.932 2.641,355.176 2.627 C 353.923 2.602,353.789 2.484,353.675 1.300 L 353.549 0.000 199.975 0.000 L 46.400 0.000 46.400 1.200 M342.649 8.195 C 343.432 8.522,344.160 9.125,344.267 9.534 C 344.374 9.944,345.254 10.780,346.222 11.392 C 347.191 12.005,348.334 13.100,348.763 13.828 C 349.193 14.555,350.075 15.425,350.724 15.761 C 351.373 16.096,352.273 16.996,352.724 17.761 C 353.175 18.525,354.093 19.435,354.765 19.782 C 355.437 20.129,356.265 20.951,356.605 21.609 C 356.945 22.266,357.923 23.247,358.780 23.787 C 359.636 24.328,360.451 25.129,360.590 25.569 C 360.729 26.008,361.599 26.958,362.522 27.681 C 363.445 28.403,364.275 29.174,364.366 29.395 C 364.457 29.615,365.447 30.708,366.566 31.822 C 367.685 32.937,368.870 34.208,369.200 34.647 C 369.530 35.086,370.385 35.852,371.100 36.350 C 371.815 36.847,372.400 37.485,372.400 37.767 C 372.400 38.050,372.976 38.712,373.680 39.240 C 374.384 39.768,375.239 40.521,375.580 40.914 C 376.986 42.532,378.931 44.400,379.210 44.400 C 380.848 44.400,380.786 40.061,381.045 172.260 C 381.180 241.087,381.315 305.500,381.345 315.400 C 381.406 335.346,381.368 335.697,379.040 336.951 C 378.293 337.353,377.348 338.305,376.941 339.067 C 376.533 339.829,375.629 340.724,374.931 341.057 C 374.223 341.394,373.377 342.262,373.018 343.018 C 372.655 343.783,371.813 344.642,371.087 344.987 C 370.379 345.324,369.440 346.262,369.000 347.071 C 368.560 347.880,367.636 348.825,366.946 349.171 C 366.173 349.559,365.504 350.318,365.203 351.148 C 364.853 352.111,364.282 352.681,363.203 353.141 C 362.131 353.599,361.554 354.171,361.213 355.116 C 360.894 355.998,360.259 356.671,359.327 357.116 C 358.491 357.514,357.623 358.372,357.184 359.232 C 356.778 360.027,355.888 360.948,355.205 361.279 C 354.522 361.609,353.643 362.478,353.251 363.209 C 352.859 363.940,351.940 364.859,351.209 365.251 C 350.478 365.643,349.609 366.522,349.279 367.205 C 348.948 367.888,348.024 368.779,347.226 369.187 C 346.427 369.594,345.510 370.422,345.187 371.026 C 343.943 373.352,354.086 373.200,200.000 373.200 C 45.472 373.200,55.800 373.354,54.746 371.041 C 54.495 370.490,53.820 369.859,53.245 369.638 C 51.683 369.039,50.883 368.272,50.587 367.090 C 50.438 366.497,49.941 365.913,49.460 365.767 C 48.204 365.385,47.208 364.394,46.587 362.908 C 46.287 362.189,45.763 361.600,45.423 361.600 C 44.451 361.600,42.864 360.002,42.588 358.745 C 42.429 358.023,42.081 357.600,41.644 357.600 C 40.700 357.600,39.209 356.144,38.722 354.748 C 38.502 354.117,38.131 353.600,37.899 353.600 C 37.062 353.600,34.889 351.610,34.640 350.616 C 34.499 350.057,34.180 349.600,33.930 349.600 C 33.067 349.600,30.894 347.629,30.640 346.616 C 30.499 346.057,30.180 345.600,29.930 345.600 C 29.067 345.600,26.894 343.629,26.640 342.616 C 26.499 342.057,26.180 341.600,25.930 341.600 C 25.108 341.600,22.899 339.650,22.663 338.716 C 22.536 338.212,21.900 337.567,21.250 337.281 C 18.413 336.037,18.599 338.895,18.612 296.600 C 18.619 275.700,18.621 214.050,18.617 159.600 C 18.613 105.150,18.611 57.810,18.613 54.400 C 18.616 47.741,19.351 44.933,21.380 43.826 C 21.809 43.592,22.529 42.972,22.980 42.448 C 24.223 41.006,25.374 39.885,26.524 39.000 C 27.096 38.560,27.571 38.032,27.582 37.826 C 27.605 37.341,29.239 35.600,29.670 35.600 C 30.068 35.600,31.600 34.112,31.600 33.726 C 31.600 33.327,33.281 31.600,33.670 31.600 C 34.068 31.600,35.600 30.112,35.600 29.726 C 35.600 29.327,37.281 27.600,37.670 27.600 C 38.075 27.600,39.595 26.114,39.613 25.700 C 39.633 25.260,41.076 23.600,41.438 23.600 C 41.894 23.600,43.600 21.924,43.600 21.476 C 43.600 20.997,45.507 19.200,46.016 19.200 C 46.221 19.200,46.841 18.485,47.393 17.611 C 47.944 16.738,48.915 15.754,49.550 15.426 C 50.184 15.098,51.066 14.215,51.509 13.464 C 51.952 12.714,53.054 11.684,53.957 11.176 C 54.861 10.668,55.600 10.031,55.600 9.760 C 55.600 9.489,56.095 8.897,56.700 8.446 L 57.800 7.625 199.513 7.613 C 324.028 7.602,341.398 7.672,342.649 8.195 M142.200 85.263 C 140.880 85.480,139.629 85.824,139.420 86.028 C 139.211 86.233,138.788 86.400,138.480 86.400 C 138.173 86.400,137.354 86.650,136.660 86.956 C 135.967 87.262,134.618 87.807,133.662 88.168 C 131.593 88.949,127.973 92.479,127.241 94.430 C 126.958 95.184,126.542 96.250,126.316 96.800 C 125.628 98.474,125.909 141.439,126.624 143.814 C 127.397 146.381,129.511 150.800,129.967 150.800 C 130.170 150.800,131.320 151.700,132.524 152.800 C 133.727 153.900,134.897 154.800,135.123 154.800 C 135.349 154.800,135.593 154.953,135.667 155.140 C 135.740 155.327,136.565 155.960,137.500 156.545 C 138.435 157.131,139.200 157.769,139.200 157.963 C 139.200 158.158,140.145 158.918,141.300 159.653 C 142.455 160.388,143.940 161.551,144.600 162.239 C 145.260 162.926,146.231 163.624,146.758 163.790 C 147.285 163.955,148.185 164.566,148.758 165.147 C 149.331 165.727,150.742 166.804,151.893 167.538 C 153.044 168.273,154.757 169.623,155.699 170.537 C 156.641 171.452,157.895 172.551,158.486 172.980 C 159.077 173.409,159.884 174.394,160.280 175.170 C 160.676 175.945,161.406 177.033,161.902 177.588 C 166.006 182.175,165.579 197.081,161.213 201.650 C 160.605 202.286,159.701 203.660,159.205 204.703 C 158.626 205.922,157.856 206.825,157.052 207.230 C 156.363 207.576,155.440 208.413,155.000 209.088 C 154.560 209.764,153.565 210.600,152.790 210.948 C 152.014 211.295,150.702 212.199,149.874 212.958 C 149.046 213.716,147.470 214.913,146.372 215.618 C 145.274 216.322,144.157 217.205,143.888 217.580 C 143.620 217.955,142.365 218.921,141.100 219.726 C 139.835 220.531,138.800 221.445,138.800 221.756 C 138.800 222.067,138.270 222.507,137.622 222.732 C 136.974 222.958,135.669 223.846,134.722 224.706 C 133.775 225.565,132.006 226.993,130.791 227.880 C 128.689 229.413,127.626 230.926,126.351 234.200 C 125.450 236.516,125.895 281.789,126.836 283.465 C 127.256 284.213,127.600 285.179,127.600 285.612 C 127.600 286.045,127.780 286.400,128.000 286.400 C 128.220 286.400,128.400 286.635,128.400 286.923 C 128.400 288.382,132.671 291.750,135.600 292.601 C 136.150 292.761,136.962 293.222,137.405 293.627 C 139.435 295.478,149.452 295.632,152.097 293.851 C 153.570 292.860,156.695 291.600,157.682 291.600 C 158.043 291.600,158.937 290.922,159.669 290.094 C 160.401 289.266,161.540 288.321,162.200 287.994 C 162.860 287.667,164.082 286.725,164.915 285.900 C 165.749 285.075,166.694 284.400,167.015 284.400 C 167.337 284.400,167.600 284.259,167.600 284.086 C 167.600 283.914,168.180 283.430,168.888 283.012 C 169.596 282.593,170.772 281.655,171.501 280.926 C 172.230 280.196,173.091 279.600,173.413 279.600 C 173.736 279.600,174.405 279.195,174.900 278.700 L 175.800 277.801 176.000 259.542 C 176.214 240.050,176.264 239.600,178.233 239.600 C 180.262 239.600,180.400 240.694,180.400 256.790 C 180.400 265.085,180.518 275.141,180.663 279.138 L 180.926 286.404 182.610 287.696 C 183.536 288.407,184.581 289.489,184.932 290.101 C 185.283 290.713,185.892 291.320,186.285 291.449 C 188.590 292.206,190.529 293.079,191.128 293.628 C 193.618 295.913,206.400 295.922,208.849 293.640 C 209.304 293.216,210.720 292.479,211.995 292.002 C 213.269 291.525,214.822 290.604,215.444 289.954 C 216.066 289.305,217.320 288.337,218.231 287.803 C 219.141 287.269,220.162 286.413,220.498 285.899 C 220.835 285.385,222.296 284.363,223.746 283.628 C 225.195 282.892,226.474 282.000,226.587 281.645 C 226.701 281.290,227.687 280.499,228.779 279.887 C 229.871 279.275,231.129 278.261,231.576 277.634 C 232.022 277.007,233.243 276.092,234.289 275.600 C 235.335 275.109,236.414 274.386,236.688 273.995 C 236.962 273.604,237.955 272.827,238.893 272.268 C 239.832 271.709,241.100 270.711,241.712 270.049 C 242.324 269.388,243.179 268.734,243.612 268.596 C 244.045 268.459,244.400 268.178,244.400 267.973 C 244.400 267.768,244.626 267.600,244.901 267.600 C 245.177 267.600,246.356 266.700,247.522 265.600 C 248.687 264.500,249.901 263.600,250.220 263.600 C 250.539 263.600,250.800 263.432,250.800 263.227 C 250.800 263.022,251.151 262.743,251.580 262.606 C 252.008 262.470,252.467 262.017,252.600 261.600 C 252.733 261.183,253.205 260.725,253.649 260.584 C 254.094 260.443,255.390 259.576,256.529 258.656 C 257.668 257.737,259.550 256.381,260.712 255.643 C 261.873 254.905,263.047 253.982,263.321 253.592 C 263.594 253.201,264.581 252.484,265.514 251.998 C 266.446 251.512,267.522 250.717,267.905 250.232 C 268.287 249.747,269.590 248.703,270.800 247.913 C 272.010 247.122,273.475 246.053,274.056 245.537 C 274.636 245.022,276.029 244.060,277.151 243.400 C 278.273 242.740,279.285 241.916,279.400 241.568 C 279.516 241.221,280.413 240.536,281.394 240.046 C 282.375 239.556,283.522 238.717,283.944 238.181 C 284.365 237.645,285.675 236.559,286.855 235.768 C 288.035 234.977,289.062 234.160,289.137 233.953 C 289.213 233.746,290.219 232.973,291.373 232.235 C 292.527 231.496,293.906 230.458,294.436 229.928 C 294.967 229.397,296.031 228.611,296.800 228.181 C 297.570 227.752,298.740 226.836,299.400 226.146 C 300.060 225.457,301.323 224.447,302.206 223.901 C 303.089 223.355,304.071 222.596,304.389 222.214 C 304.706 221.832,305.873 220.925,306.983 220.200 C 308.092 219.475,309.450 218.458,310.000 217.941 C 310.550 217.423,311.810 216.478,312.800 215.840 C 315.639 214.012,319.580 210.618,321.030 208.753 C 321.267 208.449,321.942 207.842,322.531 207.404 C 323.120 206.967,323.943 205.887,324.361 205.004 C 324.778 204.122,325.494 202.950,325.952 202.400 C 326.410 201.850,326.930 201.220,327.107 201.000 C 328.256 199.574,328.600 197.547,328.600 192.200 C 328.600 186.116,328.343 185.030,326.046 181.408 C 325.385 180.366,324.730 178.994,324.591 178.358 C 324.440 177.670,323.627 176.620,322.584 175.766 C 321.620 174.976,320.729 174.005,320.603 173.609 C 320.477 173.213,319.615 172.397,318.687 171.794 C 317.759 171.192,316.640 170.298,316.200 169.806 C 315.760 169.315,314.462 168.337,313.316 167.632 C 312.170 166.928,310.665 165.821,309.971 165.173 C 309.277 164.525,308.055 163.690,307.255 163.319 C 306.455 162.947,305.125 161.958,304.300 161.121 C 303.476 160.285,302.549 159.600,302.242 159.600 C 301.934 159.600,301.160 159.015,300.521 158.300 C 299.882 157.585,298.108 156.134,296.579 155.075 C 293.259 152.775,290.751 150.846,288.655 148.977 C 287.806 148.220,286.891 147.600,286.622 147.600 C 286.353 147.600,285.608 147.054,284.967 146.386 C 284.325 145.718,283.048 144.638,282.130 143.987 C 281.211 143.336,280.163 142.506,279.801 142.144 C 278.882 141.225,276.443 139.600,275.982 139.600 C 275.772 139.600,275.600 139.440,275.600 139.243 C 275.600 139.047,275.162 138.777,274.627 138.642 C 274.091 138.508,273.549 138.069,273.421 137.667 C 273.294 137.265,272.399 136.542,271.434 136.060 C 270.468 135.578,269.160 134.653,268.526 134.005 C 267.256 132.706,264.287 130.461,260.600 128.014 C 259.280 127.137,257.505 125.786,256.655 125.010 C 255.806 124.235,254.814 123.600,254.451 123.600 C 254.088 123.600,253.343 123.051,252.796 122.379 C 252.248 121.708,251.170 120.776,250.400 120.308 C 249.630 119.840,248.239 118.769,247.309 117.928 C 246.379 117.088,245.468 116.400,245.284 116.400 C 245.100 116.400,244.061 115.605,242.975 114.634 C 241.889 113.663,240.058 112.375,238.907 111.771 C 237.756 111.168,236.713 110.355,236.589 109.964 C 236.465 109.574,235.607 108.807,234.682 108.260 C 233.757 107.713,232.302 106.620,231.450 105.833 C 230.597 105.045,229.744 104.400,229.554 104.400 C 229.195 104.400,228.365 103.770,226.250 101.889 C 225.562 101.278,224.298 100.412,223.440 99.964 C 222.583 99.517,221.104 98.352,220.155 97.375 C 219.206 96.399,218.197 95.600,217.913 95.600 C 217.628 95.600,216.631 94.880,215.697 94.000 C 214.763 93.120,213.729 92.400,213.399 92.400 C 213.070 92.400,212.800 92.220,212.800 92.000 C 212.800 91.780,212.545 91.600,212.233 91.600 C 211.922 91.600,211.607 91.462,211.533 91.293 C 209.912 87.557,192.342 86.199,187.748 89.453 C 187.168 89.864,186.403 90.384,186.047 90.608 C 179.451 94.769,179.963 92.137,179.992 121.707 C 180.020 149.060,180.044 149.308,182.864 150.974 C 183.563 151.387,184.703 152.309,185.395 153.022 C 186.087 153.734,187.616 154.831,188.793 155.459 C 189.988 156.096,191.388 157.255,191.966 158.085 C 192.535 158.901,193.754 159.932,194.675 160.375 C 195.596 160.818,196.496 161.420,196.675 161.712 C 196.854 162.005,197.667 162.649,198.483 163.144 C 199.299 163.639,200.400 164.560,200.931 165.191 C 201.462 165.821,203.134 166.967,204.648 167.737 C 206.266 168.561,207.719 169.628,208.175 170.327 C 208.601 170.981,209.448 171.810,210.056 172.169 C 210.664 172.529,211.559 173.402,212.044 174.111 C 212.530 174.820,213.522 175.950,214.248 176.622 C 216.895 179.069,217.759 185.863,215.531 186.704 C 213.913 187.314,213.532 186.999,212.367 184.084 C 211.865 182.828,211.104 181.530,210.677 181.200 C 209.211 180.069,207.600 178.513,207.600 178.228 C 207.600 177.750,206.613 176.921,205.698 176.631 C 205.222 176.480,204.286 175.666,203.618 174.822 C 202.949 173.978,201.721 173.015,200.888 172.682 C 200.055 172.349,198.660 171.424,197.787 170.626 C 196.914 169.829,195.595 168.912,194.855 168.590 C 194.115 168.267,192.827 167.300,191.993 166.441 C 191.159 165.581,190.055 164.759,189.538 164.614 C 187.863 164.142,186.629 163.426,185.109 162.044 C 184.288 161.298,183.208 160.411,182.709 160.074 C 182.209 159.737,181.068 158.817,180.174 158.030 C 179.280 157.244,178.160 156.339,177.686 156.020 C 175.553 154.586,175.518 154.140,175.579 128.747 C 175.642 102.541,175.618 102.250,173.248 100.480 C 172.451 99.886,171.571 99.183,171.290 98.919 C 169.845 97.554,167.268 95.600,166.915 95.600 C 166.694 95.600,165.902 94.964,165.156 94.187 C 164.410 93.410,163.233 92.498,162.540 92.160 C 161.847 91.823,160.673 90.940,159.931 90.198 C 159.070 89.337,157.499 88.461,155.591 87.779 C 153.946 87.190,151.880 86.389,151.000 85.998 C 148.925 85.077,145.222 84.767,142.200 85.263 M214.531 203.454 C 214.334 204.888,213.912 205.648,212.541 207.039 C 211.583 208.010,210.800 209.134,210.800 209.536 C 210.800 210.477,210.463 210.799,209.761 210.530 C 209.101 210.277,208.955 205.798,209.594 205.404 C 209.810 205.270,210.755 205.030,211.694 204.871 C 213.217 204.613,213.413 204.454,213.517 203.391 C 213.684 201.693,213.936 201.113,214.387 201.392 C 214.613 201.532,214.674 202.409,214.531 203.454 M200.859 217.547 C 201.182 218.420,199.190 220.400,197.988 220.400 C 197.353 220.400,195.600 218.833,195.600 218.266 C 195.600 216.003,200.062 215.393,200.859 217.547 M191.600 225.843 C 191.600 227.484,189.498 228.075,188.643 226.675 C 188.283 226.085,188.375 225.806,189.137 225.181 C 190.180 224.325,191.600 224.707,191.600 225.843 " stroke="none" fill="#cbebeb" fill-rule="evenodd"></path><path id="path2" d="M357.200 0.995 C 357.200 2.110,358.294 3.600,359.113 3.600 C 359.407 3.600,359.525 3.402,359.375 3.160 C 359.184 2.851,359.356 2.855,359.952 3.174 C 360.924 3.695,361.096 4.088,360.200 3.745 C 359.870 3.618,359.600 3.714,359.600 3.957 C 359.600 4.201,359.777 4.400,359.992 4.400 C 360.208 4.400,360.498 4.850,360.636 5.400 C 360.781 5.981,361.162 6.387,361.543 6.368 C 361.933 6.350,362.003 6.257,361.716 6.140 C 361.419 6.020,361.317 5.515,361.453 4.837 C 361.733 3.434,360.765 2.400,359.171 2.400 C 358.137 2.400,358.000 2.260,358.000 1.200 C 358.000 0.540,357.820 0.000,357.600 0.000 C 357.380 0.000,357.200 0.448,357.200 0.995 M362.800 6.773 C 362.800 6.978,363.152 7.258,363.582 7.394 C 364.012 7.531,364.588 8.263,364.862 9.021 C 365.374 10.438,366.000 10.866,366.000 9.800 C 366.000 9.470,365.817 9.200,365.592 9.200 C 365.361 9.200,365.290 8.782,365.427 8.233 C 365.608 7.515,365.462 7.154,364.861 6.833 C 363.868 6.301,362.800 6.270,362.800 6.773 M366.800 10.773 C 366.800 10.978,367.152 11.258,367.582 11.394 C 368.012 11.531,368.588 12.263,368.862 13.021 C 369.374 14.438,370.000 14.866,370.000 13.800 C 370.000 13.470,369.817 13.200,369.592 13.200 C 369.361 13.200,369.290 12.782,369.427 12.233 C 369.608 11.515,369.462 11.154,368.861 10.833 C 367.868 10.301,366.800 10.270,366.800 10.773 M370.800 14.773 C 370.800 14.978,371.152 15.258,371.582 15.394 C 372.012 15.531,372.588 16.263,372.862 17.021 C 373.374 18.438,374.000 18.866,374.000 17.800 C 374.000 17.470,373.817 17.200,373.592 17.200 C 373.361 17.200,373.290 16.782,373.427 16.233 C 373.608 15.515,373.462 15.154,372.861 14.833 C 371.868 14.301,370.800 14.270,370.800 14.773 M379.600 22.843 C 379.600 23.086,379.848 23.190,380.151 23.074 C 380.454 22.958,380.904 23.064,381.151 23.311 C 381.469 23.629,381.600 23.632,381.600 23.323 C 381.600 22.899,380.717 22.400,379.967 22.400 C 379.765 22.400,379.600 22.599,379.600 22.843 M383.600 26.776 C 383.600 27.201,384.350 27.740,385.100 27.853 C 385.827 27.964,385.714 26.929,384.967 26.643 C 384.065 26.297,383.600 26.342,383.600 26.776 M385.245 29.309 C 385.908 30.584,386.000 30.633,386.000 29.709 C 386.000 29.256,385.726 28.780,385.391 28.652 C 384.879 28.455,384.855 28.560,385.245 29.309 M386.800 30.757 C 386.800 30.954,387.079 31.222,387.421 31.353 C 387.816 31.504,387.941 31.428,387.765 31.144 C 387.598 30.873,387.708 30.773,388.044 30.890 C 388.350 30.996,388.547 31.424,388.483 31.841 C 388.395 32.417,388.456 32.468,388.735 32.055 C 389.046 31.594,389.137 31.594,389.320 32.055 C 389.474 32.441,389.546 32.400,389.568 31.914 C 389.602 31.191,388.482 30.400,387.426 30.400 C 387.082 30.400,386.800 30.561,386.800 30.757 M390.400 34.809 C 390.400 35.033,390.847 35.421,391.392 35.669 C 391.938 35.918,392.500 36.499,392.641 36.961 C 392.782 37.422,393.062 38.006,393.263 38.257 C 393.867 39.015,393.699 335.745,393.093 338.199 C 392.674 339.896,392.384 340.297,391.159 340.873 C 390.256 341.298,389.520 342.027,389.190 342.825 C 388.870 343.597,388.174 344.302,387.423 344.616 C 385.988 345.216,385.010 346.222,384.621 347.499 C 384.470 347.994,383.926 348.504,383.411 348.633 C 382.299 348.912,380.999 350.247,380.619 351.499 C 380.469 351.994,379.926 352.504,379.411 352.633 C 378.306 352.910,376.999 354.245,376.626 355.480 C 376.479 355.963,375.963 356.479,375.480 356.626 C 374.267 356.993,372.912 358.300,372.646 359.358 C 372.523 359.851,371.800 360.538,371.008 360.916 C 370.162 361.319,369.331 362.137,368.945 362.945 C 368.571 363.732,367.732 364.571,366.945 364.945 C 366.159 365.320,365.320 366.159,364.945 366.945 C 364.571 367.732,363.732 368.571,362.945 368.945 C 362.137 369.331,361.319 370.162,360.916 371.008 C 360.538 371.800,359.851 372.523,359.358 372.646 C 358.293 372.913,356.992 374.269,356.619 375.499 C 356.469 375.994,355.922 376.505,355.403 376.635 C 354.372 376.894,353.322 377.902,352.624 379.303 C 351.510 381.541,361.782 381.393,201.200 381.478 C 107.810 381.528,52.516 381.415,51.000 381.171 C 48.607 380.786,46.800 379.525,46.800 378.238 C 46.800 377.954,46.082 377.398,45.205 377.002 C 44.045 376.479,43.473 375.905,43.109 374.900 C 42.775 373.976,42.153 373.298,41.238 372.858 C 40.432 372.472,39.552 371.590,39.105 370.722 C 38.584 369.709,37.918 369.103,36.989 368.796 C 36.000 368.470,35.502 367.985,35.147 367.004 C 34.806 366.061,34.211 365.456,33.159 364.981 C 32.243 364.568,31.472 363.857,31.182 363.156 C 30.909 362.498,30.002 361.623,29.053 361.104 C 28.081 360.572,27.153 359.668,26.800 358.909 C 26.470 358.198,25.911 357.613,25.558 357.609 C 24.635 357.596,22.877 355.844,22.573 354.634 C 22.418 354.016,22.032 353.600,21.615 353.600 C 20.649 353.600,18.886 351.882,18.573 350.634 C 18.418 350.016,18.032 349.600,17.615 349.600 C 16.649 349.600,14.886 347.882,14.573 346.634 C 14.430 346.065,14.077 345.600,13.789 345.600 C 12.620 345.600,10.751 344.166,10.529 343.100 C 10.403 342.495,10.055 342.000,9.756 342.000 C 9.457 342.000,8.663 341.505,7.991 340.900 L 6.770 339.800 6.786 197.800 C 6.795 119.700,6.684 51.877,6.540 47.082 L 6.279 38.363 5.062 38.630 C 3.515 38.970,2.967 39.528,2.617 41.123 C 2.380 42.203,2.157 42.400,1.168 42.400 L 0.000 42.400 0.000 200.000 L 0.000 357.600 1.182 357.600 C 2.217 357.600,2.396 357.775,2.628 359.010 C 2.915 360.538,4.070 361.600,5.444 361.600 C 6.127 361.600,6.370 361.914,6.589 363.080 C 6.908 364.780,7.747 365.569,9.255 365.587 C 10.152 365.598,10.353 365.822,10.589 367.080 C 10.908 368.780,11.747 369.569,13.255 369.587 C 14.152 369.598,14.353 369.822,14.589 371.080 C 14.909 372.789,15.747 373.569,17.282 373.587 C 18.199 373.598,18.404 373.814,18.628 375.010 C 18.917 376.548,20.071 377.600,21.471 377.600 C 22.176 377.600,22.419 377.897,22.628 379.010 C 22.917 380.548,24.071 381.600,25.471 381.600 C 26.176 381.600,26.419 381.897,26.628 383.010 C 26.917 384.548,28.071 385.600,29.471 385.600 C 30.176 385.600,30.419 385.897,30.628 387.010 C 30.915 388.539,32.070 389.600,33.446 389.600 C 34.330 389.600,34.800 390.290,34.800 391.587 C 34.800 392.418,36.410 393.600,37.543 393.600 C 38.339 393.600,38.800 394.329,38.800 395.587 C 38.800 396.432,40.417 397.600,41.586 397.600 C 42.224 397.600,42.400 397.860,42.400 398.800 L 42.400 400.000 200.000 400.000 L 357.600 400.000 357.600 398.987 C 357.600 398.370,357.873 397.893,358.300 397.766 C 360.109 397.224,361.033 396.472,361.447 395.203 C 361.762 394.238,362.214 393.747,362.973 393.544 C 364.486 393.139,365.153 392.492,365.521 391.073 C 365.747 390.202,366.158 389.762,366.945 389.551 C 368.486 389.139,369.152 388.499,369.521 387.073 C 369.747 386.202,370.158 385.762,370.945 385.551 C 372.486 385.139,373.152 384.499,373.521 383.073 C 373.747 382.202,374.158 381.762,374.945 381.551 C 376.486 381.139,377.152 380.499,377.521 379.073 C 377.747 378.202,378.158 377.762,378.945 377.551 C 380.486 377.139,381.152 376.499,381.521 375.073 C 381.747 374.202,382.158 373.762,382.945 373.551 C 384.486 373.139,385.152 372.499,385.521 371.073 C 385.747 370.202,386.158 369.762,386.945 369.551 C 388.486 369.139,389.152 368.499,389.521 367.073 C 389.747 366.202,390.158 365.762,390.945 365.551 C 392.479 365.141,393.151 364.499,393.515 363.098 C 393.746 362.203,394.177 361.782,395.199 361.448 C 396.472 361.033,397.224 360.111,397.766 358.300 C 397.893 357.873,398.370 357.600,398.987 357.600 L 400.000 357.600 400.000 200.000 L 400.000 42.400 398.800 42.400 C 397.860 42.400,397.600 42.224,397.600 41.586 C 397.600 40.349,396.413 38.802,395.454 38.787 C 394.052 38.766,393.129 37.823,393.411 36.700 C 393.573 36.052,393.433 35.490,393.000 35.058 C 392.279 34.336,390.400 34.156,390.400 34.809 M392.731 35.639 C 393.450 36.790,393.186 36.821,392.037 35.722 C 391.400 35.112,391.266 34.800,391.640 34.800 C 391.952 34.800,392.443 35.178,392.731 35.639 M177.821 149.271 C 177.660 149.860,177.698 150.646,177.905 151.017 C 178.426 151.947,178.772 150.636,178.385 149.200 L 178.115 148.200 177.821 149.271 M124.996 150.006 C 124.255 151.205,125.617 154.645,127.035 155.158 C 127.991 155.504,128.657 156.113,129.103 157.047 C 129.516 157.914,130.138 158.514,130.780 158.665 C 131.341 158.797,132.387 159.342,133.104 159.876 C 134.176 160.674,134.448 160.741,134.635 160.252 C 135.059 159.147,134.625 157.812,133.800 157.682 C 131.621 157.337,130.860 156.740,130.594 155.163 C 130.365 153.808,130.188 153.598,129.265 153.587 C 127.734 153.569,126.798 152.698,126.529 151.043 C 126.305 149.662,125.532 149.139,124.996 150.006 M180.658 153.907 C 180.554 154.075,180.892 154.413,181.410 154.658 C 182.328 155.091,183.147 154.480,182.506 153.839 C 182.164 153.497,180.882 153.544,180.658 153.907 M185.026 157.958 C 184.713 158.465,185.960 158.867,186.909 158.565 C 187.542 158.365,187.592 158.240,187.153 157.962 C 186.433 157.506,185.307 157.504,185.026 157.958 M189.742 161.408 C 189.436 162.205,189.733 162.500,190.675 162.332 C 191.390 162.205,191.391 162.173,190.700 161.491 C 190.064 160.863,189.954 160.853,189.742 161.408 M136.300 161.476 C 135.251 161.750,135.448 162.164,136.952 162.846 C 138.111 163.371,138.412 163.380,139.052 162.905 C 140.381 161.920,138.446 160.915,136.300 161.476 M141.315 165.564 C 140.749 166.470,141.294 166.800,143.356 166.800 C 144.721 166.800,145.767 167.405,146.122 168.400 C 146.240 168.730,146.351 168.345,146.368 167.545 C 146.399 166.123,146.361 166.085,144.609 165.822 C 143.624 165.675,142.714 165.384,142.586 165.177 C 142.231 164.603,141.841 164.722,141.315 165.564 M196.059 165.955 C 195.680 166.195,195.917 166.358,196.859 166.501 C 198.337 166.726,198.935 166.542,198.583 165.972 C 198.296 165.508,196.781 165.497,196.059 165.955 M146.400 169.979 C 146.400 170.211,146.810 170.400,147.311 170.400 C 147.812 170.400,148.642 170.694,149.155 171.053 C 150.108 171.721,150.983 171.227,150.662 170.200 C 150.490 169.651,146.400 169.439,146.400 169.979 M201.600 170.000 C 201.600 170.220,202.005 170.397,202.500 170.394 C 203.228 170.389,203.285 170.314,202.800 170.000 C 202.024 169.499,201.600 169.499,201.600 170.000 M152.800 173.957 C 152.800 174.314,153.741 174.800,154.433 174.800 C 154.635 174.800,154.800 174.530,154.800 174.200 C 154.800 173.827,154.422 173.600,153.800 173.600 C 153.250 173.600,152.800 173.761,152.800 173.957 M157.478 177.856 C 157.158 178.175,157.519 178.800,158.024 178.800 C 158.231 178.800,158.400 178.530,158.400 178.200 C 158.400 177.581,157.928 177.405,157.478 177.856 M21.859 222.500 C 21.466 284.210,21.405 332.514,21.718 333.417 C 21.874 333.867,22.580 334.407,23.288 334.617 C 24.234 334.899,24.786 335.443,25.376 336.679 C 25.901 337.776,26.521 338.444,27.165 338.606 C 28.280 338.885,29.049 339.710,29.645 341.263 C 29.889 341.901,30.475 342.433,31.108 342.591 C 32.205 342.867,33.247 344.020,33.611 345.362 C 33.727 345.790,34.357 346.317,35.011 346.534 C 36.259 346.946,37.251 348.033,37.617 349.388 C 37.737 349.831,38.367 350.374,39.017 350.596 C 40.476 351.094,41.569 352.316,41.587 353.468 C 41.596 354.102,41.922 354.407,42.795 354.599 C 44.014 354.867,45.600 356.637,45.600 357.731 C 45.600 358.067,46.210 358.539,46.967 358.789 C 48.332 359.240,49.600 360.662,49.600 361.743 C 49.600 362.056,50.065 362.430,50.634 362.573 C 51.888 362.888,53.600 364.650,53.600 365.627 C 53.600 366.089,54.015 366.428,54.789 366.598 C 55.443 366.741,56.436 367.431,56.995 368.129 C 57.554 368.828,58.196 369.625,58.422 369.900 C 59.151 370.790,338.842 370.616,340.863 369.724 C 341.705 369.353,342.485 368.762,342.597 368.411 C 342.832 367.670,344.831 366.400,345.762 366.400 C 346.141 366.400,346.400 366.063,346.400 365.569 C 346.400 364.535,348.479 362.400,349.487 362.400 C 349.985 362.400,350.362 361.967,350.617 361.100 C 350.898 360.147,351.439 359.587,352.647 359.000 C 353.811 358.435,354.441 357.804,354.791 356.852 C 355.148 355.880,355.718 355.322,356.831 354.852 C 357.940 354.384,358.443 353.891,358.618 353.105 C 358.889 351.887,360.530 350.400,361.604 350.400 C 362.060 350.400,362.384 349.979,362.545 349.177 C 362.839 347.707,363.652 346.824,365.061 346.447 C 365.784 346.254,366.243 345.746,366.553 344.797 C 366.830 343.949,367.452 343.193,368.186 342.813 C 369.717 342.021,370.106 341.633,370.687 340.319 C 370.950 339.725,371.721 338.951,372.400 338.600 C 373.080 338.249,373.985 337.386,374.412 336.684 C 374.840 335.981,375.860 334.950,376.680 334.394 C 378.866 332.909,378.778 336.670,378.513 256.500 L 378.268 182.400 376.199 182.400 L 374.129 182.400 373.865 195.300 C 373.720 202.395,373.605 212.700,373.609 218.200 C 373.613 223.700,373.432 235.400,373.206 244.200 C 372.981 253.000,372.599 269.830,372.357 281.600 C 371.363 330.030,373.046 323.311,358.584 336.595 C 355.953 339.012,352.955 341.802,351.921 342.795 C 349.756 344.876,345.977 348.382,345.159 349.070 C 344.851 349.328,344.010 350.183,343.290 350.970 C 342.569 351.756,341.858 352.400,341.710 352.400 C 341.562 352.400,340.588 353.255,339.546 354.300 C 338.503 355.345,336.854 356.965,335.881 357.900 L 334.112 359.600 199.856 359.600 C 117.086 359.600,65.600 359.457,65.600 359.227 C 65.600 359.022,65.285 358.754,64.900 358.631 C 64.515 358.509,61.934 356.202,59.165 353.504 C 56.396 350.807,52.191 346.800,49.821 344.600 C 47.452 342.400,44.858 339.900,44.056 339.044 C 42.206 337.068,42.267 337.127,38.585 333.800 C 28.119 324.345,28.726 325.602,28.343 312.600 C 27.436 281.860,26.439 222.731,26.416 198.300 L 26.400 182.400 24.257 182.400 L 22.115 182.400 21.859 222.500 M177.863 278.200 C 177.524 280.209,176.537 281.600,175.449 281.600 C 173.639 281.600,173.523 282.087,174.979 283.579 C 176.030 284.655,176.588 285.731,177.060 287.591 C 177.524 289.419,178.083 290.510,179.053 291.479 C 179.794 292.220,180.400 293.153,180.400 293.551 C 180.400 294.466,181.489 295.463,183.100 296.025 C 183.786 296.264,184.633 296.895,184.981 297.428 C 186.949 300.430,202.473 301.460,207.761 298.938 C 210.050 297.846,208.844 297.613,200.877 297.606 C 190.136 297.597,186.968 296.985,186.724 294.871 C 186.631 294.068,186.350 293.771,185.600 293.683 C 183.862 293.481,182.848 292.731,182.569 291.443 C 182.244 289.943,181.802 289.614,180.100 289.606 C 178.490 289.599,178.709 290.493,178.435 282.800 C 178.242 277.378,178.140 276.557,177.863 278.200 M229.800 282.000 C 229.341 282.743,230.000 283.207,230.803 282.706 C 231.357 282.360,231.434 282.143,231.084 281.920 C 230.429 281.504,230.094 281.524,229.800 282.000 M124.941 288.797 C 123.606 289.336,123.508 289.827,124.281 292.093 C 124.934 294.007,126.100 295.552,126.917 295.587 C 127.256 295.601,127.421 295.721,129.653 297.586 C 130.452 298.254,131.361 298.800,131.673 298.800 C 131.985 298.800,132.415 298.975,132.630 299.190 C 134.206 300.766,149.006 300.535,152.800 298.875 C 155.274 297.792,154.707 297.684,145.400 297.464 C 136.628 297.258,135.017 296.955,133.244 295.183 C 132.590 294.529,131.051 293.610,129.824 293.140 C 127.757 292.349,127.542 292.143,126.902 290.343 C 126.523 289.274,126.119 288.411,126.006 288.425 C 125.893 288.439,125.413 288.607,124.941 288.797 " stroke="none" fill="#060c16" fill-rule="evenodd"></path></g></svg>