<svg id="svg" xmlns="http://www.w3.org/2000/svg" xmlns:xlink="http://www.w3.org/1999/xlink" width="400" height="70.30303030303031" viewBox="0, 0, 400,70.30303030303031"><g id="svgg"><path id="path0" d="M7.171 17.347 C 6.945 17.440,6.420 17.498,6.005 17.476 C 5.590 17.454,4.069 17.450,2.625 17.468 L 0.000 17.500 0.000 35.632 L 0.000 53.765 0.986 53.983 C 1.775 54.158,2.095 54.161,2.593 53.997 C 3.015 53.858,3.515 53.835,4.149 53.927 C 4.943 54.042,6.185 54.069,9.208 54.036 C 9.506 54.033,10.087 54.015,10.500 53.996 C 11.267 53.961,16.233 53.965,17.583 54.002 C 18.960 54.039,19.482 54.042,22.458 54.023 C 30.899 53.968,33.659 53.964,34.417 54.003 C 34.875 54.027,35.438 54.041,35.667 54.035 C 36.028 54.026,37.289 54.026,39.417 54.035 C 40.869 54.041,43.897 54.010,45.417 53.973 C 46.333 53.952,47.538 54.016,48.094 54.116 C 48.789 54.242,49.623 54.250,50.761 54.141 C 51.671 54.054,52.585 53.990,52.792 53.999 C 52.998 54.008,53.542 54.008,54.000 53.998 C 55.533 53.966,62.741 53.959,63.500 53.989 C 64.598 54.032,65.670 54.036,66.333 53.999 C 66.654 53.981,67.348 53.971,67.875 53.976 C 68.402 53.982,69.246 53.984,69.750 53.980 C 71.865 53.965,76.144 53.966,76.917 53.982 C 77.375 53.992,78.219 53.999,78.792 53.998 C 81.568 53.994,82.428 53.998,85.375 54.029 C 86.406 54.040,87.475 54.040,87.750 54.030 C 88.890 53.986,92.557 53.966,94.500 53.993 C 95.279 54.003,96.367 54.000,96.917 53.986 C 97.467 53.971,98.388 54.054,98.963 54.170 C 99.805 54.340,100.229 54.340,101.130 54.171 C 101.746 54.056,102.475 53.984,102.750 54.012 C 103.227 54.059,104.531 54.045,106.625 53.969 C 107.152 53.950,108.146 54.024,108.833 54.134 C 109.781 54.285,110.305 54.287,111.000 54.143 C 111.504 54.038,112.367 53.969,112.917 53.989 C 113.467 54.009,114.779 54.027,115.833 54.029 C 116.888 54.031,118.050 54.035,118.417 54.038 C 118.783 54.041,119.590 54.042,120.208 54.040 C 120.827 54.038,121.558 54.036,121.833 54.036 C 122.673 54.037,124.685 54.017,125.917 53.995 C 127.563 53.966,130.204 53.961,136.417 53.974 C 136.921 53.975,138.308 53.974,139.500 53.973 C 142.939 53.968,143.181 53.969,144.500 53.998 C 146.230 54.035,147.629 54.045,148.417 54.025 C 149.360 54.002,149.778 54.000,153.333 54.002 C 156.451 54.003,157.178 54.007,158.333 54.029 C 158.654 54.035,159.217 54.024,159.583 54.005 C 160.353 53.964,161.986 53.955,162.833 53.987 C 163.154 53.999,164.407 53.962,165.618 53.904 C 167.430 53.819,167.945 53.848,168.534 54.072 C 169.154 54.306,169.463 54.317,170.833 54.153 C 171.704 54.049,172.604 53.976,172.833 53.991 C 173.063 54.007,173.625 54.010,174.083 53.999 C 175.050 53.975,176.429 53.962,177.500 53.967 C 177.912 53.969,179.262 53.965,180.500 53.958 C 181.737 53.952,183.088 53.964,183.500 53.985 C 184.876 54.057,187.479 54.082,189.167 54.040 C 191.561 53.981,191.954 53.975,192.875 53.986 C 193.402 53.992,194.471 53.994,195.250 53.989 C 199.366 53.966,204.915 53.947,205.500 53.953 C 205.867 53.957,206.635 53.962,207.208 53.963 C 207.781 53.965,208.625 53.971,209.083 53.976 C 209.542 53.982,210.329 53.983,210.833 53.978 C 211.338 53.973,212.125 53.977,212.583 53.987 C 213.042 53.998,215.554 53.998,218.167 53.988 C 220.779 53.978,223.254 53.975,223.667 53.983 C 225.896 54.021,229.335 54.024,229.917 53.988 C 230.626 53.943,233.036 53.951,234.417 54.002 C 234.875 54.019,235.494 54.031,235.792 54.029 C 237.044 54.020,237.784 54.022,238.333 54.035 C 238.654 54.043,239.479 54.040,240.167 54.028 C 240.854 54.016,241.979 54.011,242.667 54.016 C 243.354 54.022,244.479 54.015,245.167 54.001 C 246.365 53.978,250.831 53.966,252.750 53.981 C 253.254 53.985,254.060 53.986,254.542 53.984 C 255.023 53.982,255.792 53.992,256.250 54.006 C 257.288 54.039,258.036 54.038,259.000 54.003 C 259.958 53.967,261.354 53.962,262.417 53.989 C 263.680 54.022,263.931 54.023,264.833 54.005 C 266.747 53.967,268.955 53.961,269.500 53.991 C 270.289 54.035,271.606 54.035,272.417 53.990 C 272.783 53.969,273.515 53.962,274.042 53.974 C 274.569 53.985,275.337 54.002,275.750 54.011 C 277.154 54.042,277.583 54.042,279.000 54.012 C 279.779 53.995,281.392 53.983,282.583 53.985 C 283.775 53.987,285.125 53.983,285.583 53.976 C 286.860 53.957,292.907 53.963,294.500 53.986 C 296.040 54.007,297.616 54.017,299.375 54.016 C 299.994 54.016,301.100 54.017,301.833 54.019 C 305.347 54.027,306.831 54.024,307.750 54.006 C 311.481 53.934,314.935 53.937,317.083 54.016 C 317.358 54.026,317.902 54.029,318.292 54.024 C 318.681 54.018,319.188 54.016,319.417 54.019 C 320.987 54.038,322.491 54.041,322.917 54.026 C 323.388 54.010,324.251 54.011,325.583 54.031 C 326.540 54.045,330.794 54.018,332.583 53.986 C 333.500 53.970,334.625 53.962,335.083 53.970 C 335.542 53.978,336.423 53.978,337.042 53.972 C 338.464 53.957,339.446 53.968,340.083 54.005 C 340.358 54.021,340.902 54.027,341.292 54.019 C 341.681 54.010,342.488 54.007,343.083 54.011 C 348.364 54.047,348.424 54.047,350.208 54.015 C 350.873 54.003,353.329 53.992,355.667 53.989 C 358.004 53.987,360.517 53.977,361.250 53.966 C 362.668 53.946,365.940 53.966,368.417 54.009 C 369.242 54.023,370.067 54.029,370.250 54.021 C 370.433 54.013,371.371 54.067,372.333 54.139 C 373.707 54.243,374.209 54.220,374.666 54.033 C 375.090 53.860,375.522 53.828,376.249 53.919 C 376.800 53.988,377.550 54.025,377.917 54.002 C 378.540 53.963,381.838 53.962,383.625 54.001 C 384.597 54.022,385.575 54.031,386.292 54.026 C 386.590 54.024,387.058 54.023,387.333 54.024 C 387.608 54.025,388.133 54.024,388.500 54.022 C 388.867 54.021,389.429 54.020,389.750 54.020 C 390.071 54.020,390.615 54.012,390.958 54.003 C 391.302 53.995,393.477 53.949,395.792 53.902 L 400.000 53.817 400.000 35.659 L 400.000 17.500 398.292 17.470 C 397.352 17.454,394.033 17.418,390.917 17.391 C 387.800 17.364,384.837 17.337,384.333 17.332 C 383.581 17.324,380.833 17.335,377.500 17.360 C 377.179 17.362,376.017 17.346,374.917 17.325 C 373.817 17.303,371.904 17.302,370.667 17.324 C 369.429 17.346,366.823 17.362,364.875 17.359 C 359.656 17.352,359.170 17.352,355.167 17.373 C 353.150 17.384,351.256 17.387,350.958 17.380 C 350.660 17.373,348.504 17.361,346.167 17.354 C 343.829 17.347,341.467 17.326,340.917 17.309 C 340.367 17.291,339.579 17.301,339.167 17.331 C 338.754 17.361,337.667 17.374,336.750 17.361 C 335.833 17.347,334.146 17.355,333.000 17.377 C 331.854 17.399,330.392 17.402,329.750 17.384 C 328.150 17.339,327.514 17.333,325.583 17.341 C 324.667 17.345,314.054 17.357,302.000 17.368 C 289.946 17.379,279.802 17.388,279.458 17.389 C 276.264 17.393,273.890 17.377,272.917 17.345 C 271.798 17.307,263.799 17.326,262.417 17.369 C 261.545 17.396,259.856 17.386,258.500 17.345 C 257.483 17.314,252.663 17.330,247.167 17.382 C 244.077 17.412,240.366 17.389,239.083 17.333 C 238.533 17.309,236.921 17.315,235.500 17.346 C 234.079 17.378,232.092 17.394,231.083 17.382 C 230.075 17.369,227.075 17.364,224.417 17.371 C 221.758 17.377,219.265 17.374,218.875 17.364 C 218.485 17.354,217.904 17.350,217.583 17.356 C 217.262 17.362,216.756 17.362,216.458 17.357 C 216.160 17.351,214.829 17.359,213.500 17.374 C 212.171 17.389,210.258 17.397,209.250 17.391 C 207.014 17.379,204.976 17.377,204.083 17.386 C 203.717 17.389,202.667 17.386,201.750 17.378 C 200.833 17.371,199.783 17.363,199.417 17.360 C 198.317 17.354,195.211 17.359,194.542 17.369 C 194.198 17.374,193.542 17.360,193.083 17.338 C 191.523 17.264,190.751 17.261,189.417 17.325 C 188.683 17.360,187.258 17.388,186.250 17.386 C 185.242 17.385,182.767 17.381,180.750 17.379 C 178.733 17.376,176.821 17.362,176.500 17.349 C 175.718 17.315,166.554 17.323,164.250 17.359 C 162.767 17.383,151.833 17.371,149.708 17.344 C 148.978 17.335,148.056 17.345,147.250 17.372 C 146.883 17.384,143.321 17.390,139.333 17.385 C 135.346 17.380,131.258 17.382,130.250 17.389 C 128.270 17.404,121.837 17.386,120.750 17.363 C 120.074 17.349,110.503 17.338,109.583 17.351 C 109.035 17.358,100.456 17.385,97.667 17.389 C 96.704 17.390,95.354 17.393,94.667 17.396 C 92.836 17.405,91.032 17.378,90.083 17.328 C 89.625 17.304,88.912 17.290,88.500 17.296 C 87.245 17.315,83.659 17.361,82.333 17.375 C 81.646 17.382,80.840 17.377,80.542 17.363 C 80.244 17.350,79.475 17.343,78.833 17.347 C 77.421 17.356,75.393 17.352,74.542 17.338 C 72.738 17.310,70.291 17.317,69.333 17.354 C 68.737 17.376,67.612 17.392,66.833 17.388 C 66.054 17.383,64.854 17.381,64.167 17.382 C 63.479 17.383,62.692 17.369,62.417 17.351 C 62.142 17.333,61.317 17.332,60.583 17.349 C 59.252 17.379,48.459 17.393,46.250 17.367 C 44.787 17.349,43.083 17.352,40.000 17.376 C 38.671 17.387,36.383 17.369,34.917 17.338 C 32.398 17.283,31.613 17.286,27.458 17.368 C 26.519 17.387,25.450 17.384,25.083 17.361 C 24.717 17.339,23.254 17.315,21.833 17.309 C 18.292 17.293,17.861 17.294,14.250 17.325 C 12.508 17.341,10.296 17.314,9.333 17.265 C 8.309 17.214,7.412 17.248,7.171 17.347 " stroke="none" fill="#a45d9b" fill-rule="evenodd"></path><path id="path1" d="M0.000 8.188 L 0.000 9.710 1.030 9.593 C 1.597 9.529,3.303 9.492,4.822 9.511 C 6.341 9.530,7.771 9.537,8.000 9.528 C 8.229 9.518,10.404 9.516,12.833 9.523 C 15.262 9.530,19.500 9.515,22.250 9.489 C 25.000 9.463,28.113 9.468,29.167 9.500 C 30.221 9.532,32.321 9.552,33.833 9.545 C 36.613 9.531,44.214 9.539,45.750 9.558 C 46.208 9.563,47.521 9.554,48.667 9.536 C 50.603 9.506,51.526 9.508,53.000 9.545 C 53.885 9.566,55.458 9.548,56.667 9.501 C 57.262 9.478,58.219 9.461,58.792 9.465 C 59.365 9.468,60.190 9.462,60.625 9.453 C 61.060 9.443,62.392 9.452,63.583 9.472 C 67.170 9.532,75.364 9.539,76.167 9.482 C 77.344 9.398,83.460 9.437,84.500 9.535 C 84.729 9.557,86.604 9.564,88.667 9.552 C 91.949 9.532,99.133 9.530,102.333 9.549 C 105.186 9.566,106.532 9.558,110.083 9.506 C 112.192 9.476,116.279 9.480,119.167 9.517 C 122.054 9.553,125.035 9.576,125.792 9.568 C 126.548 9.560,127.504 9.553,127.917 9.554 C 129.564 9.556,132.003 9.531,133.583 9.495 C 134.500 9.474,137.275 9.483,139.750 9.514 C 142.225 9.545,144.475 9.561,144.750 9.549 C 145.025 9.537,150.050 9.533,155.917 9.540 C 161.783 9.548,167.258 9.541,168.083 9.526 C 170.418 9.483,170.933 9.483,173.250 9.520 C 175.904 9.563,183.865 9.583,184.667 9.549 C 185.523 9.512,198.897 9.510,200.167 9.547 C 200.762 9.564,203.463 9.565,206.167 9.549 C 208.871 9.533,212.133 9.528,213.417 9.538 C 214.700 9.548,215.975 9.553,216.250 9.549 C 217.865 9.527,225.190 9.526,226.667 9.547 C 227.629 9.562,229.129 9.564,230.000 9.553 C 230.871 9.542,231.846 9.539,232.167 9.545 C 232.487 9.552,233.237 9.555,233.833 9.552 C 235.484 9.546,238.889 9.551,240.750 9.563 C 243.548 9.581,250.714 9.566,251.333 9.540 C 251.654 9.527,256.154 9.507,261.333 9.497 C 266.512 9.487,271.087 9.475,271.500 9.470 C 271.912 9.466,273.262 9.488,274.500 9.519 C 275.737 9.550,277.537 9.570,278.500 9.564 C 279.462 9.558,281.225 9.554,282.417 9.556 C 283.608 9.557,286.308 9.540,288.417 9.520 C 290.525 9.499,295.850 9.479,300.250 9.476 C 304.650 9.472,309.150 9.466,310.250 9.461 C 311.350 9.457,313.525 9.464,315.083 9.478 C 316.642 9.491,318.554 9.486,319.333 9.465 C 320.112 9.445,321.087 9.452,321.500 9.481 C 322.274 9.535,325.510 9.573,326.833 9.543 C 327.246 9.534,329.046 9.534,330.833 9.543 C 332.621 9.552,334.496 9.550,335.000 9.539 C 336.614 9.503,337.664 9.495,341.833 9.482 C 344.079 9.475,346.817 9.458,347.917 9.445 C 349.017 9.432,350.892 9.436,352.083 9.453 C 358.813 9.553,365.500 9.580,370.250 9.527 C 371.167 9.517,372.817 9.524,373.917 9.543 C 375.017 9.562,376.592 9.548,377.417 9.512 C 379.067 9.440,380.512 9.436,382.167 9.501 C 383.423 9.550,384.146 9.556,388.333 9.553 C 391.996 9.551,392.749 9.547,394.833 9.520 C 395.704 9.508,396.679 9.506,397.000 9.514 C 397.321 9.522,398.127 9.522,398.792 9.515 L 400.000 9.501 400.000 8.277 L 400.000 7.053 398.848 6.836 C 398.130 6.701,397.424 6.668,396.973 6.749 C 396.575 6.821,395.912 6.871,395.500 6.861 C 395.087 6.851,393.438 6.849,391.833 6.857 C 390.229 6.865,388.354 6.854,387.667 6.833 C 386.561 6.799,381.094 6.777,378.833 6.797 C 377.898 6.805,376.434 6.806,375.125 6.800 C 374.644 6.798,373.725 6.810,373.083 6.828 C 371.003 6.886,369.256 6.884,367.750 6.821 C 366.978 6.789,363.672 6.800,360.667 6.844 C 358.396 6.878,358.154 6.877,356.917 6.824 C 356.458 6.804,355.390 6.794,354.542 6.802 C 352.852 6.816,351.039 6.818,348.542 6.807 C 347.648 6.804,346.579 6.818,346.167 6.839 C 345.356 6.880,345.066 6.878,343.667 6.821 C 342.443 6.771,335.093 6.771,334.250 6.821 C 333.530 6.863,332.267 6.870,331.333 6.836 C 330.526 6.807,326.746 6.810,325.833 6.841 C 325.421 6.855,324.558 6.860,323.917 6.854 C 323.275 6.847,322.450 6.847,322.083 6.854 C 321.717 6.861,321.117 6.864,320.750 6.861 C 320.383 6.859,319.633 6.862,319.083 6.868 C 318.533 6.874,317.708 6.873,317.250 6.866 C 316.792 6.858,315.892 6.851,315.250 6.850 C 314.608 6.849,313.558 6.836,312.917 6.821 C 312.275 6.806,311.487 6.808,311.167 6.825 C 310.602 6.856,309.532 6.863,308.500 6.842 C 308.225 6.836,307.400 6.835,306.667 6.839 C 305.933 6.844,304.846 6.848,304.250 6.848 C 303.654 6.848,302.567 6.850,301.833 6.854 C 299.364 6.865,294.771 6.848,291.750 6.816 C 290.100 6.799,288.450 6.802,288.083 6.823 C 287.717 6.844,286.967 6.833,286.417 6.800 C 285.867 6.767,285.288 6.814,285.132 6.906 C 284.940 7.018,284.549 7.009,283.933 6.880 C 283.308 6.749,282.832 6.740,282.429 6.851 C 282.035 6.960,281.623 6.956,281.194 6.841 C 280.735 6.717,280.395 6.721,280.016 6.853 C 279.691 6.966,279.079 6.995,278.449 6.927 C 277.061 6.776,276.706 6.775,275.877 6.920 C 275.388 7.005,275.091 6.978,274.913 6.830 C 274.703 6.656,274.580 6.656,274.255 6.831 C 273.965 6.986,273.493 7.012,272.552 6.926 C 271.836 6.860,270.987 6.826,270.667 6.850 C 270.346 6.874,269.352 6.889,268.458 6.884 C 266.365 6.872,263.243 6.867,261.208 6.874 C 260.773 6.875,259.854 6.860,259.167 6.840 C 258.479 6.819,257.223 6.801,256.375 6.800 C 255.527 6.798,254.440 6.796,253.958 6.794 C 253.477 6.792,251.546 6.807,249.667 6.827 C 247.787 6.847,245.969 6.858,245.625 6.851 C 245.281 6.844,244.400 6.843,243.667 6.848 C 240.042 6.874,237.694 6.876,237.167 6.852 C 235.622 6.783,232.194 6.767,231.167 6.825 C 230.356 6.870,229.043 6.868,228.250 6.820 C 227.883 6.797,226.890 6.783,226.042 6.788 C 225.194 6.793,224.125 6.797,223.667 6.797 C 223.208 6.797,222.121 6.797,221.250 6.797 C 220.379 6.797,219.292 6.799,218.833 6.801 C 217.479 6.806,216.057 6.805,215.167 6.796 C 214.053 6.786,206.541 6.786,205.542 6.797 C 205.106 6.802,202.387 6.808,199.500 6.810 C 196.612 6.813,193.594 6.817,192.792 6.819 C 191.990 6.821,190.883 6.815,190.333 6.807 C 189.254 6.790,189.185 6.790,184.833 6.808 C 183.229 6.814,181.617 6.815,181.250 6.810 C 175.743 6.735,172.712 6.762,172.540 6.889 C 172.417 6.979,172.004 6.986,171.540 6.904 C 171.106 6.827,169.212 6.785,167.333 6.811 C 165.454 6.836,163.242 6.845,162.417 6.830 C 160.048 6.789,156.638 6.785,156.000 6.823 C 155.341 6.862,154.320 6.873,152.792 6.858 C 151.058 6.841,146.955 6.828,146.333 6.838 C 146.012 6.843,144.325 6.842,142.583 6.835 C 140.842 6.829,139.173 6.830,138.875 6.838 C 137.833 6.865,136.745 6.857,136.167 6.818 C 135.846 6.796,134.308 6.797,132.750 6.820 C 130.309 6.857,128.500 6.868,125.500 6.865 C 125.133 6.865,124.065 6.860,123.125 6.854 C 120.251 6.835,116.481 6.826,115.208 6.834 C 113.903 6.842,111.927 6.837,110.792 6.821 C 110.402 6.816,108.733 6.823,107.083 6.836 C 101.657 6.880,100.756 6.881,100.250 6.850 C 99.348 6.793,92.883 6.762,90.375 6.802 C 89.940 6.809,87.446 6.817,84.833 6.819 C 82.221 6.821,79.540 6.827,78.875 6.832 C 78.210 6.837,77.104 6.838,76.417 6.835 C 75.240 6.828,74.904 6.830,73.250 6.856 C 72.883 6.862,72.283 6.860,71.917 6.853 C 71.550 6.845,69.900 6.845,68.250 6.852 C 66.600 6.860,64.800 6.860,64.250 6.853 C 62.760 6.835,55.050 6.790,54.042 6.793 C 51.408 6.803,49.776 6.821,48.583 6.852 C 47.850 6.872,47.063 6.881,46.833 6.873 C 46.604 6.864,45.835 6.860,45.125 6.864 C 44.415 6.867,43.496 6.866,43.083 6.861 C 42.671 6.856,42.127 6.854,41.875 6.856 C 41.623 6.858,41.117 6.855,40.750 6.851 C 40.383 6.846,39.840 6.844,39.542 6.847 C 38.635 6.855,37.533 6.859,36.875 6.855 C 34.436 6.843,28.885 6.842,27.958 6.854 C 26.214 6.876,25.512 6.879,22.958 6.873 C 21.652 6.870,20.283 6.870,19.917 6.872 C 19.550 6.874,18.781 6.869,18.208 6.862 C 17.150 6.847,14.942 6.832,13.958 6.831 C 13.660 6.831,12.704 6.809,11.833 6.781 C 10.963 6.754,10.126 6.805,9.975 6.896 C 9.789 7.006,9.309 6.986,8.500 6.833 C 7.547 6.653,7.105 6.647,6.353 6.802 C 5.717 6.934,5.226 6.946,4.853 6.839 C 4.484 6.733,4.030 6.743,3.486 6.868 C 2.874 7.009,2.566 7.008,2.245 6.861 C 2.010 6.754,1.409 6.667,0.909 6.667 L 0.000 6.667 0.000 8.188 M0.875 61.967 L -0.000 62.017 -0.000 63.446 L 0.000 64.875 0.542 64.739 C 1.015 64.621,1.700 64.588,2.917 64.626 C 3.100 64.632,4.212 64.602,5.388 64.559 C 6.815 64.507,7.600 64.542,7.748 64.665 C 7.911 64.800,8.002 64.798,8.090 64.656 C 8.173 64.521,8.515 64.500,9.230 64.588 C 10.112 64.696,12.660 64.730,16.250 64.682 C 16.800 64.675,17.906 64.670,18.708 64.670 C 19.510 64.671,20.917 64.670,21.833 64.667 C 23.980 64.661,24.675 64.662,28.000 64.675 C 33.352 64.696,35.962 64.680,39.954 64.599 C 42.422 64.549,44.029 64.579,44.089 64.676 C 44.151 64.776,44.296 64.776,44.485 64.675 C 44.679 64.571,44.993 64.580,45.389 64.702 C 45.846 64.842,46.210 64.837,46.873 64.680 C 47.498 64.532,48.636 64.501,50.833 64.573 C 52.529 64.628,54.554 64.671,55.333 64.668 C 56.112 64.664,57.462 64.667,58.333 64.673 C 59.204 64.679,61.117 64.682,62.583 64.680 C 64.050 64.678,65.700 64.679,66.250 64.682 C 67.813 64.692,69.642 64.688,73.250 64.666 C 75.083 64.655,77.468 64.695,78.549 64.754 C 79.953 64.832,80.582 64.806,80.751 64.666 C 80.932 64.516,81.127 64.516,81.589 64.668 C 81.942 64.785,82.443 64.818,82.804 64.749 C 83.141 64.683,83.867 64.643,84.417 64.659 C 84.967 64.675,86.035 64.683,86.792 64.677 C 87.548 64.671,88.823 64.660,89.625 64.654 C 90.912 64.643,92.146 64.659,93.500 64.704 C 93.729 64.712,94.535 64.706,95.292 64.692 C 96.718 64.664,99.251 64.651,100.625 64.664 C 101.060 64.668,103.142 64.642,105.250 64.607 C 107.358 64.572,109.229 64.597,109.406 64.662 C 109.584 64.727,109.944 64.700,110.206 64.601 C 110.569 64.464,110.713 64.472,110.813 64.634 C 110.915 64.800,111.775 64.827,114.764 64.759 C 116.864 64.712,119.033 64.676,119.583 64.681 C 120.133 64.685,121.202 64.683,121.958 64.677 C 123.683 64.663,125.869 64.658,127.917 64.665 C 128.787 64.667,129.856 64.670,130.292 64.671 C 130.727 64.672,132.768 64.713,134.827 64.762 C 137.504 64.826,138.673 64.797,138.932 64.659 C 139.161 64.536,139.622 64.505,140.188 64.575 C 141.163 64.694,141.766 64.709,144.167 64.676 C 145.037 64.664,146.144 64.659,146.625 64.664 C 147.106 64.670,147.950 64.679,148.500 64.684 C 149.943 64.699,158.333 64.687,159.417 64.670 C 160.427 64.653,161.661 64.651,163.125 64.662 C 163.652 64.666,164.496 64.663,165.000 64.655 C 167.696 64.612,168.980 64.639,169.544 64.748 C 169.949 64.827,170.255 64.801,170.407 64.675 C 170.586 64.526,170.796 64.525,171.287 64.672 C 171.711 64.800,172.556 64.829,173.758 64.760 C 175.516 64.658,176.428 64.642,178.125 64.685 C 178.560 64.695,179.315 64.648,179.803 64.580 C 180.389 64.498,180.812 64.522,181.054 64.651 C 181.321 64.794,182.899 64.826,186.918 64.770 C 189.942 64.727,192.829 64.687,193.333 64.680 C 193.838 64.673,194.785 64.710,195.440 64.763 C 196.094 64.816,196.914 64.781,197.262 64.685 C 197.704 64.563,197.958 64.563,198.106 64.685 C 198.236 64.793,198.816 64.825,199.617 64.769 C 200.332 64.718,201.104 64.689,201.333 64.704 C 202.181 64.758,216.516 64.688,217.750 64.624 C 218.037 64.609,220.605 64.616,221.208 64.633 C 221.323 64.636,222.115 64.602,222.968 64.557 C 224.036 64.501,224.595 64.538,224.760 64.675 C 224.946 64.830,225.000 64.829,225.000 64.672 C 225.000 64.527,225.269 64.496,225.958 64.562 C 228.981 64.850,229.546 64.865,229.915 64.667 C 230.182 64.525,230.388 64.514,230.598 64.632 C 230.767 64.726,231.052 64.742,231.248 64.667 C 231.440 64.594,232.532 64.569,233.674 64.610 C 234.816 64.652,236.125 64.677,236.583 64.666 C 237.042 64.655,237.829 64.645,238.333 64.643 C 238.838 64.641,239.400 64.633,239.583 64.625 C 239.767 64.617,240.329 64.627,240.833 64.647 C 242.159 64.698,243.049 64.681,244.813 64.572 C 245.830 64.509,246.438 64.538,246.554 64.654 C 246.791 64.891,249.962 64.887,250.645 64.649 C 251.046 64.510,251.233 64.515,251.420 64.670 C 251.592 64.812,251.667 64.817,251.667 64.687 C 251.667 64.437,256.101 64.426,256.255 64.675 C 256.330 64.795,256.432 64.792,256.585 64.665 C 256.735 64.540,257.501 64.510,258.945 64.572 C 260.998 64.659,261.437 64.669,263.667 64.679 C 264.217 64.681,265.285 64.688,266.042 64.694 C 266.798 64.701,267.876 64.651,268.437 64.584 C 269.149 64.500,269.494 64.522,269.577 64.656 C 269.667 64.803,269.753 64.802,269.931 64.654 C 270.111 64.505,270.284 64.508,270.670 64.668 C 271.002 64.805,271.413 64.832,271.878 64.747 C 272.467 64.638,273.274 64.606,274.542 64.641 C 274.656 64.644,276.829 64.617,279.370 64.581 C 282.194 64.542,284.029 64.578,284.089 64.675 C 284.151 64.776,284.300 64.774,284.494 64.670 C 284.698 64.561,284.971 64.565,285.310 64.684 C 285.607 64.787,286.327 64.820,287.035 64.762 C 287.703 64.707,289.487 64.665,291.000 64.669 C 292.512 64.673,294.669 64.679,295.792 64.682 C 297.870 64.688,299.175 64.683,300.667 64.664 C 302.516 64.640,306.653 64.643,308.583 64.670 C 311.026 64.704,316.018 64.695,316.833 64.655 C 317.337 64.631,317.900 64.617,318.083 64.625 C 318.465 64.641,319.907 64.655,321.250 64.655 C 321.754 64.655,322.598 64.658,323.125 64.662 C 323.652 64.666,324.496 64.665,325.000 64.660 C 326.992 64.637,327.675 64.636,327.875 64.653 C 327.990 64.662,328.758 64.657,329.583 64.641 C 330.408 64.625,331.233 64.621,331.417 64.632 C 331.600 64.643,332.688 64.625,333.833 64.593 C 334.979 64.560,336.036 64.597,336.183 64.676 C 336.342 64.760,336.520 64.747,336.625 64.642 C 336.740 64.527,337.345 64.503,338.359 64.574 C 339.216 64.633,340.254 64.679,340.667 64.675 C 342.267 64.660,352.020 64.669,353.917 64.687 C 355.017 64.698,356.629 64.698,357.500 64.686 C 363.025 64.614,371.030 64.659,372.232 64.770 C 372.964 64.837,373.710 64.796,374.289 64.657 C 374.931 64.503,375.376 64.487,375.807 64.600 C 376.211 64.707,376.581 64.703,376.903 64.589 C 377.273 64.458,377.406 64.468,377.461 64.632 C 377.514 64.791,377.590 64.800,377.754 64.663 C 377.916 64.529,378.149 64.531,378.619 64.672 C 379.021 64.792,379.699 64.823,380.423 64.754 C 381.834 64.618,385.078 64.619,387.657 64.755 C 388.975 64.824,389.677 64.795,389.930 64.660 C 390.181 64.525,390.754 64.500,391.772 64.581 C 393.659 64.729,396.672 64.730,398.542 64.581 L 400.000 64.466 400.000 63.233 L 400.000 62.000 398.958 61.986 C 395.853 61.943,1.608 61.925,0.875 61.967 " stroke="none" fill="#943c64" fill-rule="evenodd"></path><path id="path2" d="M0.000 3.333 L 0.000 6.667 0.909 6.667 C 1.409 6.667,2.010 6.754,2.245 6.861 C 2.566 7.008,2.874 7.009,3.486 6.868 C 4.030 6.743,4.484 6.733,4.853 6.839 C 5.226 6.946,5.717 6.934,6.353 6.802 C 7.105 6.647,7.547 6.653,8.500 6.833 C 9.309 6.986,9.789 7.006,9.975 6.896 C 10.126 6.805,10.963 6.754,11.833 6.781 C 12.704 6.809,13.660 6.831,13.958 6.831 C 14.942 6.832,17.150 6.847,18.208 6.862 C 18.781 6.869,19.550 6.874,19.917 6.872 C 20.283 6.870,21.652 6.870,22.958 6.873 C 25.512 6.879,26.214 6.876,27.958 6.854 C 28.885 6.842,34.436 6.843,36.875 6.855 C 37.533 6.859,38.635 6.855,39.542 6.847 C 39.840 6.844,40.383 6.846,40.750 6.851 C 41.117 6.855,41.623 6.858,41.875 6.856 C 42.127 6.854,42.671 6.856,43.083 6.861 C 43.496 6.866,44.415 6.867,45.125 6.864 C 45.835 6.860,46.604 6.864,46.833 6.873 C 47.063 6.881,47.850 6.872,48.583 6.852 C 49.776 6.821,51.408 6.803,54.042 6.793 C 55.050 6.790,62.760 6.835,64.250 6.853 C 64.800 6.860,66.600 6.860,68.250 6.852 C 69.900 6.845,71.550 6.845,71.917 6.853 C 72.283 6.860,72.883 6.862,73.250 6.856 C 74.904 6.830,75.240 6.828,76.417 6.835 C 77.104 6.838,78.210 6.837,78.875 6.832 C 79.540 6.827,82.221 6.821,84.833 6.819 C 87.446 6.817,89.940 6.809,90.375 6.802 C 92.883 6.762,99.348 6.793,100.250 6.850 C 100.756 6.881,101.657 6.880,107.083 6.836 C 108.733 6.823,110.402 6.816,110.792 6.821 C 111.927 6.837,113.903 6.842,115.208 6.834 C 116.481 6.826,120.251 6.835,123.125 6.854 C 124.065 6.860,125.133 6.865,125.500 6.865 C 128.500 6.868,130.309 6.857,132.750 6.820 C 134.308 6.797,135.846 6.796,136.167 6.818 C 136.745 6.857,137.833 6.865,138.875 6.838 C 139.173 6.830,140.842 6.829,142.583 6.835 C 144.325 6.842,146.012 6.843,146.333 6.838 C 146.955 6.828,151.058 6.841,152.792 6.858 C 154.320 6.873,155.341 6.862,156.000 6.823 C 156.638 6.785,160.048 6.789,162.417 6.830 C 163.242 6.845,165.454 6.836,167.333 6.811 C 169.212 6.785,171.106 6.827,171.540 6.904 C 172.004 6.986,172.417 6.979,172.540 6.889 C 172.712 6.762,175.743 6.735,181.250 6.810 C 181.617 6.815,183.229 6.814,184.833 6.808 C 189.185 6.790,189.254 6.790,190.333 6.807 C 190.883 6.815,191.990 6.821,192.792 6.819 C 193.594 6.817,196.612 6.813,199.500 6.810 C 202.387 6.808,205.106 6.802,205.542 6.797 C 206.541 6.786,214.053 6.786,215.167 6.796 C 216.057 6.805,217.479 6.806,218.833 6.801 C 219.292 6.799,220.379 6.797,221.250 6.797 C 222.121 6.797,223.208 6.797,223.667 6.797 C 224.125 6.797,225.194 6.793,226.042 6.788 C 226.890 6.783,227.883 6.797,228.250 6.820 C 229.043 6.868,230.356 6.870,231.167 6.825 C 232.194 6.767,235.622 6.783,237.167 6.852 C 237.694 6.876,240.042 6.874,243.667 6.848 C 244.400 6.843,245.281 6.844,245.625 6.851 C 245.969 6.858,247.787 6.847,249.667 6.827 C 251.546 6.807,253.477 6.792,253.958 6.794 C 254.440 6.796,255.527 6.798,256.375 6.800 C 257.223 6.801,258.479 6.819,259.167 6.840 C 259.854 6.860,260.773 6.875,261.208 6.874 C 263.243 6.867,266.365 6.872,268.458 6.884 C 269.352 6.889,270.346 6.874,270.667 6.850 C 270.987 6.826,271.836 6.860,272.552 6.926 C 273.493 7.012,273.965 6.986,274.255 6.831 C 274.580 6.656,274.703 6.656,274.913 6.830 C 275.091 6.978,275.388 7.005,275.877 6.920 C 276.706 6.775,277.061 6.776,278.449 6.927 C 279.079 6.995,279.691 6.966,280.016 6.853 C 280.395 6.721,280.735 6.717,281.194 6.841 C 281.623 6.956,282.035 6.960,282.429 6.851 C 282.832 6.740,283.308 6.749,283.933 6.880 C 284.549 7.009,284.940 7.018,285.132 6.906 C 285.288 6.814,285.867 6.767,286.417 6.800 C 286.967 6.833,287.717 6.844,288.083 6.823 C 288.450 6.802,290.100 6.799,291.750 6.816 C 294.771 6.848,299.364 6.865,301.833 6.854 C 302.567 6.850,303.654 6.848,304.250 6.848 C 304.846 6.848,305.933 6.844,306.667 6.839 C 307.400 6.835,308.225 6.836,308.500 6.842 C 309.532 6.863,310.602 6.856,311.167 6.825 C 311.487 6.808,312.275 6.806,312.917 6.821 C 313.558 6.836,314.608 6.849,315.250 6.850 C 315.892 6.851,316.792 6.858,317.250 6.866 C 317.708 6.873,318.533 6.874,319.083 6.868 C 319.633 6.862,320.383 6.859,320.750 6.861 C 321.117 6.864,321.717 6.861,322.083 6.854 C 322.450 6.847,323.275 6.847,323.917 6.854 C 324.558 6.860,325.421 6.855,325.833 6.841 C 326.746 6.810,330.526 6.807,331.333 6.836 C 332.267 6.870,333.530 6.863,334.250 6.821 C 335.093 6.771,342.443 6.771,343.667 6.821 C 345.066 6.878,345.356 6.880,346.167 6.839 C 346.579 6.818,347.648 6.804,348.542 6.807 C 351.039 6.818,352.852 6.816,354.542 6.802 C 355.390 6.794,356.458 6.804,356.917 6.824 C 358.154 6.877,358.396 6.878,360.667 6.844 C 363.672 6.800,366.978 6.789,367.750 6.821 C 369.256 6.884,371.003 6.886,373.083 6.828 C 373.725 6.810,374.644 6.798,375.125 6.800 C 376.434 6.806,377.898 6.805,378.833 6.797 C 381.094 6.777,386.561 6.799,387.667 6.833 C 388.354 6.854,390.267 6.866,391.917 6.859 C 394.780 6.848,395.278 6.842,397.583 6.786 C 398.133 6.772,398.902 6.825,399.292 6.902 L 400.000 7.043 400.000 3.521 L 400.000 0.000 200.000 0.000 L 0.000 0.000 0.000 3.333 M0.625 64.708 L 0.000 64.892 0.000 67.529 L 0.000 70.167 200.000 70.167 L 400.000 70.167 400.000 67.316 L 400.000 64.466 398.542 64.581 C 396.672 64.730,393.659 64.729,391.772 64.581 C 390.754 64.500,390.181 64.525,389.930 64.660 C 389.677 64.795,388.975 64.824,387.657 64.755 C 385.078 64.619,381.834 64.618,380.423 64.754 C 379.699 64.823,379.021 64.792,378.619 64.672 C 378.149 64.531,377.916 64.529,377.754 64.663 C 377.590 64.800,377.514 64.791,377.461 64.632 C 377.406 64.468,377.273 64.458,376.903 64.589 C 376.581 64.703,376.211 64.707,375.807 64.600 C 375.376 64.487,374.931 64.503,374.289 64.657 C 373.710 64.796,372.964 64.837,372.232 64.770 C 371.030 64.659,363.025 64.614,357.500 64.686 C 356.629 64.698,355.017 64.698,353.917 64.687 C 352.020 64.669,342.267 64.660,340.667 64.675 C 340.254 64.679,339.216 64.633,338.359 64.574 C 337.345 64.503,336.740 64.527,336.625 64.642 C 336.520 64.747,336.342 64.760,336.183 64.676 C 336.036 64.597,334.979 64.560,333.833 64.593 C 332.688 64.625,331.600 64.643,331.417 64.632 C 331.233 64.621,330.408 64.625,329.583 64.641 C 328.758 64.657,327.990 64.662,327.875 64.653 C 327.675 64.636,326.992 64.637,325.000 64.660 C 324.496 64.665,323.652 64.666,323.125 64.662 C 322.598 64.658,321.754 64.655,321.250 64.655 C 319.907 64.655,318.465 64.641,318.083 64.625 C 317.900 64.617,317.337 64.631,316.833 64.655 C 316.018 64.695,311.026 64.704,308.583 64.670 C 306.653 64.643,302.516 64.640,300.667 64.664 C 299.175 64.683,297.870 64.688,295.792 64.682 C 294.669 64.679,292.512 64.673,291.000 64.669 C 289.487 64.665,287.703 64.707,287.035 64.762 C 286.327 64.820,285.607 64.787,285.310 64.684 C 284.971 64.565,284.698 64.561,284.494 64.670 C 284.300 64.774,284.151 64.776,284.089 64.675 C 284.029 64.578,282.194 64.542,279.370 64.581 C 276.829 64.617,274.656 64.644,274.542 64.641 C 273.274 64.606,272.467 64.638,271.878 64.747 C 271.413 64.832,271.002 64.805,270.670 64.668 C 270.284 64.508,270.111 64.505,269.931 64.654 C 269.753 64.802,269.667 64.803,269.577 64.656 C 269.494 64.522,269.149 64.500,268.437 64.584 C 267.876 64.651,266.798 64.701,266.042 64.694 C 265.285 64.688,264.217 64.681,263.667 64.679 C 261.437 64.669,260.998 64.659,258.945 64.572 C 257.501 64.510,256.735 64.540,256.585 64.665 C 256.432 64.792,256.330 64.795,256.255 64.675 C 256.101 64.426,251.667 64.437,251.667 64.687 C 251.667 64.817,251.592 64.812,251.420 64.670 C 251.233 64.515,251.046 64.510,250.645 64.649 C 249.962 64.887,246.791 64.891,246.554 64.654 C 246.437 64.537,245.833 64.510,244.813 64.575 C 243.358 64.667,242.571 64.678,240.667 64.634 C 240.254 64.624,239.767 64.621,239.583 64.628 C 239.400 64.634,238.838 64.641,238.333 64.643 C 237.829 64.645,237.042 64.655,236.583 64.666 C 236.125 64.677,234.816 64.652,233.674 64.610 C 232.532 64.569,231.440 64.594,231.248 64.667 C 231.052 64.742,230.767 64.726,230.598 64.632 C 230.388 64.514,230.182 64.525,229.915 64.667 C 229.546 64.865,228.981 64.850,225.958 64.562 C 225.269 64.496,225.000 64.527,225.000 64.672 C 225.000 64.829,224.946 64.830,224.760 64.675 C 224.595 64.538,224.036 64.501,222.968 64.557 C 222.115 64.602,221.323 64.636,221.208 64.633 C 220.605 64.616,218.037 64.609,217.750 64.624 C 216.516 64.688,202.181 64.758,201.333 64.704 C 201.104 64.689,200.332 64.718,199.617 64.769 C 198.816 64.825,198.236 64.793,198.106 64.685 C 197.958 64.563,197.704 64.563,197.262 64.685 C 196.914 64.781,196.094 64.816,195.440 64.763 C 194.785 64.710,193.838 64.673,193.333 64.680 C 192.829 64.687,189.942 64.727,186.918 64.770 C 182.899 64.826,181.321 64.794,181.054 64.651 C 180.812 64.522,180.389 64.498,179.803 64.580 C 179.315 64.648,178.560 64.695,178.125 64.685 C 176.428 64.642,175.516 64.658,173.758 64.760 C 172.556 64.829,171.711 64.800,171.287 64.672 C 170.796 64.525,170.586 64.526,170.407 64.675 C 170.255 64.801,169.949 64.827,169.544 64.748 C 168.980 64.639,167.696 64.612,165.000 64.655 C 164.496 64.663,163.652 64.666,163.125 64.662 C 161.661 64.651,160.427 64.653,159.417 64.670 C 158.333 64.687,149.943 64.699,148.500 64.684 C 147.950 64.679,147.106 64.670,146.625 64.664 C 146.144 64.659,145.037 64.664,144.167 64.676 C 141.766 64.709,141.163 64.694,140.188 64.575 C 139.622 64.505,139.161 64.536,138.932 64.659 C 138.673 64.797,137.504 64.826,134.827 64.762 C 132.768 64.713,130.727 64.672,130.292 64.671 C 129.856 64.670,128.787 64.667,127.917 64.665 C 125.869 64.658,123.683 64.663,121.958 64.677 C 121.202 64.683,120.133 64.685,119.583 64.681 C 119.033 64.676,116.864 64.712,114.764 64.759 C 111.775 64.827,110.915 64.800,110.813 64.634 C 110.713 64.472,110.569 64.464,110.206 64.601 C 109.944 64.700,109.584 64.727,109.406 64.662 C 109.229 64.597,107.358 64.572,105.250 64.607 C 103.142 64.642,101.060 64.668,100.625 64.664 C 99.251 64.651,96.718 64.664,95.292 64.692 C 94.535 64.706,93.729 64.712,93.500 64.704 C 92.146 64.659,90.912 64.643,89.625 64.654 C 88.823 64.660,87.548 64.671,86.792 64.677 C 86.035 64.683,84.967 64.675,84.417 64.659 C 83.867 64.643,83.141 64.683,82.804 64.749 C 82.443 64.818,81.942 64.785,81.589 64.668 C 81.127 64.516,80.932 64.516,80.751 64.666 C 80.582 64.806,79.953 64.832,78.549 64.754 C 77.468 64.695,75.083 64.655,73.250 64.666 C 69.642 64.688,67.813 64.692,66.250 64.682 C 65.700 64.679,64.050 64.678,62.583 64.680 C 61.117 64.682,59.204 64.679,58.333 64.673 C 57.462 64.667,56.112 64.664,55.333 64.668 C 54.554 64.671,52.529 64.628,50.833 64.573 C 48.636 64.501,47.498 64.532,46.873 64.680 C 46.210 64.837,45.846 64.842,45.389 64.702 C 44.993 64.580,44.679 64.571,44.485 64.675 C 44.296 64.776,44.151 64.776,44.089 64.676 C 44.029 64.579,42.422 64.549,39.954 64.599 C 35.962 64.680,33.352 64.696,28.000 64.675 C 24.675 64.662,23.980 64.661,21.833 64.667 C 20.917 64.670,19.510 64.671,18.708 64.670 C 17.906 64.670,16.800 64.675,16.250 64.682 C 12.660 64.730,10.112 64.696,9.230 64.588 C 8.515 64.500,8.173 64.521,8.090 64.656 C 8.002 64.798,7.911 64.800,7.748 64.665 C 7.569 64.516,4.248 64.508,3.083 64.653 C 2.992 64.665,2.542 64.641,2.083 64.599 C 1.625 64.558,0.969 64.607,0.625 64.708 " stroke="none" fill="#943259" fill-rule="evenodd"></path><path id="path3" d="M2.833 9.436 C 2.696 9.460,2.002 9.529,1.292 9.588 L 0.000 9.695 0.000 13.609 L 0.000 17.524 3.708 17.416 C 5.748 17.357,8.242 17.316,9.250 17.325 C 10.258 17.334,12.508 17.332,14.250 17.320 C 19.524 17.283,24.101 17.301,25.083 17.361 C 25.450 17.384,26.519 17.387,27.458 17.368 C 31.613 17.286,32.398 17.283,34.917 17.338 C 36.383 17.369,38.671 17.387,40.000 17.376 C 43.083 17.352,44.787 17.349,46.250 17.367 C 48.459 17.393,59.252 17.379,60.583 17.349 C 61.317 17.332,62.142 17.333,62.417 17.351 C 62.692 17.369,63.479 17.383,64.167 17.382 C 64.854 17.381,66.054 17.383,66.833 17.388 C 67.612 17.392,68.737 17.376,69.333 17.354 C 70.291 17.317,72.738 17.310,74.542 17.338 C 75.393 17.352,77.421 17.356,78.833 17.347 C 79.475 17.343,80.244 17.350,80.542 17.363 C 80.840 17.377,81.646 17.382,82.333 17.375 C 83.659 17.361,87.245 17.315,88.500 17.296 C 88.912 17.290,89.625 17.304,90.083 17.328 C 91.032 17.378,92.836 17.405,94.667 17.396 C 95.354 17.393,96.704 17.390,97.667 17.389 C 100.456 17.385,109.035 17.358,109.583 17.351 C 110.503 17.338,120.074 17.349,120.750 17.363 C 121.837 17.386,128.270 17.404,130.250 17.389 C 131.258 17.382,135.346 17.380,139.333 17.385 C 143.321 17.390,146.883 17.384,147.250 17.372 C 148.056 17.345,148.978 17.335,149.708 17.344 C 151.833 17.371,162.767 17.383,164.250 17.359 C 166.554 17.323,175.718 17.315,176.500 17.349 C 176.821 17.362,178.733 17.376,180.750 17.379 C 182.767 17.381,185.242 17.385,186.250 17.386 C 187.258 17.388,188.683 17.360,189.417 17.325 C 190.751 17.261,191.523 17.264,193.083 17.338 C 193.542 17.360,194.198 17.374,194.542 17.369 C 195.211 17.359,198.317 17.354,199.417 17.360 C 199.783 17.363,200.833 17.371,201.750 17.378 C 202.667 17.386,203.717 17.389,204.083 17.386 C 204.976 17.377,207.014 17.379,209.250 17.391 C 210.258 17.397,212.171 17.389,213.500 17.374 C 214.829 17.359,216.160 17.351,216.458 17.357 C 216.756 17.362,217.262 17.362,217.583 17.356 C 217.904 17.350,218.485 17.354,218.875 17.364 C 219.265 17.374,221.758 17.377,224.417 17.371 C 227.075 17.364,230.075 17.369,231.083 17.382 C 232.092 17.394,234.079 17.378,235.500 17.346 C 236.921 17.315,238.533 17.309,239.083 17.333 C 240.366 17.389,244.077 17.412,247.167 17.382 C 252.663 17.330,257.483 17.314,258.500 17.345 C 259.856 17.386,261.545 17.396,262.417 17.369 C 263.799 17.326,271.798 17.307,272.917 17.345 C 273.890 17.377,276.264 17.393,279.458 17.389 C 279.802 17.388,289.946 17.379,302.000 17.368 C 314.054 17.357,324.667 17.345,325.583 17.341 C 327.514 17.333,328.150 17.339,329.750 17.384 C 330.392 17.402,331.854 17.399,333.000 17.377 C 334.146 17.355,335.833 17.347,336.750 17.361 C 337.667 17.374,338.754 17.361,339.167 17.331 C 339.579 17.301,340.367 17.291,340.917 17.309 C 341.467 17.326,343.829 17.347,346.167 17.354 C 348.504 17.361,350.660 17.373,350.958 17.380 C 351.256 17.387,353.150 17.384,355.167 17.373 C 359.170 17.352,359.656 17.352,364.875 17.359 C 366.823 17.362,369.429 17.346,370.667 17.324 C 371.904 17.302,373.817 17.303,374.917 17.325 C 376.017 17.346,377.179 17.362,377.500 17.360 C 383.955 17.312,383.753 17.312,392.542 17.386 L 400.000 17.449 400.000 13.490 L 400.000 9.531 399.086 9.474 C 398.583 9.442,397.927 9.471,397.627 9.537 C 397.328 9.603,396.686 9.578,396.201 9.482 C 395.566 9.356,394.898 9.362,393.813 9.503 C 392.984 9.610,392.044 9.649,391.723 9.589 C 391.403 9.529,389.815 9.497,388.195 9.518 C 384.775 9.562,383.658 9.559,382.167 9.501 C 380.512 9.436,379.067 9.440,377.417 9.512 C 376.592 9.548,375.017 9.562,373.917 9.543 C 372.817 9.524,371.167 9.517,370.250 9.527 C 365.500 9.580,358.813 9.553,352.083 9.453 C 350.892 9.436,349.017 9.432,347.917 9.445 C 346.817 9.458,344.079 9.475,341.833 9.482 C 337.664 9.495,336.614 9.503,335.000 9.539 C 334.496 9.550,332.621 9.552,330.833 9.543 C 329.046 9.534,327.246 9.534,326.833 9.543 C 325.510 9.573,322.274 9.535,321.500 9.481 C 321.087 9.452,320.112 9.445,319.333 9.465 C 318.554 9.486,316.642 9.491,315.083 9.478 C 313.525 9.464,311.350 9.457,310.250 9.461 C 309.150 9.466,304.650 9.472,300.250 9.476 C 295.850 9.479,290.525 9.499,288.417 9.520 C 286.308 9.540,283.608 9.557,282.417 9.556 C 281.225 9.554,279.462 9.558,278.500 9.564 C 277.537 9.570,275.737 9.550,274.500 9.519 C 273.262 9.488,271.912 9.466,271.500 9.470 C 271.087 9.475,266.512 9.487,261.333 9.497 C 256.154 9.507,251.654 9.527,251.333 9.540 C 250.714 9.566,243.548 9.581,240.750 9.563 C 238.889 9.551,235.484 9.546,233.833 9.552 C 233.237 9.555,232.487 9.552,232.167 9.545 C 231.846 9.539,230.871 9.542,230.000 9.553 C 229.129 9.564,227.629 9.562,226.667 9.547 C 225.190 9.526,217.865 9.527,216.250 9.549 C 215.975 9.553,214.700 9.548,213.417 9.538 C 212.133 9.528,208.871 9.533,206.167 9.549 C 203.463 9.565,200.762 9.564,200.167 9.547 C 198.897 9.510,185.523 9.512,184.667 9.549 C 183.865 9.583,175.904 9.563,173.250 9.520 C 170.933 9.483,170.418 9.483,168.083 9.526 C 167.258 9.541,161.783 9.548,155.917 9.540 C 150.050 9.533,145.025 9.537,144.750 9.549 C 144.475 9.561,142.225 9.545,139.750 9.514 C 137.275 9.483,134.500 9.474,133.583 9.495 C 132.003 9.531,129.564 9.556,127.917 9.554 C 127.504 9.553,126.548 9.560,125.792 9.568 C 125.035 9.576,122.054 9.553,119.167 9.517 C 116.279 9.480,112.192 9.476,110.083 9.506 C 106.532 9.558,105.186 9.566,102.333 9.549 C 99.133 9.530,91.949 9.532,88.667 9.552 C 86.604 9.564,84.729 9.557,84.500 9.535 C 83.460 9.437,77.344 9.398,76.167 9.482 C 75.364 9.539,67.170 9.532,63.583 9.472 C 62.392 9.452,61.060 9.443,60.625 9.453 C 60.190 9.462,59.365 9.468,58.792 9.465 C 58.219 9.461,57.262 9.478,56.667 9.501 C 55.458 9.548,53.885 9.566,53.000 9.545 C 51.526 9.508,50.603 9.506,48.667 9.536 C 47.521 9.554,46.208 9.563,45.750 9.558 C 44.214 9.539,36.613 9.531,33.833 9.545 C 32.321 9.552,30.221 9.532,29.167 9.500 C 28.113 9.468,25.000 9.464,22.250 9.491 C 19.500 9.519,15.375 9.528,13.083 9.513 C 10.792 9.497,7.648 9.484,6.098 9.485 C 4.548 9.486,3.236 9.465,3.182 9.439 C 3.128 9.413,2.971 9.412,2.833 9.436 M0.000 57.871 L 0.000 61.952 200.000 61.948 L 400.000 61.944 400.000 57.880 L 400.000 53.817 395.792 53.902 C 393.477 53.949,391.302 53.995,390.958 54.003 C 390.615 54.012,390.071 54.020,389.750 54.020 C 389.429 54.020,388.867 54.021,388.500 54.022 C 388.133 54.024,387.608 54.025,387.333 54.024 C 387.058 54.023,386.590 54.024,386.292 54.026 C 385.575 54.031,384.597 54.022,383.625 54.001 C 381.838 53.962,378.540 53.963,377.917 54.002 C 377.550 54.025,376.800 53.988,376.249 53.919 C 375.522 53.828,375.090 53.860,374.666 54.033 C 374.209 54.220,373.707 54.243,372.333 54.139 C 371.371 54.067,370.433 54.013,370.250 54.021 C 370.067 54.029,369.242 54.023,368.417 54.009 C 365.940 53.966,362.668 53.946,361.250 53.966 C 360.517 53.977,358.004 53.987,355.667 53.989 C 353.329 53.992,350.873 54.003,350.208 54.015 C 348.424 54.047,348.364 54.047,343.083 54.011 C 342.488 54.007,341.681 54.010,341.292 54.019 C 340.902 54.027,340.358 54.021,340.083 54.005 C 339.446 53.968,338.464 53.957,337.042 53.972 C 336.423 53.978,335.542 53.978,335.083 53.970 C 334.625 53.962,333.500 53.970,332.583 53.986 C 330.794 54.018,326.540 54.045,325.583 54.031 C 324.251 54.011,323.388 54.010,322.917 54.026 C 322.491 54.041,320.987 54.038,319.417 54.019 C 319.188 54.016,318.681 54.018,318.292 54.024 C 317.902 54.029,317.358 54.026,317.083 54.016 C 314.935 53.937,311.481 53.934,307.750 54.006 C 306.831 54.024,305.347 54.027,301.833 54.019 C 301.100 54.017,299.994 54.016,299.375 54.016 C 297.616 54.017,296.040 54.007,294.500 53.986 C 292.907 53.963,286.860 53.957,285.583 53.976 C 285.125 53.983,283.775 53.987,282.583 53.985 C 281.392 53.983,279.779 53.995,279.000 54.012 C 277.583 54.042,277.154 54.042,275.750 54.011 C 275.337 54.002,274.569 53.985,274.042 53.974 C 273.515 53.962,272.783 53.969,272.417 53.990 C 271.606 54.035,270.289 54.035,269.500 53.991 C 268.955 53.961,266.747 53.967,264.833 54.005 C 263.931 54.023,263.680 54.022,262.417 53.989 C 261.354 53.962,259.958 53.967,259.000 54.003 C 258.036 54.038,257.288 54.039,256.250 54.006 C 255.792 53.992,255.023 53.982,254.542 53.984 C 254.060 53.986,253.254 53.985,252.750 53.981 C 250.831 53.966,246.365 53.978,245.167 54.001 C 244.479 54.015,243.354 54.022,242.667 54.016 C 241.979 54.011,240.854 54.016,240.167 54.028 C 239.479 54.040,238.654 54.043,238.333 54.035 C 237.784 54.022,237.044 54.020,235.792 54.029 C 235.494 54.031,234.875 54.019,234.417 54.002 C 233.036 53.951,230.626 53.943,229.917 53.988 C 229.335 54.024,225.896 54.021,223.667 53.983 C 223.254 53.975,220.779 53.978,218.167 53.988 C 215.554 53.998,213.042 53.998,212.583 53.987 C 212.125 53.977,211.338 53.973,210.833 53.978 C 210.329 53.983,209.542 53.982,209.083 53.976 C 208.625 53.971,207.781 53.965,207.208 53.963 C 206.635 53.962,205.867 53.957,205.500 53.953 C 204.915 53.947,199.366 53.966,195.250 53.989 C 194.471 53.994,193.402 53.992,192.875 53.986 C 191.954 53.975,191.561 53.981,189.167 54.040 C 187.479 54.082,184.876 54.057,183.500 53.985 C 183.088 53.964,181.737 53.952,180.500 53.958 C 179.262 53.965,177.912 53.969,177.500 53.967 C 176.429 53.962,175.050 53.975,174.083 53.999 C 173.625 54.010,173.063 54.007,172.833 53.991 C 172.604 53.976,171.704 54.049,170.833 54.153 C 169.463 54.317,169.154 54.306,168.534 54.072 C 167.945 53.848,167.430 53.819,165.618 53.904 C 164.407 53.962,163.154 53.999,162.833 53.987 C 161.986 53.955,160.353 53.964,159.583 54.005 C 159.217 54.024,158.654 54.035,158.333 54.029 C 156.115 53.988,149.740 53.988,148.417 54.030 C 148.050 54.041,147.188 54.034,146.500 54.013 C 145.813 53.992,144.781 53.976,144.208 53.977 C 143.635 53.978,142.829 53.977,142.417 53.974 C 142.004 53.972,140.692 53.971,139.500 53.973 C 138.308 53.974,136.921 53.975,136.417 53.974 C 130.204 53.961,127.563 53.966,125.917 53.995 C 124.685 54.017,122.673 54.037,121.833 54.036 C 121.558 54.036,120.827 54.038,120.208 54.040 C 119.590 54.042,118.783 54.041,118.417 54.038 C 118.050 54.035,116.888 54.031,115.833 54.029 C 114.779 54.027,113.467 54.009,112.917 53.989 C 112.367 53.969,111.504 54.038,111.000 54.143 C 110.305 54.287,109.781 54.285,108.833 54.134 C 108.146 54.024,107.152 53.950,106.625 53.969 C 104.531 54.045,103.227 54.059,102.750 54.012 C 102.475 53.984,101.746 54.056,101.130 54.171 C 100.229 54.340,99.805 54.340,98.963 54.170 C 98.388 54.054,97.467 53.971,96.917 53.986 C 96.367 54.000,95.279 54.003,94.500 53.993 C 92.557 53.966,88.890 53.986,87.750 54.030 C 87.475 54.040,86.406 54.040,85.375 54.029 C 82.428 53.998,81.568 53.994,78.792 53.998 C 78.219 53.999,77.375 53.992,76.917 53.982 C 76.144 53.966,71.865 53.965,69.750 53.980 C 69.246 53.984,68.402 53.982,67.875 53.976 C 67.348 53.971,66.654 53.981,66.333 53.999 C 65.670 54.036,64.598 54.032,63.500 53.989 C 62.741 53.959,55.533 53.966,54.000 53.998 C 53.542 54.008,52.998 54.008,52.792 53.999 C 52.585 53.990,51.671 54.054,50.761 54.141 C 49.623 54.250,48.789 54.242,48.094 54.116 C 47.538 54.016,46.333 53.952,45.417 53.973 C 43.897 54.010,40.869 54.041,39.417 54.035 C 37.289 54.026,36.028 54.026,35.667 54.035 C 35.438 54.041,34.875 54.027,34.417 54.003 C 33.659 53.964,30.899 53.968,22.458 54.023 C 19.482 54.042,18.960 54.039,17.583 54.002 C 16.233 53.965,11.267 53.961,10.500 53.996 C 9.381 54.047,7.009 54.053,3.833 54.011 C 3.146 54.002,2.283 54.007,1.917 54.022 C 1.550 54.038,0.969 53.991,0.625 53.920 L 0.000 53.790 0.000 57.871 " stroke="none" fill="#973c6c" fill-rule="evenodd"></path></g></svg>