<svg id="svg" xmlns="http://www.w3.org/2000/svg" xmlns:xlink="http://www.w3.org/1999/xlink" width="400" height="70" viewBox="0, 0, 400,70"><g id="svgg"><path id="path0" d="M98.833 2.995 C 36.694 3.206,26.600 3.388,24.848 4.326 C 24.669 4.422,24.288 4.500,24.003 4.500 C 23.717 4.500,23.281 4.602,23.033 4.727 C 22.786 4.852,22.064 5.005,21.430 5.068 C 20.796 5.131,20.170 5.241,20.040 5.314 C 19.594 5.564,81.195 5.682,208.701 5.678 C 306.030 5.675,336.180 5.720,336.272 5.869 C 336.576 6.360,336.432 64.010,336.126 64.287 C 335.862 64.525,332.740 64.539,302.543 64.433 C 234.221 64.194,18.158 64.388,18.968 64.687 C 19.390 64.844,21.661 65.294,22.941 65.476 C 23.413 65.542,23.900 65.681,24.024 65.784 C 24.834 66.453,28.469 66.579,54.583 66.838 C 99.344 67.283,338.795 67.191,339.947 66.729 C 340.277 66.597,341.101 65.881,344.338 62.917 C 347.356 60.152,348.379 59.239,348.586 59.122 C 348.711 59.052,349.032 58.790,349.299 58.539 C 349.567 58.288,350.024 57.896,350.316 57.667 C 350.607 57.438,351.030 57.071,351.255 56.852 C 351.556 56.559,351.861 56.450,352.400 56.441 C 352.950 56.433,353.075 56.386,352.897 56.256 C 352.715 56.123,352.774 56.087,353.156 56.098 C 353.428 56.106,353.781 56.218,353.940 56.348 C 354.197 56.557,354.217 56.550,354.116 56.283 C 354.047 56.098,354.069 56.023,354.173 56.087 C 354.266 56.145,354.472 56.039,354.630 55.852 C 354.817 55.631,355.174 55.491,355.654 55.450 C 356.269 55.398,356.396 55.327,356.418 55.027 C 356.451 54.579,356.507 54.522,356.996 54.448 C 357.256 54.408,357.408 54.256,357.448 53.996 C 357.521 53.513,357.513 53.521,358.010 53.445 C 358.234 53.411,358.426 53.297,358.438 53.192 C 358.449 53.086,358.468 52.892,358.479 52.761 C 358.491 52.630,358.706 52.498,358.958 52.469 C 359.315 52.428,359.428 52.318,359.468 51.968 C 359.508 51.622,359.622 51.508,359.968 51.468 C 360.315 51.428,360.428 51.315,360.468 50.968 C 360.508 50.622,360.622 50.508,360.968 50.468 C 361.315 50.428,361.428 50.315,361.468 49.968 C 361.508 49.622,361.622 49.508,361.968 49.468 C 362.315 49.428,362.428 49.315,362.468 48.968 C 362.508 48.622,362.622 48.508,362.968 48.468 C 363.315 48.428,363.428 48.315,363.468 47.968 C 363.508 47.622,363.622 47.508,363.968 47.468 C 364.315 47.428,364.428 47.315,364.468 46.968 C 364.508 46.622,364.622 46.508,364.968 46.468 C 365.315 46.428,365.428 46.315,365.468 45.968 C 365.508 45.622,365.622 45.508,365.968 45.468 C 366.315 45.428,366.428 45.315,366.468 44.968 C 366.508 44.622,366.622 44.508,366.968 44.468 C 367.315 44.428,367.428 44.315,367.468 43.968 C 367.508 43.622,367.622 43.508,367.968 43.468 C 368.318 43.428,368.428 43.315,368.469 42.958 C 368.514 42.574,368.602 42.500,369.011 42.500 C 369.443 42.500,369.500 42.442,369.500 42.000 C 369.500 41.556,369.556 41.500,370.000 41.500 C 370.444 41.500,370.500 41.444,370.500 41.000 C 370.500 40.556,370.556 40.500,371.000 40.500 C 371.444 40.500,371.500 40.444,371.500 40.000 C 371.500 39.556,371.556 39.500,372.000 39.500 C 372.444 39.500,372.500 39.444,372.500 39.000 C 372.500 38.556,372.556 38.500,373.000 38.500 C 373.444 38.500,373.500 38.444,373.500 38.000 C 373.500 37.556,373.556 37.500,374.000 37.500 C 374.444 37.500,374.500 37.444,374.500 37.000 C 374.500 36.556,374.556 36.500,375.000 36.500 C 375.444 36.500,375.500 36.444,375.500 36.000 C 375.500 35.556,375.556 35.500,376.000 35.500 C 376.444 35.500,376.500 35.444,376.500 35.000 C 376.500 34.556,376.556 34.500,377.000 34.500 C 377.444 34.500,377.500 34.444,377.500 34.000 C 377.500 33.556,377.556 33.500,378.000 33.500 C 378.444 33.500,378.500 33.444,378.500 33.000 C 378.500 32.556,378.556 32.500,379.000 32.500 C 379.444 32.500,379.500 32.444,379.500 32.000 C 379.500 31.556,379.556 31.500,380.000 31.500 C 380.444 31.500,380.500 31.444,380.500 31.000 C 380.500 30.556,380.556 30.500,381.000 30.500 C 381.444 30.500,381.500 30.444,381.500 30.000 C 381.500 29.556,381.556 29.500,382.000 29.500 C 382.442 29.500,382.500 29.443,382.500 29.011 C 382.500 28.602,382.574 28.514,382.958 28.469 C 383.315 28.428,383.428 28.318,383.468 27.968 C 383.508 27.622,383.622 27.508,383.968 27.468 C 384.315 27.428,384.428 27.315,384.468 26.968 C 384.508 26.622,384.622 26.508,384.968 26.468 C 385.315 26.428,385.428 26.315,385.468 25.968 C 385.508 25.622,385.622 25.508,385.968 25.468 C 386.315 25.428,386.428 25.315,386.468 24.968 C 386.508 24.622,386.622 24.508,386.968 24.468 C 387.315 24.428,387.428 24.315,387.468 23.968 C 387.508 23.622,387.622 23.508,387.968 23.468 C 388.315 23.428,388.428 23.315,388.468 22.968 C 388.508 22.622,388.622 22.508,388.968 22.468 C 389.315 22.428,389.428 22.315,389.468 21.968 C 389.508 21.622,389.622 21.508,389.968 21.468 C 390.315 21.428,390.428 21.315,390.468 20.968 C 390.508 20.622,390.622 20.508,390.968 20.468 C 391.318 20.428,391.428 20.315,391.469 19.958 C 391.498 19.706,391.630 19.491,391.761 19.479 C 391.892 19.468,392.086 19.449,392.192 19.438 C 392.297 19.426,392.411 19.234,392.445 19.010 C 392.521 18.513,392.513 18.521,392.996 18.448 C 393.256 18.408,393.408 18.256,393.448 17.996 C 393.521 17.515,393.515 17.521,393.996 17.448 C 394.256 17.408,394.408 17.256,394.448 16.996 C 394.522 16.507,394.579 16.451,395.029 16.418 C 395.485 16.384,395.575 15.724,395.188 15.253 C 394.934 14.943,394.935 14.936,395.208 15.148 C 395.458 15.342,395.500 15.337,395.500 15.114 C 395.500 14.970,395.587 14.799,395.692 14.734 C 395.820 14.655,395.839 14.689,395.750 14.833 C 395.663 14.975,395.680 15.011,395.800 14.937 C 395.902 14.874,395.938 14.700,395.881 14.551 C 395.812 14.370,395.842 14.319,395.970 14.398 C 396.095 14.476,396.129 14.428,396.065 14.263 C 395.979 14.039,395.938 14.038,395.722 14.254 C 395.417 14.559,395.412 14.559,394.911 14.231 C 394.525 13.978,394.499 13.981,394.486 14.272 C 394.476 14.472,394.421 14.416,394.330 14.114 C 394.196 13.666,394.660 12.732,395.436 11.890 C 395.538 11.779,395.857 11.200,396.144 10.605 C 396.966 8.901,396.633 8.500,394.396 8.500 C 393.903 8.500,393.500 8.433,393.500 8.351 C 393.500 8.141,393.071 7.995,391.917 7.810 C 389.569 7.435,389.023 7.339,387.917 7.109 C 387.275 6.975,386.300 6.778,385.750 6.670 C 385.200 6.563,384.525 6.399,384.250 6.307 C 383.368 6.012,381.943 5.659,381.000 5.504 C 378.948 5.165,377.363 4.820,376.417 4.507 C 374.080 3.734,372.994 3.619,366.750 3.485 C 345.072 3.021,180.142 2.720,98.833 2.995 M352.888 5.140 C 353.171 5.406,353.578 5.549,354.242 5.618 C 354.979 5.694,355.246 5.800,355.438 6.092 C 355.573 6.299,355.875 6.516,356.108 6.575 C 356.342 6.633,356.976 7.133,357.518 7.685 C 358.534 8.720,358.513 8.716,358.756 7.888 C 358.787 7.780,358.983 7.668,359.191 7.638 C 359.434 7.603,359.605 7.434,359.667 7.168 C 359.722 6.934,359.908 6.725,360.091 6.691 C 360.270 6.657,360.604 6.413,360.833 6.148 C 361.196 5.728,361.402 5.652,362.428 5.562 C 363.413 5.475,363.631 5.400,363.761 5.104 C 364.025 4.503,366.922 4.480,367.194 5.077 C 367.359 5.440,367.495 5.500,368.152 5.502 C 369.492 5.505,370.182 5.684,370.360 6.076 C 370.464 6.304,370.788 6.508,371.239 6.628 C 371.680 6.746,372.059 6.981,372.230 7.243 C 372.383 7.476,372.617 7.667,372.750 7.667 C 372.883 7.667,373.108 7.892,373.250 8.167 C 373.392 8.442,373.583 8.667,373.673 8.667 C 373.940 8.667,374.499 9.710,374.499 10.208 C 374.500 10.486,374.590 10.667,374.730 10.667 C 375.116 10.667,375.340 11.089,375.450 12.024 C 375.507 12.515,375.706 13.122,375.890 13.373 C 376.527 14.237,376.440 17.705,375.762 18.500 C 375.645 18.637,375.462 19.199,375.355 19.748 C 375.224 20.427,375.030 20.867,374.748 21.129 C 374.520 21.341,374.333 21.606,374.333 21.720 C 374.333 22.249,371.249 25.972,370.605 26.219 C 370.438 26.283,370.261 26.490,370.211 26.680 C 370.162 26.870,369.943 27.093,369.724 27.176 C 369.506 27.259,369.256 27.516,369.168 27.747 C 369.080 27.978,368.913 28.167,368.798 28.167 C 368.682 28.167,368.374 28.373,368.113 28.625 C 367.852 28.877,367.439 29.275,367.194 29.510 C 366.950 29.745,366.489 30.083,366.170 30.260 C 365.851 30.438,365.452 30.752,365.283 30.958 C 365.114 31.165,364.908 31.333,364.825 31.333 C 364.742 31.333,364.256 31.727,363.745 32.208 C 363.234 32.690,362.576 33.286,362.283 33.533 C 361.990 33.780,361.396 34.281,360.963 34.645 C 360.530 35.010,360.031 35.354,359.853 35.410 C 359.676 35.467,359.488 35.623,359.436 35.759 C 359.161 36.476,357.590 36.371,356.979 35.594 C 356.794 35.359,356.550 35.167,356.436 35.167 C 356.322 35.167,356.063 34.942,355.860 34.667 C 355.656 34.392,355.410 34.167,355.312 34.167 C 355.214 34.167,354.920 33.960,354.659 33.708 C 353.847 32.925,353.448 32.595,352.895 32.250 C 352.602 32.067,351.962 31.566,351.473 31.136 C 350.983 30.707,350.152 30.004,349.625 29.574 C 349.098 29.144,348.667 28.729,348.667 28.651 C 348.667 28.572,348.442 28.392,348.167 28.250 C 347.892 28.108,347.667 27.899,347.667 27.786 C 347.667 27.674,347.445 27.483,347.175 27.364 C 346.904 27.244,346.636 27.000,346.580 26.823 C 346.524 26.645,346.372 26.500,346.243 26.500 C 346.113 26.500,345.875 26.294,345.713 26.042 C 345.551 25.790,345.249 25.447,345.043 25.280 C 344.836 25.113,344.667 24.883,344.667 24.769 C 344.667 24.656,344.442 24.396,344.167 24.193 C 343.892 23.990,343.667 23.716,343.667 23.584 C 343.667 23.453,343.512 23.262,343.322 23.161 C 343.133 23.059,342.836 22.644,342.662 22.238 C 342.488 21.832,342.280 21.500,342.199 21.500 C 341.996 21.500,341.667 20.731,341.667 20.255 C 341.667 20.037,341.460 19.614,341.208 19.315 C 340.293 18.228,340.458 13.018,341.438 12.038 C 341.564 11.912,341.667 11.563,341.667 11.262 C 341.667 10.910,341.815 10.555,342.084 10.265 C 342.313 10.018,342.619 9.586,342.765 9.305 C 342.910 9.024,343.156 8.761,343.313 8.720 C 343.469 8.680,343.669 8.482,343.757 8.281 C 343.845 8.081,344.081 7.844,344.283 7.756 C 344.484 7.668,344.742 7.422,344.855 7.209 C 344.988 6.961,345.318 6.758,345.776 6.643 C 346.225 6.530,346.526 6.347,346.589 6.149 C 346.701 5.797,346.932 5.729,348.530 5.580 C 349.478 5.491,349.685 5.413,349.921 5.053 C 350.302 4.471,352.237 4.528,352.888 5.140 M4.002 8.649 C 3.559 8.772,3.558 8.774,3.097 11.341 C 2.973 12.033,2.782 13.027,2.674 13.550 L 2.476 14.500 1.238 14.500 L 0.000 14.500 0.000 35.326 L 0.000 56.153 1.289 56.201 L 2.578 56.250 3.089 58.903 C 3.647 61.800,3.646 61.798,4.848 61.822 L 5.446 61.833 5.556 55.806 C 5.699 48.036,5.698 21.972,5.556 14.375 L 5.446 8.500 4.931 8.517 C 4.648 8.526,4.230 8.585,4.002 8.649 M344.333 13.083 C 344.219 13.221,343.993 13.333,343.830 13.333 C 343.190 13.333,343.181 18.875,343.820 19.581 C 343.987 19.766,344.168 20.110,344.224 20.346 C 344.280 20.583,344.501 20.966,344.716 21.197 C 344.931 21.429,345.204 21.855,345.323 22.143 C 345.443 22.431,345.647 22.667,345.778 22.667 C 345.909 22.667,346.143 22.891,346.299 23.166 C 346.456 23.440,346.675 23.665,346.787 23.666 C 346.900 23.666,347.108 23.892,347.250 24.167 C 347.392 24.442,347.585 24.667,347.679 24.667 C 347.772 24.667,348.017 24.836,348.224 25.042 C 348.430 25.249,348.802 25.550,349.050 25.713 C 349.297 25.875,349.500 26.118,349.500 26.254 C 349.500 26.389,349.617 26.500,349.759 26.500 C 349.902 26.500,350.221 26.716,350.468 26.979 C 350.715 27.243,351.198 27.549,351.543 27.659 C 351.887 27.770,352.243 27.998,352.333 28.166 C 352.423 28.335,352.723 28.522,352.999 28.583 C 353.274 28.644,353.500 28.762,353.500 28.847 C 353.500 29.134,363.317 29.041,363.607 28.750 C 363.745 28.613,363.990 28.500,364.152 28.500 C 364.314 28.500,364.532 28.313,364.636 28.083 C 364.752 27.830,364.964 27.667,365.179 27.667 C 365.387 27.667,365.566 27.535,365.615 27.344 C 365.662 27.167,365.950 26.903,366.256 26.758 C 366.840 26.481,367.626 25.833,369.146 24.375 C 369.648 23.894,370.114 23.500,370.180 23.500 C 370.247 23.500,370.499 23.162,370.741 22.750 C 370.983 22.337,371.251 22.000,371.337 22.000 C 371.423 22.000,371.642 21.709,371.823 21.354 C 372.004 20.999,372.268 20.663,372.410 20.609 C 372.559 20.552,372.667 20.309,372.667 20.029 C 372.667 19.764,372.892 19.125,373.167 18.610 C 373.877 17.279,373.868 14.306,373.153 14.079 C 372.986 14.026,372.755 13.724,372.641 13.408 L 372.433 12.833 365.987 12.833 C 360.460 12.833,359.511 12.869,359.333 13.083 C 359.068 13.403,358.160 13.406,357.740 13.089 C 357.250 12.718,344.641 12.713,344.333 13.083 M395.021 14.615 C 395.152 14.776,395.165 14.847,395.053 14.779 C 394.945 14.714,394.809 14.739,394.750 14.833 C 394.691 14.928,394.575 14.963,394.490 14.911 C 394.403 14.857,394.426 14.714,394.543 14.581 C 394.801 14.288,394.753 14.285,395.021 14.615 M396.167 14.917 C 396.167 15.054,396.054 15.167,395.917 15.167 C 395.779 15.167,395.667 15.229,395.667 15.305 C 395.667 15.642,396.392 15.374,396.418 15.029 C 396.432 14.830,396.382 14.667,396.305 14.667 C 396.229 14.667,396.167 14.779,396.167 14.917 M355.167 55.917 C 355.167 56.054,355.054 56.167,354.917 56.167 C 354.779 56.167,354.667 56.229,354.667 56.305 C 354.667 56.382,354.830 56.432,355.029 56.418 C 355.374 56.392,355.642 55.667,355.305 55.667 C 355.229 55.667,355.167 55.779,355.167 55.917 " stroke="none" fill="#c6f1ef" fill-rule="evenodd"></path><path id="path1" d="M0.000 7.250 L 0.000 14.500 1.238 14.500 L 2.476 14.500 2.674 13.550 C 2.782 13.027,2.973 12.033,3.097 11.341 C 3.613 8.472,3.555 8.560,4.955 8.517 L 5.494 8.500 5.542 12.458 L 5.590 16.417 5.628 11.404 C 5.667 6.403,5.668 6.391,6.052 6.029 L 6.438 5.667 31.511 5.626 L 56.583 5.586 38.167 5.501 C 28.037 5.455,19.882 5.362,20.044 5.296 C 20.205 5.230,20.843 5.126,21.460 5.065 C 22.078 5.004,22.786 4.852,23.033 4.727 C 23.281 4.602,23.717 4.500,24.003 4.500 C 24.288 4.500,24.670 4.421,24.852 4.323 C 26.230 3.586,27.102 3.536,42.000 3.344 C 95.350 2.658,332.953 2.763,366.833 3.487 C 372.990 3.618,374.083 3.735,376.417 4.507 C 377.363 4.820,378.948 5.165,381.000 5.504 C 381.943 5.659,383.368 6.012,384.250 6.307 C 384.525 6.399,385.200 6.563,385.750 6.670 C 386.300 6.778,387.275 6.975,387.917 7.109 C 389.023 7.339,389.569 7.435,391.917 7.810 C 393.071 7.995,393.500 8.141,393.500 8.351 C 393.500 8.433,393.903 8.500,394.396 8.500 C 396.633 8.500,396.966 8.901,396.144 10.605 C 395.857 11.200,395.538 11.779,395.436 11.890 C 394.660 12.732,394.196 13.666,394.330 14.114 C 394.421 14.416,394.476 14.472,394.486 14.272 C 394.499 13.981,394.525 13.978,394.911 14.231 C 395.412 14.559,395.417 14.559,395.722 14.254 C 395.938 14.038,395.979 14.039,396.065 14.263 C 396.129 14.428,396.095 14.476,395.970 14.398 C 395.842 14.319,395.812 14.370,395.881 14.551 C 395.938 14.700,395.902 14.874,395.800 14.937 C 395.680 15.011,395.663 14.975,395.750 14.833 C 395.839 14.689,395.820 14.655,395.692 14.734 C 395.587 14.799,395.500 14.970,395.500 15.114 C 395.500 15.334,395.455 15.341,395.208 15.155 C 394.974 14.978,394.978 14.999,395.228 15.259 C 395.450 15.489,395.562 15.523,395.617 15.375 C 395.660 15.260,395.801 15.167,395.931 15.167 C 396.060 15.167,396.167 15.092,396.167 15.000 C 396.167 14.717,396.805 14.164,396.878 14.384 C 396.922 14.515,397.045 14.479,397.249 14.275 C 397.497 14.027,397.512 13.944,397.327 13.830 C 397.163 13.728,397.234 13.656,397.590 13.567 C 398.166 13.422,398.500 13.127,398.500 12.762 C 398.500 12.582,398.657 12.500,399.000 12.500 C 399.444 12.500,399.500 12.444,399.500 12.000 C 399.500 11.667,399.583 11.500,399.750 11.500 C 399.967 11.500,400.000 10.750,400.000 5.750 L 400.000 0.000 200.000 0.000 L 0.000 0.000 0.000 7.250 M349.921 5.053 C 349.685 5.413,349.478 5.491,348.530 5.580 C 346.932 5.729,346.701 5.797,346.589 6.149 C 346.526 6.347,346.225 6.530,345.776 6.643 C 345.318 6.758,344.988 6.961,344.855 7.209 C 344.742 7.422,344.484 7.668,344.283 7.756 C 344.081 7.844,343.845 8.081,343.757 8.281 C 343.669 8.482,343.469 8.680,343.313 8.720 C 343.156 8.761,342.910 9.024,342.765 9.305 C 342.619 9.586,342.313 10.018,342.084 10.265 C 341.816 10.554,341.670 10.901,341.677 11.233 C 341.687 11.697,341.703 11.713,341.834 11.388 C 342.408 9.964,345.646 6.667,346.471 6.667 C 346.612 6.667,346.896 6.510,347.100 6.318 C 348.288 5.202,355.167 5.361,355.167 6.504 C 355.167 6.594,355.310 6.667,355.485 6.667 C 355.660 6.667,355.981 6.877,356.197 7.134 C 356.414 7.391,356.721 7.652,356.880 7.713 C 357.039 7.774,357.249 7.999,357.347 8.213 C 357.578 8.721,358.513 9.101,358.702 8.765 C 358.991 8.247,360.339 7.002,361.004 6.638 C 361.393 6.425,361.863 6.162,362.048 6.055 C 363.361 5.295,369.500 5.541,369.500 6.354 C 369.500 6.427,369.804 6.569,370.175 6.669 C 370.547 6.769,371.010 7.034,371.205 7.259 C 371.401 7.483,371.626 7.667,371.706 7.667 C 371.900 7.667,373.500 9.247,373.500 9.438 C 373.500 9.520,373.650 9.680,373.833 9.795 C 374.017 9.909,374.167 10.102,374.167 10.223 C 374.167 10.344,374.385 10.774,374.652 11.180 C 374.940 11.618,375.219 12.356,375.339 13.000 C 375.451 13.596,375.650 14.257,375.782 14.469 C 376.122 15.016,376.139 16.810,375.809 17.333 C 375.665 17.563,375.458 18.275,375.349 18.917 C 375.218 19.692,374.985 20.331,374.659 20.817 C 374.388 21.220,374.167 21.611,374.167 21.685 C 374.167 21.821,372.147 24.607,371.824 24.917 C 371.011 25.696,370.606 26.167,370.750 26.167 C 371.104 26.167,374.333 22.159,374.333 21.720 C 374.333 21.606,374.520 21.341,374.748 21.129 C 375.030 20.867,375.224 20.427,375.355 19.748 C 375.462 19.199,375.645 18.637,375.762 18.500 C 376.440 17.705,376.527 14.237,375.890 13.373 C 375.706 13.122,375.507 12.515,375.450 12.024 C 375.340 11.089,375.116 10.667,374.730 10.667 C 374.590 10.667,374.500 10.486,374.499 10.208 C 374.499 9.710,373.940 8.667,373.673 8.667 C 373.583 8.667,373.392 8.442,373.250 8.167 C 373.108 7.892,372.883 7.667,372.750 7.667 C 372.617 7.667,372.383 7.476,372.230 7.243 C 372.059 6.981,371.680 6.746,371.239 6.628 C 370.788 6.508,370.464 6.304,370.360 6.076 C 370.182 5.684,369.492 5.505,368.152 5.502 C 367.495 5.500,367.359 5.440,367.194 5.077 C 366.922 4.480,364.025 4.503,363.761 5.104 C 363.631 5.400,363.413 5.475,362.428 5.562 C 361.402 5.652,361.196 5.728,360.833 6.148 C 360.604 6.413,360.270 6.657,360.091 6.691 C 359.908 6.725,359.722 6.934,359.667 7.168 C 359.605 7.434,359.434 7.603,359.191 7.638 C 358.983 7.668,358.787 7.780,358.756 7.888 C 358.513 8.716,358.534 8.720,357.518 7.685 C 356.976 7.133,356.342 6.633,356.108 6.575 C 355.875 6.516,355.573 6.299,355.438 6.092 C 355.246 5.800,354.979 5.694,354.242 5.618 C 353.578 5.549,353.171 5.406,352.888 5.140 C 352.237 4.528,350.302 4.471,349.921 5.053 M142.042 5.792 C 151.185 5.815,166.148 5.815,175.292 5.792 C 184.435 5.768,176.954 5.748,158.667 5.748 C 140.379 5.748,132.898 5.768,142.042 5.792 M212.625 5.792 C 216.590 5.817,223.077 5.817,227.042 5.792 C 231.006 5.767,227.762 5.746,219.833 5.746 C 211.904 5.746,208.660 5.767,212.625 5.792 M235.458 5.789 C 235.848 5.824,236.485 5.824,236.875 5.789 C 237.265 5.754,236.946 5.725,236.167 5.725 C 235.387 5.725,235.069 5.754,235.458 5.789 M335.926 5.903 C 336.232 6.126,336.255 6.441,336.339 11.445 L 336.428 16.750 336.464 11.531 C 336.501 6.225,336.445 5.667,335.879 5.667 C 335.644 5.667,335.652 5.702,335.926 5.903 M350.500 7.483 C 350.179 7.549,349.729 7.722,349.500 7.868 C 349.271 8.015,348.761 8.187,348.366 8.250 C 347.969 8.314,347.456 8.544,347.217 8.766 C 346.979 8.986,346.715 9.167,346.630 9.167 C 346.412 9.167,344.167 11.486,344.167 11.710 C 344.167 11.812,344.027 12.050,343.856 12.239 C 343.296 12.861,343.166 13.632,343.195 16.150 L 343.223 18.583 343.341 16.833 C 343.406 15.871,343.468 14.690,343.480 14.208 C 343.497 13.471,343.549 13.333,343.813 13.333 C 343.985 13.333,344.219 13.221,344.333 13.083 C 344.641 12.713,357.250 12.718,357.740 13.089 C 358.160 13.406,359.068 13.403,359.333 13.083 C 359.511 12.869,360.460 12.833,365.987 12.833 L 372.433 12.833 372.641 13.408 C 372.755 13.724,372.990 14.027,373.164 14.082 C 373.342 14.139,373.509 14.378,373.548 14.633 C 373.591 14.913,373.626 14.793,373.642 14.317 C 373.660 13.762,373.582 13.475,373.359 13.273 C 373.190 13.120,372.952 12.678,372.830 12.289 C 372.709 11.901,372.477 11.433,372.316 11.250 C 371.381 10.187,370.289 9.167,370.086 9.167 C 369.957 9.167,369.754 9.033,369.634 8.869 C 369.429 8.589,368.726 8.317,367.583 8.079 C 367.308 8.021,366.951 7.855,366.790 7.709 C 366.342 7.306,364.746 7.361,363.919 7.808 C 363.554 8.005,363.119 8.167,362.953 8.167 C 362.523 8.167,361.818 8.562,361.346 9.067 C 361.124 9.305,360.861 9.500,360.762 9.500 C 360.662 9.500,360.479 9.731,360.355 10.012 C 360.230 10.294,359.947 10.720,359.727 10.958 C 359.506 11.196,359.281 11.567,359.227 11.783 C 359.093 12.316,358.600 12.565,358.152 12.326 C 357.704 12.085,356.845 11.142,356.838 10.883 C 356.826 10.400,354.546 8.357,353.894 8.246 C 353.540 8.185,353.059 8.002,352.826 7.838 C 352.312 7.478,351.291 7.322,350.500 7.483 M341.393 12.074 C 340.451 13.099,340.320 18.260,341.208 19.315 C 341.460 19.614,341.667 19.764,341.667 19.649 C 341.667 19.533,341.498 19.258,341.292 19.039 C 340.708 18.417,340.717 13.632,341.302 12.839 C 341.699 12.304,341.775 11.657,341.393 12.074 M394.543 14.581 C 394.426 14.714,394.403 14.857,394.490 14.911 C 394.575 14.963,394.691 14.928,394.750 14.833 C 394.809 14.739,394.945 14.714,395.053 14.779 C 395.165 14.847,395.152 14.776,395.021 14.615 C 394.753 14.285,394.801 14.288,394.543 14.581 M373.709 16.083 C 373.711 16.450,373.745 16.580,373.785 16.373 C 373.824 16.166,373.823 15.866,373.781 15.706 C 373.739 15.547,373.707 15.717,373.709 16.083 M373.111 18.711 C 372.866 19.193,372.672 19.700,372.678 19.836 C 372.685 19.972,372.794 19.800,372.921 19.453 C 373.049 19.107,373.268 18.708,373.410 18.567 C 373.632 18.344,373.772 17.833,373.611 17.833 C 373.580 17.833,373.355 18.228,373.111 18.711 M343.500 19.391 C 343.500 19.451,343.650 19.650,343.833 19.833 C 344.017 20.017,344.167 20.103,344.167 20.026 C 344.167 19.948,344.017 19.749,343.833 19.583 C 343.650 19.417,343.500 19.331,343.500 19.391 M341.677 20.469 C 341.671 20.590,341.747 20.839,341.846 21.024 C 342.081 21.462,342.667 22.045,342.667 21.840 C 342.667 21.752,342.520 21.543,342.342 21.377 C 342.163 21.210,341.943 20.889,341.852 20.662 C 341.762 20.435,341.683 20.349,341.677 20.469 M371.176 22.158 C 370.997 22.336,370.733 22.711,370.588 22.991 C 370.443 23.271,370.265 23.500,370.192 23.500 C 370.119 23.500,369.648 23.894,369.146 24.375 C 367.626 25.833,366.840 26.481,366.256 26.758 C 365.950 26.903,365.662 27.167,365.615 27.344 C 365.566 27.535,365.387 27.667,365.179 27.667 C 364.964 27.667,364.752 27.830,364.636 28.083 C 364.532 28.313,364.314 28.500,364.152 28.500 C 363.990 28.500,363.745 28.613,363.607 28.750 C 363.317 29.041,353.500 29.134,353.500 28.847 C 353.500 28.762,353.274 28.644,352.999 28.583 C 352.723 28.522,352.423 28.335,352.333 28.166 C 352.243 27.998,351.887 27.770,351.543 27.659 C 351.198 27.549,350.715 27.243,350.468 26.979 C 350.221 26.716,349.902 26.500,349.759 26.500 C 349.617 26.500,349.500 26.389,349.500 26.254 C 349.500 26.118,349.297 25.875,349.050 25.713 C 348.637 25.442,348.377 25.230,347.545 24.485 C 347.383 24.340,347.165 24.077,347.061 23.902 C 346.957 23.727,346.823 23.630,346.762 23.688 C 346.701 23.746,347.102 24.233,347.652 24.771 C 348.203 25.310,349.095 26.181,349.635 26.708 C 350.174 27.235,350.700 27.667,350.803 27.667 C 350.906 27.667,351.156 27.892,351.360 28.167 C 351.563 28.442,351.800 28.667,351.886 28.667 C 351.972 28.667,352.319 28.910,352.657 29.208 C 353.282 29.759,353.678 30.084,355.360 31.429 C 355.879 31.844,356.346 32.292,356.397 32.425 C 356.448 32.558,356.599 32.667,356.733 32.667 C 356.866 32.667,357.124 32.855,357.304 33.084 C 357.881 33.817,358.473 33.793,359.333 33.001 C 359.746 32.622,360.383 32.111,360.750 31.867 C 361.117 31.623,361.582 31.253,361.784 31.045 C 361.986 30.837,362.267 30.667,362.409 30.667 C 362.551 30.667,362.667 30.556,362.667 30.421 C 362.667 30.286,362.887 30.061,363.157 29.922 C 363.426 29.783,363.745 29.536,363.865 29.373 C 363.985 29.211,364.271 28.954,364.500 28.803 C 364.729 28.652,365.328 28.147,365.831 27.681 C 366.333 27.215,366.808 26.833,366.885 26.833 C 366.962 26.833,367.499 26.346,368.077 25.750 C 368.656 25.154,369.214 24.667,369.319 24.667 C 369.423 24.667,369.582 24.472,369.673 24.234 C 369.763 23.996,369.984 23.763,370.163 23.716 C 370.342 23.669,370.536 23.484,370.593 23.304 C 370.649 23.125,370.922 22.721,371.199 22.406 C 371.735 21.795,371.718 21.616,371.176 22.158 M342.672 22.219 C 342.661 22.509,343.025 23.001,343.379 23.174 L 343.750 23.356 343.397 23.053 C 343.202 22.886,342.961 22.600,342.860 22.417 C 342.759 22.233,342.675 22.145,342.672 22.219 M346.000 23.000 C 346.183 23.183,346.333 23.421,346.333 23.528 C 346.333 23.635,346.381 23.675,346.439 23.616 C 346.573 23.483,346.049 22.667,345.829 22.667 C 345.740 22.667,345.817 22.817,346.000 23.000 M343.667 23.609 C 343.667 23.797,344.100 24.210,344.500 24.404 C 344.637 24.470,344.600 24.405,344.417 24.259 C 344.233 24.112,343.990 23.868,343.875 23.715 C 343.760 23.562,343.667 23.514,343.667 23.609 M348.717 28.715 C 349.010 29.016,349.438 29.410,349.667 29.590 C 349.896 29.770,349.694 29.523,349.218 29.042 C 348.742 28.560,348.314 28.167,348.268 28.167 C 348.222 28.167,348.424 28.413,348.717 28.715 M367.906 28.677 C 367.637 28.958,367.530 29.142,367.667 29.087 C 367.891 28.996,368.602 28.167,368.456 28.167 C 368.423 28.167,368.176 28.396,367.906 28.677 M366.740 29.677 C 366.453 29.977,366.367 30.143,366.532 30.080 C 366.771 29.988,367.448 29.167,367.285 29.167 C 367.254 29.167,367.009 29.396,366.740 29.677 M363.249 32.501 C 362.823 32.972,363.004 33.016,363.452 32.550 C 363.655 32.339,363.761 32.167,363.687 32.167 C 363.612 32.167,363.415 32.317,363.249 32.501 M361.906 33.677 C 361.637 33.958,361.530 34.142,361.667 34.087 C 361.891 33.996,362.602 33.167,362.456 33.167 C 362.423 33.167,362.176 33.396,361.906 33.677 M360.740 34.708 L 360.250 35.250 360.792 34.760 C 361.297 34.304,361.410 34.167,361.281 34.167 C 361.252 34.167,361.009 34.410,360.740 34.708 M336.373 58.510 C 336.341 62.598,336.287 63.667,336.097 63.926 C 335.866 64.243,335.427 64.252,317.055 64.335 L 298.250 64.420 317.099 64.460 C 335.236 64.498,335.959 64.488,336.227 64.193 C 336.476 63.917,336.500 63.347,336.458 58.651 L 336.412 53.417 336.373 58.510 M5.537 57.792 L 5.500 61.833 4.875 61.822 C 3.643 61.799,3.649 61.809,3.089 58.903 L 2.578 56.250 1.289 56.201 L 0.000 56.153 0.000 63.076 L 0.000 70.000 170.750 70.000 C 322.417 70.000,341.500 69.972,341.500 69.750 C 341.500 69.583,341.667 69.500,342.000 69.500 C 342.444 69.500,342.500 69.444,342.500 69.000 C 342.500 68.556,342.556 68.500,343.000 68.500 C 343.444 68.500,343.500 68.444,343.500 68.000 C 343.500 67.556,343.556 67.500,344.000 67.500 C 344.444 67.500,344.500 67.444,344.500 67.000 C 344.500 66.556,344.556 66.500,345.000 66.500 C 345.444 66.500,345.500 66.444,345.500 66.000 C 345.500 65.556,345.556 65.500,346.000 65.500 C 346.444 65.500,346.500 65.444,346.500 65.000 C 346.500 64.556,346.556 64.500,347.000 64.500 C 347.444 64.500,347.500 64.444,347.500 64.000 C 347.500 63.556,347.556 63.500,348.000 63.500 C 348.444 63.500,348.500 63.444,348.500 63.000 C 348.500 62.556,348.556 62.500,349.000 62.500 C 349.444 62.500,349.500 62.444,349.500 62.000 C 349.500 61.556,349.556 61.500,350.000 61.500 C 350.444 61.500,350.500 61.444,350.500 61.000 C 350.500 60.556,350.556 60.500,351.000 60.500 C 351.444 60.500,351.500 60.444,351.500 60.000 C 351.500 59.657,351.582 59.500,351.762 59.500 C 352.127 59.500,352.422 59.166,352.567 58.590 C 352.656 58.234,352.728 58.163,352.830 58.327 C 352.944 58.512,353.027 58.497,353.275 58.249 C 353.479 58.045,353.515 57.922,353.384 57.878 C 353.255 57.835,353.298 57.702,353.510 57.490 C 353.854 57.146,354.088 57.056,353.917 57.333 C 353.763 57.581,353.989 57.535,354.262 57.262 C 354.535 56.989,354.581 56.763,354.333 56.917 C 354.053 57.090,354.148 56.852,354.500 56.500 C 354.683 56.317,354.908 56.167,355.000 56.167 C 355.092 56.167,355.167 56.060,355.167 55.931 C 355.167 55.801,355.260 55.657,355.375 55.610 C 355.490 55.564,355.419 55.520,355.218 55.513 C 355.017 55.506,354.741 55.658,354.606 55.851 C 354.471 56.045,354.280 56.153,354.182 56.093 C 354.068 56.022,354.044 56.090,354.116 56.283 C 354.217 56.550,354.197 56.557,353.940 56.348 C 353.781 56.218,353.428 56.106,353.156 56.098 C 352.774 56.087,352.715 56.123,352.897 56.256 C 353.075 56.386,352.950 56.433,352.400 56.441 C 351.861 56.450,351.556 56.559,351.255 56.852 C 351.030 57.071,350.607 57.438,350.316 57.667 C 350.024 57.896,349.567 58.288,349.299 58.539 C 349.032 58.790,348.711 59.052,348.586 59.122 C 348.379 59.239,347.356 60.152,344.338 62.917 C 341.101 65.881,340.277 66.597,339.947 66.729 C 338.795 67.191,99.344 67.283,54.583 66.838 C 28.469 66.579,24.834 66.453,24.024 65.784 C 23.900 65.681,23.413 65.543,22.941 65.477 C 21.919 65.333,20.563 65.068,19.417 64.787 C 18.749 64.624,26.367 64.567,57.667 64.499 L 96.750 64.416 51.574 64.374 C 12.884 64.339,6.351 64.299,6.074 64.097 C 5.769 63.875,5.745 63.562,5.662 58.805 L 5.574 53.750 5.537 57.792 M142.042 64.292 C 151.185 64.315,166.148 64.315,175.292 64.292 C 184.435 64.268,176.954 64.248,158.667 64.248 C 140.379 64.248,132.898 64.268,142.042 64.292 M212.625 64.292 C 216.590 64.317,223.077 64.317,227.042 64.292 C 231.006 64.267,227.762 64.246,219.833 64.246 C 211.904 64.246,208.660 64.267,212.625 64.292 M235.458 64.289 C 235.848 64.324,236.485 64.324,236.875 64.289 C 237.265 64.254,236.946 64.225,236.167 64.225 C 235.387 64.225,235.069 64.254,235.458 64.289 " stroke="none" fill="#7bd7d3" fill-rule="evenodd"></path><path id="path2" d="M349.218 6.157 C 348.741 6.233,348.152 6.451,347.909 6.643 C 347.665 6.835,347.209 7.039,346.896 7.098 C 346.582 7.157,346.233 7.335,346.121 7.493 C 346.009 7.651,345.729 7.878,345.500 7.997 C 344.905 8.305,343.340 9.988,343.070 10.610 C 342.944 10.899,342.762 11.163,342.665 11.195 C 342.095 11.385,341.761 14.000,342.307 14.000 C 342.544 14.000,342.663 13.783,342.830 13.042 C 342.949 12.515,343.177 11.966,343.336 11.823 C 343.495 11.680,343.751 11.320,343.905 11.023 C 344.253 10.350,345.232 9.360,346.048 8.855 C 346.388 8.645,346.667 8.413,346.667 8.339 C 346.667 8.265,347.060 8.077,347.542 7.921 C 348.023 7.764,348.556 7.512,348.726 7.360 C 349.177 6.956,353.315 6.952,353.774 7.355 C 353.944 7.504,354.331 7.752,354.634 7.906 C 355.251 8.218,357.166 9.988,357.169 10.249 C 357.170 10.341,357.484 10.754,357.866 11.165 L 358.561 11.914 358.944 11.040 C 359.155 10.560,359.395 10.167,359.478 10.167 C 359.561 10.167,359.753 9.904,359.905 9.583 C 360.058 9.262,360.290 9.000,360.421 9.000 C 360.552 9.000,360.780 8.815,360.928 8.590 C 361.076 8.364,361.358 8.129,361.554 8.066 C 361.751 8.004,362.208 7.757,362.569 7.518 C 363.510 6.895,367.022 6.859,368.083 7.462 C 368.450 7.670,369.031 7.916,369.375 8.010 C 369.719 8.103,370.000 8.246,370.000 8.326 C 370.000 8.407,370.281 8.644,370.625 8.854 C 371.482 9.376,372.818 10.794,373.118 11.500 C 373.254 11.821,373.502 12.233,373.669 12.417 C 374.504 13.334,374.430 18.949,373.571 19.808 C 373.349 20.030,373.167 20.378,373.167 20.580 C 373.167 20.783,373.006 21.091,372.809 21.266 C 372.612 21.440,372.311 21.897,372.139 22.281 C 371.967 22.665,371.695 23.022,371.533 23.073 C 371.372 23.124,371.155 23.391,371.051 23.666 C 370.947 23.941,370.741 24.167,370.594 24.167 C 370.446 24.167,370.253 24.356,370.166 24.586 C 370.078 24.817,369.827 25.074,369.609 25.157 C 369.391 25.240,369.172 25.463,369.122 25.652 C 369.073 25.841,368.848 26.066,368.622 26.152 C 368.397 26.238,368.172 26.463,368.122 26.652 C 368.073 26.841,367.842 27.068,367.610 27.157 C 367.377 27.245,367.105 27.471,367.004 27.659 C 366.904 27.846,366.717 28.000,366.590 28.000 C 366.462 28.000,366.203 28.196,366.014 28.437 C 365.699 28.837,365.155 29.249,363.708 30.183 C 363.410 30.376,363.167 30.629,363.167 30.746 C 363.167 30.864,362.942 31.053,362.667 31.167 C 362.392 31.281,362.167 31.479,362.167 31.608 C 362.167 31.736,361.965 31.918,361.719 32.012 C 361.472 32.106,361.116 32.330,360.927 32.510 C 358.935 34.411,357.970 34.653,356.826 33.536 C 355.593 32.334,355.403 32.167,355.268 32.167 C 355.123 32.167,354.265 31.489,353.299 30.610 C 353.013 30.350,352.603 30.071,352.389 29.990 C 352.175 29.908,352.000 29.736,352.000 29.608 C 352.000 29.479,351.782 29.284,351.516 29.173 C 351.250 29.063,350.994 28.830,350.949 28.655 C 350.903 28.480,350.675 28.265,350.442 28.176 C 350.208 28.087,349.892 27.824,349.740 27.591 C 349.587 27.358,349.360 27.167,349.235 27.167 C 349.111 27.167,348.892 26.942,348.750 26.667 C 348.608 26.392,348.382 26.167,348.248 26.167 C 348.114 26.167,347.722 25.858,347.377 25.482 C 347.032 25.105,346.506 24.545,346.208 24.237 C 345.910 23.930,345.667 23.605,345.667 23.517 C 345.667 23.428,345.524 23.311,345.350 23.255 C 345.176 23.200,344.987 22.971,344.931 22.746 C 344.874 22.521,344.642 22.215,344.414 22.066 C 344.186 21.917,344.000 21.690,344.000 21.562 C 344.000 21.237,343.640 20.630,343.292 20.368 C 343.131 20.247,343.000 19.992,343.000 19.802 C 343.000 19.243,342.628 18.115,342.302 17.686 C 342.061 17.368,342.000 16.977,342.000 15.737 C 342.000 14.306,341.847 13.764,341.531 14.081 C 341.256 14.355,341.407 17.851,341.700 18.016 C 341.896 18.125,342.021 18.495,342.101 19.202 C 342.186 19.959,342.317 20.322,342.597 20.581 C 342.806 20.775,343.029 21.155,343.093 21.425 C 343.157 21.695,343.416 22.142,343.669 22.417 C 343.923 22.692,344.177 23.074,344.235 23.266 C 344.293 23.459,344.519 23.698,344.739 23.798 C 344.958 23.898,345.185 24.128,345.242 24.308 C 345.299 24.489,345.531 24.758,345.756 24.906 C 345.982 25.053,346.167 25.283,346.167 25.416 C 346.167 25.549,346.392 25.774,346.667 25.917 C 346.942 26.059,347.167 26.280,347.167 26.407 C 347.167 26.534,347.393 26.739,347.669 26.861 C 347.945 26.983,348.212 27.214,348.263 27.375 C 348.314 27.535,348.461 27.667,348.590 27.667 C 348.718 27.667,348.994 27.899,349.203 28.182 C 349.412 28.466,349.742 28.785,349.936 28.891 C 350.420 29.155,351.441 29.988,351.959 30.542 C 352.195 30.794,352.480 31.000,352.592 31.000 C 352.704 31.000,352.917 31.186,353.066 31.414 C 353.215 31.642,353.517 31.873,353.736 31.928 C 353.956 31.983,354.173 32.172,354.218 32.347 C 354.264 32.522,354.440 32.717,354.609 32.781 C 354.778 32.844,355.111 33.088,355.349 33.323 C 355.905 33.872,356.435 34.298,357.303 34.898 C 357.686 35.162,358.000 35.443,358.000 35.523 C 358.000 35.795,358.822 35.666,358.981 35.368 C 359.069 35.204,359.334 34.967,359.570 34.840 C 359.807 34.714,360.000 34.528,360.000 34.426 C 360.000 34.325,360.262 34.101,360.583 33.928 C 360.904 33.756,361.167 33.519,361.167 33.402 C 361.167 33.285,361.298 33.146,361.458 33.093 C 361.619 33.041,362.081 32.698,362.487 32.332 C 362.892 31.966,363.293 31.667,363.379 31.667 C 363.465 31.667,363.683 31.479,363.863 31.250 C 364.043 31.021,364.300 30.833,364.432 30.833 C 364.565 30.833,364.757 30.651,364.859 30.428 C 364.960 30.205,365.259 29.933,365.522 29.824 C 365.785 29.715,366.000 29.521,366.000 29.392 C 366.000 29.264,366.184 29.089,366.408 29.003 C 366.632 28.918,366.939 28.660,367.090 28.431 C 367.240 28.201,367.497 27.971,367.660 27.919 C 368.038 27.799,371.507 24.412,371.929 23.750 C 372.105 23.475,372.417 23.113,372.624 22.946 C 372.831 22.779,373.000 22.496,373.000 22.316 C 373.000 22.136,373.115 21.945,373.256 21.891 C 373.569 21.771,374.000 20.973,374.000 20.514 C 374.000 20.329,374.140 20.103,374.312 20.011 C 375.205 19.534,375.306 12.402,374.425 12.063 C 374.303 12.017,374.109 11.640,373.993 11.227 C 373.869 10.784,373.622 10.369,373.391 10.218 C 373.176 10.077,373.000 9.876,373.000 9.771 C 373.000 9.602,372.567 9.179,370.821 7.642 C 370.546 7.400,370.045 7.150,369.709 7.087 C 369.373 7.024,368.894 6.800,368.644 6.590 C 367.650 5.753,362.609 5.875,362.275 6.744 C 362.230 6.862,361.944 7.006,361.638 7.064 C 361.026 7.182,359.484 8.559,359.071 9.357 C 358.803 9.876,358.483 9.964,358.182 9.601 C 358.076 9.474,357.766 9.277,357.494 9.164 C 357.223 9.052,357.000 8.853,357.000 8.722 C 357.000 8.591,356.787 8.362,356.527 8.213 C 356.267 8.064,355.985 7.790,355.902 7.605 C 355.818 7.420,355.535 7.212,355.272 7.143 C 355.010 7.075,354.513 6.823,354.168 6.584 C 353.465 6.097,350.954 5.880,349.218 6.157 M6.278 6.278 C 6.053 6.503,6.149 63.613,6.375 63.782 C 6.504 63.878,69.179 63.902,171.167 63.844 L 335.750 63.750 335.750 35.000 L 335.750 6.250 171.070 6.208 C 80.495 6.185,6.339 6.217,6.278 6.278 " stroke="none" fill="#060611" fill-rule="evenodd"></path><path id="path3" d="M350.826 5.396 C 350.778 5.444,350.004 5.592,349.105 5.726 C 347.909 5.904,347.371 6.063,347.100 6.318 C 346.896 6.510,346.612 6.667,346.471 6.667 C 345.462 6.667,342.001 10.445,341.723 11.849 C 341.662 12.161,341.455 12.629,341.264 12.889 C 340.714 13.636,340.736 18.447,341.292 19.039 C 341.498 19.258,341.667 19.604,341.667 19.808 C 341.667 20.295,342.106 21.333,342.312 21.333 C 342.401 21.333,342.562 21.601,342.670 21.928 C 342.778 22.255,343.081 22.761,343.344 23.053 C 343.607 23.345,344.019 23.820,344.260 24.109 C 344.501 24.398,344.917 24.873,345.183 25.163 C 345.449 25.454,345.667 25.757,345.667 25.837 C 345.667 25.916,345.892 26.114,346.167 26.277 C 346.442 26.439,346.667 26.652,346.667 26.750 C 346.667 26.848,346.891 27.061,347.165 27.223 C 347.440 27.385,347.742 27.664,347.838 27.842 C 347.934 28.021,348.090 28.167,348.185 28.167 C 348.280 28.167,348.784 28.578,349.304 29.081 C 350.584 30.318,352.984 32.333,353.178 32.333 C 353.265 32.333,353.499 32.521,353.698 32.750 C 353.897 32.979,354.154 33.167,354.269 33.167 C 354.383 33.167,354.638 33.392,354.833 33.667 C 355.029 33.942,355.261 34.167,355.348 34.167 C 355.435 34.167,355.753 34.410,356.054 34.708 C 357.689 36.323,358.494 36.569,359.434 35.742 C 359.699 35.509,360.554 34.795,361.333 34.156 C 362.113 33.517,362.938 32.819,363.167 32.603 C 363.396 32.388,363.715 32.167,363.875 32.111 C 364.035 32.056,364.167 31.908,364.167 31.783 C 364.167 31.659,364.373 31.450,364.625 31.321 C 364.877 31.191,365.271 30.910,365.500 30.696 C 365.729 30.483,366.554 29.787,367.333 29.151 C 368.113 28.515,368.803 27.940,368.867 27.872 C 368.931 27.805,369.156 27.578,369.367 27.367 C 369.577 27.156,369.803 26.931,369.867 26.867 C 369.931 26.802,370.133 26.600,370.317 26.417 C 370.500 26.233,370.725 26.008,370.817 25.917 C 370.908 25.825,371.133 25.600,371.317 25.417 C 371.500 25.233,371.728 25.008,371.824 24.917 C 372.147 24.607,374.167 21.821,374.167 21.685 C 374.167 21.611,374.388 21.220,374.659 20.817 C 374.985 20.331,375.218 19.692,375.349 18.917 C 375.458 18.275,375.665 17.563,375.809 17.333 C 376.139 16.810,376.122 15.016,375.782 14.469 C 375.650 14.257,375.451 13.596,375.339 13.000 C 375.219 12.356,374.940 11.618,374.652 11.180 C 374.385 10.774,374.167 10.344,374.167 10.223 C 374.167 10.102,374.017 9.909,373.833 9.795 C 373.650 9.680,373.500 9.520,373.500 9.438 C 373.500 9.247,371.900 7.667,371.706 7.667 C 371.626 7.667,371.401 7.483,371.205 7.259 C 371.010 7.034,370.547 6.769,370.175 6.669 C 369.804 6.569,369.500 6.427,369.500 6.354 C 369.500 5.541,363.361 5.295,362.048 6.055 C 361.863 6.162,361.393 6.425,361.004 6.638 C 360.339 7.002,358.991 8.247,358.702 8.765 C 358.513 9.101,357.578 8.721,357.347 8.213 C 357.249 7.999,357.039 7.774,356.880 7.713 C 356.721 7.652,356.414 7.391,356.197 7.134 C 355.981 6.877,355.660 6.667,355.485 6.667 C 355.310 6.667,355.167 6.594,355.167 6.504 C 355.167 6.210,354.257 5.864,352.993 5.677 C 352.309 5.575,351.562 5.451,351.331 5.401 C 351.101 5.351,350.874 5.349,350.826 5.396 M6.008 6.075 C 5.495 6.621,5.465 63.465,5.977 63.977 C 6.478 64.478,335.732 64.425,336.098 63.925 C 336.437 63.461,336.373 6.307,336.033 5.967 C 335.856 5.789,306.003 5.747,171.083 5.731 L 6.349 5.712 6.008 6.075 M354.168 6.584 C 354.513 6.823,355.010 7.075,355.272 7.143 C 355.535 7.212,355.818 7.420,355.902 7.605 C 355.985 7.790,356.267 8.064,356.527 8.213 C 356.787 8.362,357.000 8.591,357.000 8.722 C 357.000 8.853,357.223 9.052,357.494 9.164 C 357.766 9.277,358.076 9.474,358.182 9.601 C 358.483 9.964,358.803 9.876,359.071 9.357 C 359.484 8.559,361.026 7.182,361.638 7.064 C 361.944 7.006,362.230 6.862,362.275 6.744 C 362.609 5.875,367.650 5.753,368.644 6.590 C 368.894 6.800,369.373 7.024,369.709 7.087 C 370.045 7.150,370.546 7.400,370.821 7.642 C 372.567 9.179,373.000 9.602,373.000 9.771 C 373.000 9.876,373.176 10.077,373.391 10.218 C 373.622 10.369,373.869 10.784,373.993 11.227 C 374.109 11.640,374.303 12.017,374.425 12.063 C 375.306 12.402,375.205 19.534,374.312 20.011 C 374.140 20.103,374.000 20.329,374.000 20.514 C 374.000 20.973,373.569 21.771,373.256 21.891 C 373.115 21.945,373.000 22.136,373.000 22.316 C 373.000 22.496,372.831 22.779,372.624 22.946 C 372.417 23.113,372.105 23.475,371.929 23.750 C 371.507 24.412,368.038 27.799,367.660 27.919 C 367.497 27.971,367.240 28.201,367.090 28.431 C 366.939 28.660,366.632 28.918,366.408 29.003 C 366.184 29.089,366.000 29.264,366.000 29.392 C 366.000 29.521,365.785 29.715,365.522 29.824 C 365.259 29.933,364.960 30.205,364.859 30.428 C 364.757 30.651,364.565 30.833,364.432 30.833 C 364.300 30.833,364.043 31.021,363.863 31.250 C 363.683 31.479,363.465 31.667,363.379 31.667 C 363.293 31.667,362.892 31.966,362.487 32.332 C 362.081 32.698,361.619 33.041,361.458 33.093 C 361.298 33.146,361.167 33.285,361.167 33.402 C 361.167 33.519,360.904 33.756,360.583 33.928 C 360.262 34.101,360.000 34.325,360.000 34.426 C 360.000 34.528,359.807 34.714,359.570 34.840 C 359.334 34.967,359.069 35.204,358.981 35.368 C 358.822 35.666,358.000 35.795,358.000 35.523 C 358.000 35.443,357.686 35.162,357.303 34.898 C 356.435 34.298,355.905 33.872,355.349 33.323 C 355.111 33.088,354.778 32.844,354.609 32.781 C 354.440 32.717,354.264 32.522,354.218 32.347 C 354.173 32.172,353.956 31.983,353.736 31.928 C 353.517 31.873,353.215 31.642,353.066 31.414 C 352.917 31.186,352.704 31.000,352.592 31.000 C 352.480 31.000,352.195 30.794,351.959 30.542 C 351.441 29.988,350.420 29.155,349.936 28.891 C 349.742 28.785,349.412 28.466,349.203 28.182 C 348.994 27.899,348.718 27.667,348.590 27.667 C 348.461 27.667,348.314 27.535,348.263 27.375 C 348.212 27.214,347.945 26.983,347.669 26.861 C 347.393 26.739,347.167 26.534,347.167 26.407 C 347.167 26.280,346.942 26.059,346.667 25.917 C 346.392 25.774,346.167 25.549,346.167 25.416 C 346.167 25.283,345.982 25.053,345.756 24.906 C 345.531 24.758,345.299 24.489,345.242 24.308 C 345.185 24.128,344.958 23.898,344.739 23.798 C 344.519 23.698,344.293 23.459,344.235 23.266 C 344.177 23.074,343.923 22.692,343.669 22.417 C 343.416 22.142,343.157 21.695,343.093 21.425 C 343.029 21.155,342.806 20.775,342.597 20.581 C 342.317 20.322,342.186 19.959,342.101 19.202 C 342.021 18.495,341.896 18.125,341.700 18.016 C 341.407 17.851,341.256 14.355,341.531 14.081 C 341.847 13.764,342.000 14.306,342.000 15.737 C 342.000 16.977,342.061 17.368,342.302 17.686 C 342.628 18.115,343.000 19.243,343.000 19.802 C 343.000 19.992,343.131 20.247,343.292 20.368 C 343.640 20.630,344.000 21.237,344.000 21.562 C 344.000 21.690,344.186 21.917,344.414 22.066 C 344.642 22.215,344.874 22.521,344.931 22.746 C 344.987 22.971,345.176 23.200,345.350 23.255 C 345.524 23.311,345.667 23.428,345.667 23.517 C 345.667 23.605,345.910 23.930,346.208 24.237 C 346.506 24.545,347.032 25.105,347.377 25.482 C 347.722 25.858,348.114 26.167,348.248 26.167 C 348.382 26.167,348.608 26.392,348.750 26.667 C 348.892 26.942,349.111 27.167,349.235 27.167 C 349.360 27.167,349.587 27.358,349.740 27.591 C 349.892 27.824,350.208 28.087,350.442 28.176 C 350.675 28.265,350.903 28.480,350.949 28.655 C 350.994 28.830,351.250 29.063,351.516 29.173 C 351.782 29.284,352.000 29.479,352.000 29.608 C 352.000 29.736,352.175 29.908,352.389 29.990 C 352.603 30.071,353.013 30.350,353.299 30.610 C 354.265 31.489,355.123 32.167,355.268 32.167 C 355.403 32.167,355.593 32.334,356.826 33.536 C 357.970 34.653,358.935 34.411,360.927 32.510 C 361.116 32.330,361.472 32.106,361.719 32.012 C 361.965 31.918,362.167 31.736,362.167 31.608 C 362.167 31.479,362.392 31.281,362.667 31.167 C 362.942 31.053,363.167 30.864,363.167 30.746 C 363.167 30.629,363.410 30.376,363.708 30.183 C 365.155 29.249,365.699 28.837,366.014 28.437 C 366.203 28.196,366.462 28.000,366.590 28.000 C 366.717 28.000,366.904 27.846,367.004 27.659 C 367.105 27.471,367.377 27.245,367.610 27.157 C 367.842 27.068,368.073 26.841,368.122 26.652 C 368.172 26.463,368.397 26.238,368.622 26.152 C 368.848 26.066,369.073 25.841,369.122 25.652 C 369.172 25.463,369.391 25.240,369.609 25.157 C 369.827 25.074,370.078 24.817,370.166 24.586 C 370.253 24.356,370.446 24.167,370.594 24.167 C 370.741 24.167,370.947 23.941,371.051 23.666 C 371.155 23.391,371.372 23.124,371.533 23.073 C 371.695 23.022,371.967 22.665,372.139 22.281 C 372.311 21.897,372.612 21.440,372.809 21.266 C 373.006 21.091,373.167 20.783,373.167 20.580 C 373.167 20.378,373.349 20.030,373.571 19.808 C 374.430 18.949,374.504 13.334,373.669 12.417 C 373.502 12.233,373.254 11.821,373.118 11.500 C 372.818 10.794,371.482 9.376,370.625 8.854 C 370.281 8.644,370.000 8.407,370.000 8.326 C 370.000 8.246,369.719 8.103,369.375 8.010 C 369.031 7.916,368.450 7.670,368.083 7.462 C 367.022 6.859,363.510 6.895,362.569 7.518 C 362.208 7.757,361.751 8.004,361.554 8.066 C 361.358 8.129,361.076 8.364,360.928 8.590 C 360.780 8.815,360.552 9.000,360.421 9.000 C 360.290 9.000,360.058 9.262,359.905 9.583 C 359.753 9.904,359.561 10.167,359.478 10.167 C 359.395 10.167,359.155 10.560,358.944 11.040 L 358.561 11.914 357.866 11.165 C 357.484 10.754,357.170 10.341,357.169 10.249 C 357.166 9.988,355.251 8.218,354.634 7.906 C 354.331 7.752,353.944 7.504,353.774 7.355 C 353.315 6.952,349.177 6.956,348.726 7.360 C 348.556 7.512,348.023 7.764,347.542 7.921 C 347.060 8.077,346.667 8.265,346.667 8.339 C 346.667 8.413,346.388 8.645,346.048 8.855 C 345.232 9.360,344.253 10.350,343.905 11.023 C 343.751 11.320,343.495 11.680,343.336 11.823 C 343.177 11.966,342.949 12.515,342.830 13.042 C 342.663 13.783,342.544 14.000,342.307 14.000 C 341.761 14.000,342.095 11.385,342.665 11.195 C 342.762 11.163,342.944 10.899,343.070 10.610 C 343.340 9.988,344.905 8.305,345.500 7.997 C 345.729 7.878,346.009 7.651,346.121 7.493 C 346.233 7.335,346.582 7.157,346.896 7.098 C 347.209 7.039,347.665 6.835,347.909 6.643 C 348.905 5.860,353.066 5.821,354.168 6.584 M335.750 35.000 L 335.750 63.750 171.167 63.844 C 69.179 63.902,6.504 63.878,6.375 63.782 C 6.149 63.613,6.053 6.503,6.278 6.278 C 6.339 6.217,80.495 6.185,171.070 6.208 L 335.750 6.250 335.750 35.000 M352.826 7.838 C 353.059 8.002,353.540 8.185,353.894 8.246 C 354.546 8.357,356.826 10.400,356.838 10.883 C 356.845 11.142,357.704 12.085,358.152 12.326 C 358.600 12.565,359.093 12.316,359.227 11.783 C 359.281 11.567,359.506 11.196,359.727 10.958 C 359.947 10.720,360.230 10.294,360.355 10.012 C 360.479 9.731,360.662 9.500,360.762 9.500 C 360.861 9.500,361.124 9.305,361.346 9.067 C 361.818 8.562,362.523 8.167,362.953 8.167 C 363.119 8.167,363.554 8.005,363.919 7.808 C 364.746 7.361,366.342 7.306,366.790 7.709 C 366.951 7.855,367.308 8.021,367.583 8.079 C 368.726 8.317,369.429 8.589,369.634 8.869 C 369.754 9.033,369.957 9.167,370.086 9.167 C 370.215 9.167,370.703 9.560,371.171 10.042 C 372.457 11.364,372.581 11.529,372.819 12.250 C 372.941 12.617,373.171 13.067,373.332 13.250 C 373.905 13.906,373.889 18.135,373.311 18.713 C 373.168 18.856,372.951 19.335,372.830 19.778 C 372.708 20.221,372.509 20.644,372.387 20.717 C 372.264 20.791,372.023 21.128,371.850 21.467 C 371.677 21.806,371.384 22.220,371.200 22.387 C 371.015 22.554,370.776 22.903,370.668 23.163 C 370.561 23.422,370.330 23.672,370.155 23.718 C 369.980 23.764,369.763 23.996,369.673 24.234 C 369.582 24.472,369.423 24.667,369.319 24.667 C 369.214 24.667,368.656 25.154,368.077 25.750 C 367.499 26.346,366.962 26.833,366.885 26.833 C 366.808 26.833,366.333 27.215,365.831 27.681 C 365.328 28.147,364.729 28.652,364.500 28.803 C 364.271 28.954,363.985 29.211,363.865 29.373 C 363.745 29.536,363.426 29.783,363.157 29.922 C 362.887 30.061,362.667 30.286,362.667 30.421 C 362.667 30.556,362.551 30.667,362.409 30.667 C 362.267 30.667,361.986 30.837,361.784 31.045 C 361.582 31.253,361.117 31.623,360.750 31.867 C 360.383 32.111,359.746 32.622,359.333 33.001 C 358.473 33.793,357.881 33.817,357.304 33.084 C 357.124 32.855,356.866 32.667,356.733 32.667 C 356.599 32.667,356.448 32.558,356.397 32.425 C 356.346 32.292,355.879 31.844,355.360 31.429 C 353.678 30.084,353.282 29.759,352.657 29.208 C 352.319 28.910,351.972 28.667,351.886 28.667 C 351.800 28.667,351.563 28.442,351.360 28.167 C 351.156 27.892,350.906 27.667,350.803 27.667 C 350.700 27.667,350.196 27.258,349.683 26.757 C 347.032 24.174,346.167 23.285,346.167 23.146 C 346.167 23.062,345.992 22.913,345.779 22.816 C 345.565 22.719,345.298 22.383,345.184 22.070 C 345.071 21.756,344.914 21.500,344.835 21.500 C 344.756 21.500,344.496 21.087,344.257 20.583 C 344.019 20.079,343.760 19.667,343.682 19.667 C 342.854 19.667,343.007 13.182,343.856 12.239 C 344.027 12.050,344.167 11.812,344.167 11.710 C 344.167 11.486,346.412 9.167,346.630 9.167 C 346.715 9.167,346.979 8.986,347.217 8.766 C 347.456 8.544,347.969 8.314,348.366 8.250 C 348.761 8.187,349.271 8.015,349.500 7.868 C 350.407 7.289,352.022 7.274,352.826 7.838 " stroke="none" fill="#949c9c" fill-rule="evenodd"></path></g></svg>